<svg width="260" height="253" viewBox="0 0 260 253" fill="none" xmlns="http://www.w3.org/2000/svg">
<path d="M133.486 252.558C202.993 252.558 259.341 196.211 259.341 126.703C259.341 57.1951 202.993 0.847839 133.486 0.847839C63.9777 0.847839 7.63043 57.1951 7.63043 126.703C7.63043 196.211 63.9777 252.558 133.486 252.558Z" fill="#F1F1F5"/>
<path d="M28.0725 85.3479C42.3798 85.3479 53.9783 73.7494 53.9783 59.4421C53.9783 45.1347 42.3798 33.5363 28.0725 33.5363C13.7651 33.5363 2.16666 45.1347 2.16666 59.4421C2.16666 73.7494 13.7651 85.3479 28.0725 85.3479Z" fill="#E0E0E0"/>
<path d="M20.3478 126.515C21.1282 126.515 21.7609 125.882 21.7609 125.101C21.7609 124.321 21.1282 123.688 20.3478 123.688C19.5674 123.688 18.9348 124.321 18.9348 125.101C18.9348 125.882 19.5674 126.515 20.3478 126.515Z" fill="#E0E0E0"/>
<path d="M30.2391 126.515C31.0195 126.515 31.6522 125.882 31.6522 125.101C31.6522 124.321 31.0195 123.688 30.2391 123.688C29.4587 123.688 28.8261 124.321 28.8261 125.101C28.8261 125.882 29.4587 126.515 30.2391 126.515Z" fill="#E0E0E0"/>
<path d="M40.1305 126.515C40.9109 126.515 41.5435 125.882 41.5435 125.101C41.5435 124.321 40.9109 123.688 40.1305 123.688C39.35 123.688 38.7174 124.321 38.7174 125.101C38.7174 125.882 39.35 126.515 40.1305 126.515Z" fill="#E0E0E0"/>
<path d="M50.0217 126.515C50.8021 126.515 51.4348 125.882 51.4348 125.101C51.4348 124.321 50.8021 123.688 50.0217 123.688C49.2413 123.688 48.6087 124.321 48.6087 125.101C48.6087 125.882 49.2413 126.515 50.0217 126.515Z" fill="#E0E0E0"/>
<path d="M59.913 126.515C60.6934 126.515 61.3261 125.882 61.3261 125.101C61.3261 124.321 60.6934 123.688 59.913 123.688C59.1326 123.688 58.5 124.321 58.5 125.101C58.5 125.882 59.1326 126.515 59.913 126.515Z" fill="#E0E0E0"/>
<path d="M69.8043 126.515C70.5847 126.515 71.2174 125.882 71.2174 125.101C71.2174 124.321 70.5847 123.688 69.8043 123.688C69.0239 123.688 68.3913 124.321 68.3913 125.101C68.3913 125.882 69.0239 126.515 69.8043 126.515Z" fill="#E0E0E0"/>
<path d="M20.3478 117C21.1282 117 21.7609 116.367 21.7609 115.587C21.7609 114.807 21.1282 114.174 20.3478 114.174C19.5674 114.174 18.9348 114.807 18.9348 115.587C18.9348 116.367 19.5674 117 20.3478 117Z" fill="#E0E0E0"/>
<path d="M30.2391 117C31.0195 117 31.6522 116.367 31.6522 115.587C31.6522 114.807 31.0195 114.174 30.2391 114.174C29.4587 114.174 28.8261 114.807 28.8261 115.587C28.8261 116.367 29.4587 117 30.2391 117Z" fill="#E0E0E0"/>
<path d="M40.1305 117C40.9109 117 41.5435 116.367 41.5435 115.587C41.5435 114.807 40.9109 114.174 40.1305 114.174C39.35 114.174 38.7174 114.807 38.7174 115.587C38.7174 116.367 39.35 117 40.1305 117Z" fill="#E0E0E0"/>
<path d="M50.0217 117C50.8021 117 51.4348 116.367 51.4348 115.587C51.4348 114.807 50.8021 114.174 50.0217 114.174C49.2413 114.174 48.6087 114.807 48.6087 115.587C48.6087 116.367 49.2413 117 50.0217 117Z" fill="#E0E0E0"/>
<path d="M59.913 117C60.6934 117 61.3261 116.367 61.3261 115.587C61.3261 114.807 60.6934 114.174 59.913 114.174C59.1326 114.174 58.5 114.807 58.5 115.587C58.5 116.367 59.1326 117 59.913 117Z" fill="#E0E0E0"/>
<path d="M69.8043 117C70.5847 117 71.2174 116.367 71.2174 115.587C71.2174 114.807 70.5847 114.174 69.8043 114.174C69.0239 114.174 68.3913 114.807 68.3913 115.587C68.3913 116.367 69.0239 117 69.8043 117Z" fill="#E0E0E0"/>
<path d="M79.7898 117C80.5702 117 81.2029 116.367 81.2029 115.587C81.2029 114.807 80.5702 114.174 79.7898 114.174C79.0094 114.174 78.3768 114.807 78.3768 115.587C78.3768 116.367 79.0094 117 79.7898 117Z" fill="#E0E0E0"/>
<path d="M20.3478 107.391C21.1282 107.391 21.7609 106.759 21.7609 105.978C21.7609 105.198 21.1282 104.565 20.3478 104.565C19.5674 104.565 18.9348 105.198 18.9348 105.978C18.9348 106.759 19.5674 107.391 20.3478 107.391Z" fill="#E0E0E0"/>
<path d="M30.2391 107.391C31.0195 107.391 31.6522 106.759 31.6522 105.978C31.6522 105.198 31.0195 104.565 30.2391 104.565C29.4587 104.565 28.8261 105.198 28.8261 105.978C28.8261 106.759 29.4587 107.391 30.2391 107.391Z" fill="#E0E0E0"/>
<path d="M40.1305 107.391C40.9109 107.391 41.5435 106.759 41.5435 105.978C41.5435 105.198 40.9109 104.565 40.1305 104.565C39.35 104.565 38.7174 105.198 38.7174 105.978C38.7174 106.759 39.35 107.391 40.1305 107.391Z" fill="#E0E0E0"/>
<path d="M50.0217 107.391C50.8021 107.391 51.4348 106.759 51.4348 105.978C51.4348 105.198 50.8021 104.565 50.0217 104.565C49.2413 104.565 48.6087 105.198 48.6087 105.978C48.6087 106.759 49.2413 107.391 50.0217 107.391Z" fill="#E0E0E0"/>
<path d="M59.913 107.391C60.6934 107.391 61.3261 106.759 61.3261 105.978C61.3261 105.198 60.6934 104.565 59.913 104.565C59.1326 104.565 58.5 105.198 58.5 105.978C58.5 106.759 59.1326 107.391 59.913 107.391Z" fill="#E0E0E0"/>
<path d="M69.8043 107.391C70.5847 107.391 71.2174 106.759 71.2174 105.978C71.2174 105.198 70.5847 104.565 69.8043 104.565C69.0239 104.565 68.3913 105.198 68.3913 105.978C68.3913 106.759 69.0239 107.391 69.8043 107.391Z" fill="#E0E0E0"/>
<path d="M79.7898 107.391C80.5702 107.391 81.2029 106.759 81.2029 105.978C81.2029 105.198 80.5702 104.565 79.7898 104.565C79.0094 104.565 78.3768 105.198 78.3768 105.978C78.3768 106.759 79.0094 107.391 79.7898 107.391Z" fill="#E0E0E0"/>
<path d="M89.6812 107.391C90.4616 107.391 91.0942 106.759 91.0942 105.978C91.0942 105.198 90.4616 104.565 89.6812 104.565C88.9008 104.565 88.2681 105.198 88.2681 105.978C88.2681 106.759 88.9008 107.391 89.6812 107.391Z" fill="#E0E0E0"/>
<path d="M99.5725 107.391C100.353 107.391 100.986 106.759 100.986 105.978C100.986 105.198 100.353 104.565 99.5725 104.565C98.7921 104.565 98.1594 105.198 98.1594 105.978C98.1594 106.759 98.7921 107.391 99.5725 107.391Z" fill="#E0E0E0"/>
<path d="M20.3478 97.7826C21.1282 97.7826 21.7609 97.15 21.7609 96.3696C21.7609 95.5892 21.1282 94.9565 20.3478 94.9565C19.5674 94.9565 18.9348 95.5892 18.9348 96.3696C18.9348 97.15 19.5674 97.7826 20.3478 97.7826Z" fill="#E0E0E0"/>
<path d="M30.2391 97.7826C31.0195 97.7826 31.6522 97.15 31.6522 96.3696C31.6522 95.5892 31.0195 94.9565 30.2391 94.9565C29.4587 94.9565 28.8261 95.5892 28.8261 96.3696C28.8261 97.15 29.4587 97.7826 30.2391 97.7826Z" fill="#E0E0E0"/>
<path d="M40.1305 97.7826C40.9109 97.7826 41.5435 97.15 41.5435 96.3696C41.5435 95.5892 40.9109 94.9565 40.1305 94.9565C39.35 94.9565 38.7174 95.5892 38.7174 96.3696C38.7174 97.15 39.35 97.7826 40.1305 97.7826Z" fill="#E0E0E0"/>
<path d="M50.0217 97.7826C50.8021 97.7826 51.4348 97.15 51.4348 96.3696C51.4348 95.5892 50.8021 94.9565 50.0217 94.9565C49.2413 94.9565 48.6087 95.5892 48.6087 96.3696C48.6087 97.15 49.2413 97.7826 50.0217 97.7826Z" fill="#E0E0E0"/>
<path d="M59.913 97.7826C60.6934 97.7826 61.3261 97.15 61.3261 96.3696C61.3261 95.5892 60.6934 94.9565 59.913 94.9565C59.1326 94.9565 58.5 95.5892 58.5 96.3696C58.5 97.15 59.1326 97.7826 59.913 97.7826Z" fill="#E0E0E0"/>
<path d="M69.8043 97.7826C70.5847 97.7826 71.2174 97.15 71.2174 96.3696C71.2174 95.5892 70.5847 94.9565 69.8043 94.9565C69.0239 94.9565 68.3913 95.5892 68.3913 96.3696C68.3913 97.15 69.0239 97.7826 69.8043 97.7826Z" fill="#E0E0E0"/>
<path d="M79.7898 97.7826C80.5702 97.7826 81.2029 97.15 81.2029 96.3696C81.2029 95.5892 80.5702 94.9565 79.7898 94.9565C79.0094 94.9565 78.3768 95.5892 78.3768 96.3696C78.3768 97.15 79.0094 97.7826 79.7898 97.7826Z" fill="#E0E0E0"/>
<path d="M89.6812 97.7826C90.4616 97.7826 91.0942 97.15 91.0942 96.3696C91.0942 95.5892 90.4616 94.9565 89.6812 94.9565C88.9008 94.9565 88.2681 95.5892 88.2681 96.3696C88.2681 97.15 88.9008 97.7826 89.6812 97.7826Z" fill="#E0E0E0"/>
<path d="M99.5725 97.7826C100.353 97.7826 100.986 97.15 100.986 96.3696C100.986 95.5892 100.353 94.9565 99.5725 94.9565C98.7921 94.9565 98.1594 95.5892 98.1594 96.3696C98.1594 97.15 98.7921 97.7826 99.5725 97.7826Z" fill="#E0E0E0"/>
<path d="M20.3478 88.2681C21.1282 88.2681 21.7609 87.6355 21.7609 86.8551C21.7609 86.0747 21.1282 85.442 20.3478 85.442C19.5674 85.442 18.9348 86.0747 18.9348 86.8551C18.9348 87.6355 19.5674 88.2681 20.3478 88.2681Z" fill="#E0E0E0"/>
<path d="M30.2391 88.2681C31.0195 88.2681 31.6522 87.6355 31.6522 86.8551C31.6522 86.0747 31.0195 85.442 30.2391 85.442C29.4587 85.442 28.8261 86.0747 28.8261 86.8551C28.8261 87.6355 29.4587 88.2681 30.2391 88.2681Z" fill="#E0E0E0"/>
<path d="M40.1305 88.2681C40.9109 88.2681 41.5435 87.6355 41.5435 86.8551C41.5435 86.0747 40.9109 85.442 40.1305 85.442C39.35 85.442 38.7174 86.0747 38.7174 86.8551C38.7174 87.6355 39.35 88.2681 40.1305 88.2681Z" fill="#E0E0E0"/>
<path d="M50.0217 88.2681C50.8021 88.2681 51.4348 87.6355 51.4348 86.8551C51.4348 86.0747 50.8021 85.442 50.0217 85.442C49.2413 85.442 48.6087 86.0747 48.6087 86.8551C48.6087 87.6355 49.2413 88.2681 50.0217 88.2681Z" fill="#E0E0E0"/>
<path d="M59.913 88.2681C60.6934 88.2681 61.3261 87.6355 61.3261 86.8551C61.3261 86.0747 60.6934 85.442 59.913 85.442C59.1326 85.442 58.5 86.0747 58.5 86.8551C58.5 87.6355 59.1326 88.2681 59.913 88.2681Z" fill="#E0E0E0"/>
<path d="M69.8043 88.2681C70.5847 88.2681 71.2174 87.6355 71.2174 86.8551C71.2174 86.0747 70.5847 85.442 69.8043 85.442C69.0239 85.442 68.3913 86.0747 68.3913 86.8551C68.3913 87.6355 69.0239 88.2681 69.8043 88.2681Z" fill="#E0E0E0"/>
<path d="M79.7898 88.2681C80.5702 88.2681 81.2029 87.6355 81.2029 86.8551C81.2029 86.0747 80.5702 85.442 79.7898 85.442C79.0094 85.442 78.3768 86.0747 78.3768 86.8551C78.3768 87.6355 79.0094 88.2681 79.7898 88.2681Z" fill="#E0E0E0"/>
<path d="M89.6812 88.2681C90.4616 88.2681 91.0942 87.6355 91.0942 86.8551C91.0942 86.0747 90.4616 85.442 89.6812 85.442C88.9008 85.442 88.2681 86.0747 88.2681 86.8551C88.2681 87.6355 88.9008 88.2681 89.6812 88.2681Z" fill="#E0E0E0"/>
<path d="M99.5725 88.2681C100.353 88.2681 100.986 87.6355 100.986 86.8551C100.986 86.0747 100.353 85.442 99.5725 85.442C98.7921 85.442 98.1594 86.0747 98.1594 86.8551C98.1594 87.6355 98.7921 88.2681 99.5725 88.2681Z" fill="#E0E0E0"/>
<path d="M20.3478 78.6594C21.1282 78.6594 21.7609 78.0268 21.7609 77.2464C21.7609 76.466 21.1282 75.8333 20.3478 75.8333C19.5674 75.8333 18.9348 76.466 18.9348 77.2464C18.9348 78.0268 19.5674 78.6594 20.3478 78.6594Z" fill="#E0E0E0"/>
<path d="M30.2391 78.6594C31.0195 78.6594 31.6522 78.0268 31.6522 77.2464C31.6522 76.466 31.0195 75.8333 30.2391 75.8333C29.4587 75.8333 28.8261 76.466 28.8261 77.2464C28.8261 78.0268 29.4587 78.6594 30.2391 78.6594Z" fill="#E0E0E0"/>
<path d="M40.1305 78.6594C40.9109 78.6594 41.5435 78.0268 41.5435 77.2464C41.5435 76.466 40.9109 75.8333 40.1305 75.8333C39.35 75.8333 38.7174 76.466 38.7174 77.2464C38.7174 78.0268 39.35 78.6594 40.1305 78.6594Z" fill="#E0E0E0"/>
<path d="M50.0217 78.6594C50.8021 78.6594 51.4348 78.0268 51.4348 77.2464C51.4348 76.466 50.8021 75.8333 50.0217 75.8333C49.2413 75.8333 48.6087 76.466 48.6087 77.2464C48.6087 78.0268 49.2413 78.6594 50.0217 78.6594Z" fill="#E0E0E0"/>
<path d="M59.913 78.6594C60.6934 78.6594 61.3261 78.0268 61.3261 77.2464C61.3261 76.466 60.6934 75.8333 59.913 75.8333C59.1326 75.8333 58.5 76.466 58.5 77.2464C58.5 78.0268 59.1326 78.6594 59.913 78.6594Z" fill="#E0E0E0"/>
<path d="M69.8043 78.6594C70.5847 78.6594 71.2174 78.0268 71.2174 77.2464C71.2174 76.466 70.5847 75.8333 69.8043 75.8333C69.0239 75.8333 68.3913 76.466 68.3913 77.2464C68.3913 78.0268 69.0239 78.6594 69.8043 78.6594Z" fill="#E0E0E0"/>
<path d="M79.7898 78.6594C80.5702 78.6594 81.2029 78.0268 81.2029 77.2464C81.2029 76.466 80.5702 75.8333 79.7898 75.8333C79.0094 75.8333 78.3768 76.466 78.3768 77.2464C78.3768 78.0268 79.0094 78.6594 79.7898 78.6594Z" fill="#E0E0E0"/>
<path d="M89.6812 78.6594C90.4616 78.6594 91.0942 78.0268 91.0942 77.2464C91.0942 76.466 90.4616 75.8333 89.6812 75.8333C88.9008 75.8333 88.2681 76.466 88.2681 77.2464C88.2681 78.0268 88.9008 78.6594 89.6812 78.6594Z" fill="#E0E0E0"/>
<path d="M99.5725 78.6594C100.353 78.6594 100.986 78.0268 100.986 77.2464C100.986 76.466 100.353 75.8333 99.5725 75.8333C98.7921 75.8333 98.1594 76.466 98.1594 77.2464C98.1594 78.0268 98.7921 78.6594 99.5725 78.6594Z" fill="#E0E0E0"/>
<path d="M20.3478 68.6739C21.1282 68.6739 21.7609 68.0413 21.7609 67.2609C21.7609 66.4805 21.1282 65.8478 20.3478 65.8478C19.5674 65.8478 18.9348 66.4805 18.9348 67.2609C18.9348 68.0413 19.5674 68.6739 20.3478 68.6739Z" fill="#E0E0E0"/>
<path d="M30.2391 68.6739C31.0195 68.6739 31.6522 68.0413 31.6522 67.2609C31.6522 66.4805 31.0195 65.8478 30.2391 65.8478C29.4587 65.8478 28.8261 66.4805 28.8261 67.2609C28.8261 68.0413 29.4587 68.6739 30.2391 68.6739Z" fill="#E0E0E0"/>
<path d="M40.1305 68.6739C40.9109 68.6739 41.5435 68.0413 41.5435 67.2609C41.5435 66.4805 40.9109 65.8478 40.1305 65.8478C39.35 65.8478 38.7174 66.4805 38.7174 67.2609C38.7174 68.0413 39.35 68.6739 40.1305 68.6739Z" fill="#E0E0E0"/>
<path d="M50.0217 68.6739C50.8021 68.6739 51.4348 68.0413 51.4348 67.2609C51.4348 66.4805 50.8021 65.8478 50.0217 65.8478C49.2413 65.8478 48.6087 66.4805 48.6087 67.2609C48.6087 68.0413 49.2413 68.6739 50.0217 68.6739Z" fill="#E0E0E0"/>
<path d="M59.913 68.6739C60.6934 68.6739 61.3261 68.0413 61.3261 67.2609C61.3261 66.4805 60.6934 65.8478 59.913 65.8478C59.1326 65.8478 58.5 66.4805 58.5 67.2609C58.5 68.0413 59.1326 68.6739 59.913 68.6739Z" fill="#E0E0E0"/>
<path d="M69.8043 68.6739C70.5847 68.6739 71.2174 68.0413 71.2174 67.2609C71.2174 66.4805 70.5847 65.8478 69.8043 65.8478C69.0239 65.8478 68.3913 66.4805 68.3913 67.2609C68.3913 68.0413 69.0239 68.6739 69.8043 68.6739Z" fill="#E0E0E0"/>
<path d="M79.7898 68.6739C80.5702 68.6739 81.2029 68.0413 81.2029 67.2609C81.2029 66.4805 80.5702 65.8478 79.7898 65.8478C79.0094 65.8478 78.3768 66.4805 78.3768 67.2609C78.3768 68.0413 79.0094 68.6739 79.7898 68.6739Z" fill="#E0E0E0"/>
<path d="M89.6812 68.6739C90.4616 68.6739 91.0942 68.0413 91.0942 67.2609C91.0942 66.4805 90.4616 65.8478 89.6812 65.8478C88.9008 65.8478 88.2681 66.4805 88.2681 67.2609C88.2681 68.0413 88.9008 68.6739 89.6812 68.6739Z" fill="#E0E0E0"/>
<path d="M99.5725 68.6739C100.353 68.6739 100.986 68.0413 100.986 67.2609C100.986 66.4805 100.353 65.8478 99.5725 65.8478C98.7921 65.8478 98.1594 66.4805 98.1594 67.2609C98.1594 68.0413 98.7921 68.6739 99.5725 68.6739Z" fill="#E0E0E0"/>
<path d="M20.3478 59.1594C21.1282 59.1594 21.7609 58.5268 21.7609 57.7464C21.7609 56.966 21.1282 56.3333 20.3478 56.3333C19.5674 56.3333 18.9348 56.966 18.9348 57.7464C18.9348 58.5268 19.5674 59.1594 20.3478 59.1594Z" fill="#E0E0E0"/>
<path d="M30.2391 59.1594C31.0195 59.1594 31.6522 58.5268 31.6522 57.7464C31.6522 56.966 31.0195 56.3333 30.2391 56.3333C29.4587 56.3333 28.8261 56.966 28.8261 57.7464C28.8261 58.5268 29.4587 59.1594 30.2391 59.1594Z" fill="#E0E0E0"/>
<path d="M40.1305 59.1594C40.9109 59.1594 41.5435 58.5268 41.5435 57.7464C41.5435 56.966 40.9109 56.3333 40.1305 56.3333C39.35 56.3333 38.7174 56.966 38.7174 57.7464C38.7174 58.5268 39.35 59.1594 40.1305 59.1594Z" fill="#E0E0E0"/>
<path d="M50.0217 59.1594C50.8021 59.1594 51.4348 58.5268 51.4348 57.7464C51.4348 56.966 50.8021 56.3333 50.0217 56.3333C49.2413 56.3333 48.6087 56.966 48.6087 57.7464C48.6087 58.5268 49.2413 59.1594 50.0217 59.1594Z" fill="#E0E0E0"/>
<path d="M59.913 59.1594C60.6934 59.1594 61.3261 58.5268 61.3261 57.7464C61.3261 56.966 60.6934 56.3333 59.913 56.3333C59.1326 56.3333 58.5 56.966 58.5 57.7464C58.5 58.5268 59.1326 59.1594 59.913 59.1594Z" fill="#E0E0E0"/>
<path d="M69.8043 59.1594C70.5847 59.1594 71.2174 58.5268 71.2174 57.7464C71.2174 56.966 70.5847 56.3333 69.8043 56.3333C69.0239 56.3333 68.3913 56.966 68.3913 57.7464C68.3913 58.5268 69.0239 59.1594 69.8043 59.1594Z" fill="#E0E0E0"/>
<path d="M79.7898 59.1594C80.5702 59.1594 81.2029 58.5268 81.2029 57.7464C81.2029 56.966 80.5702 56.3333 79.7898 56.3333C79.0094 56.3333 78.3768 56.966 78.3768 57.7464C78.3768 58.5268 79.0094 59.1594 79.7898 59.1594Z" fill="#E0E0E0"/>
<path d="M89.6812 59.1594C90.4616 59.1594 91.0942 58.5268 91.0942 57.7464C91.0942 56.966 90.4616 56.3333 89.6812 56.3333C88.9008 56.3333 88.2681 56.966 88.2681 57.7464C88.2681 58.5268 88.9008 59.1594 89.6812 59.1594Z" fill="#E0E0E0"/>
<path d="M99.5725 59.1594C100.353 59.1594 100.986 58.5268 100.986 57.7464C100.986 56.966 100.353 56.3333 99.5725 56.3333C98.7921 56.3333 98.1594 56.966 98.1594 57.7464C98.1594 58.5268 98.7921 59.1594 99.5725 59.1594Z" fill="#E0E0E0"/>
<path d="M20.3478 49.5507C21.1282 49.5507 21.7609 48.9181 21.7609 48.1377C21.7609 47.3573 21.1282 46.7246 20.3478 46.7246C19.5674 46.7246 18.9348 47.3573 18.9348 48.1377C18.9348 48.9181 19.5674 49.5507 20.3478 49.5507Z" fill="#E0E0E0"/>
<path d="M30.2391 49.5507C31.0195 49.5507 31.6522 48.9181 31.6522 48.1377C31.6522 47.3573 31.0195 46.7246 30.2391 46.7246C29.4587 46.7246 28.8261 47.3573 28.8261 48.1377C28.8261 48.9181 29.4587 49.5507 30.2391 49.5507Z" fill="#E0E0E0"/>
<path d="M40.1305 49.5507C40.9109 49.5507 41.5435 48.9181 41.5435 48.1377C41.5435 47.3573 40.9109 46.7246 40.1305 46.7246C39.35 46.7246 38.7174 47.3573 38.7174 48.1377C38.7174 48.9181 39.35 49.5507 40.1305 49.5507Z" fill="#E0E0E0"/>
<path d="M50.0217 49.5507C50.8021 49.5507 51.4348 48.9181 51.4348 48.1377C51.4348 47.3573 50.8021 46.7246 50.0217 46.7246C49.2413 46.7246 48.6087 47.3573 48.6087 48.1377C48.6087 48.9181 49.2413 49.5507 50.0217 49.5507Z" fill="#E0E0E0"/>
<path d="M59.913 49.5507C60.6934 49.5507 61.3261 48.9181 61.3261 48.1377C61.3261 47.3573 60.6934 46.7246 59.913 46.7246C59.1326 46.7246 58.5 47.3573 58.5 48.1377C58.5 48.9181 59.1326 49.5507 59.913 49.5507Z" fill="#E0E0E0"/>
<path d="M69.8043 49.5507C70.5847 49.5507 71.2174 48.9181 71.2174 48.1377C71.2174 47.3573 70.5847 46.7246 69.8043 46.7246C69.0239 46.7246 68.3913 47.3573 68.3913 48.1377C68.3913 48.9181 69.0239 49.5507 69.8043 49.5507Z" fill="#E0E0E0"/>
<path d="M79.7898 49.5507C80.5702 49.5507 81.2029 48.9181 81.2029 48.1377C81.2029 47.3573 80.5702 46.7246 79.7898 46.7246C79.0094 46.7246 78.3768 47.3573 78.3768 48.1377C78.3768 48.9181 79.0094 49.5507 79.7898 49.5507Z" fill="#E0E0E0"/>
<path d="M89.6812 49.5507C90.4616 49.5507 91.0942 48.9181 91.0942 48.1377C91.0942 47.3573 90.4616 46.7246 89.6812 46.7246C88.9008 46.7246 88.2681 47.3573 88.2681 48.1377C88.2681 48.9181 88.9008 49.5507 89.6812 49.5507Z" fill="#E0E0E0"/>
<path d="M99.5725 49.5507C100.353 49.5507 100.986 48.9181 100.986 48.1377C100.986 47.3573 100.353 46.7246 99.5725 46.7246C98.7921 46.7246 98.1594 47.3573 98.1594 48.1377C98.1594 48.9181 98.7921 49.5507 99.5725 49.5507Z" fill="#E0E0E0"/>
<path d="M20.3478 39.9421C21.1282 39.9421 21.7609 39.3094 21.7609 38.529C21.7609 37.7486 21.1282 37.116 20.3478 37.116C19.5674 37.116 18.9348 37.7486 18.9348 38.529C18.9348 39.3094 19.5674 39.9421 20.3478 39.9421Z" fill="#E0E0E0"/>
<path d="M30.2391 39.9421C31.0195 39.9421 31.6522 39.3094 31.6522 38.529C31.6522 37.7486 31.0195 37.116 30.2391 37.116C29.4587 37.116 28.8261 37.7486 28.8261 38.529C28.8261 39.3094 29.4587 39.9421 30.2391 39.9421Z" fill="#E0E0E0"/>
<path d="M40.1305 39.9421C40.9109 39.9421 41.5435 39.3094 41.5435 38.529C41.5435 37.7486 40.9109 37.116 40.1305 37.116C39.35 37.116 38.7174 37.7486 38.7174 38.529C38.7174 39.3094 39.35 39.9421 40.1305 39.9421Z" fill="#E0E0E0"/>
<path d="M50.0217 39.9421C50.8021 39.9421 51.4348 39.3094 51.4348 38.529C51.4348 37.7486 50.8021 37.116 50.0217 37.116C49.2413 37.116 48.6087 37.7486 48.6087 38.529C48.6087 39.3094 49.2413 39.9421 50.0217 39.9421Z" fill="#E0E0E0"/>
<path d="M59.913 39.9421C60.6934 39.9421 61.3261 39.3094 61.3261 38.529C61.3261 37.7486 60.6934 37.116 59.913 37.116C59.1326 37.116 58.5 37.7486 58.5 38.529C58.5 39.3094 59.1326 39.9421 59.913 39.9421Z" fill="#E0E0E0"/>
<path d="M69.8043 39.9421C70.5847 39.9421 71.2174 39.3094 71.2174 38.529C71.2174 37.7486 70.5847 37.116 69.8043 37.116C69.0239 37.116 68.3913 37.7486 68.3913 38.529C68.3913 39.3094 69.0239 39.9421 69.8043 39.9421Z" fill="#E0E0E0"/>
<path d="M79.7898 39.9421C80.5702 39.9421 81.2029 39.3094 81.2029 38.529C81.2029 37.7486 80.5702 37.116 79.7898 37.116C79.0094 37.116 78.3768 37.7486 78.3768 38.529C78.3768 39.3094 79.0094 39.9421 79.7898 39.9421Z" fill="#E0E0E0"/>
<path d="M89.6812 39.9421C90.4616 39.9421 91.0942 39.3094 91.0942 38.529C91.0942 37.7486 90.4616 37.116 89.6812 37.116C88.9008 37.116 88.2681 37.7486 88.2681 38.529C88.2681 39.3094 88.9008 39.9421 89.6812 39.9421Z" fill="#E0E0E0"/>
<path d="M99.5725 39.9421C100.353 39.9421 100.986 39.3094 100.986 38.529C100.986 37.7486 100.353 37.116 99.5725 37.116C98.7921 37.116 98.1594 37.7486 98.1594 38.529C98.1594 39.3094 98.7921 39.9421 99.5725 39.9421Z" fill="#E0E0E0"/>
<path d="M59.913 30.4276C60.6934 30.4276 61.3261 29.7949 61.3261 29.0145C61.3261 28.2341 60.6934 27.6015 59.913 27.6015C59.1326 27.6015 58.5 28.2341 58.5 29.0145C58.5 29.7949 59.1326 30.4276 59.913 30.4276Z" fill="#E0E0E0"/>
<path d="M69.8043 30.4276C70.5847 30.4276 71.2174 29.7949 71.2174 29.0145C71.2174 28.2341 70.5847 27.6015 69.8043 27.6015C69.0239 27.6015 68.3913 28.2341 68.3913 29.0145C68.3913 29.7949 69.0239 30.4276 69.8043 30.4276Z" fill="#E0E0E0"/>
<path d="M79.7898 30.4276C80.5702 30.4276 81.2029 29.7949 81.2029 29.0145C81.2029 28.2341 80.5702 27.6015 79.7898 27.6015C79.0094 27.6015 78.3768 28.2341 78.3768 29.0145C78.3768 29.7949 79.0094 30.4276 79.7898 30.4276Z" fill="#E0E0E0"/>
<path d="M89.6812 30.4276C90.4616 30.4276 91.0942 29.7949 91.0942 29.0145C91.0942 28.2341 90.4616 27.6015 89.6812 27.6015C88.9008 27.6015 88.2681 28.2341 88.2681 29.0145C88.2681 29.7949 88.9008 30.4276 89.6812 30.4276Z" fill="#E0E0E0"/>
<path d="M99.5725 30.4276C100.353 30.4276 100.986 29.7949 100.986 29.0145C100.986 28.2341 100.353 27.6015 99.5725 27.6015C98.7921 27.6015 98.1594 28.2341 98.1594 29.0145C98.1594 29.7949 98.7921 30.4276 99.5725 30.4276Z" fill="#E0E0E0"/>
<path d="M79.7898 20.8189C80.5702 20.8189 81.2029 20.1862 81.2029 19.4058C81.2029 18.6254 80.5702 17.9928 79.7898 17.9928C79.0094 17.9928 78.3768 18.6254 78.3768 19.4058C78.3768 20.1862 79.0094 20.8189 79.7898 20.8189Z" fill="#E0E0E0"/>
<path d="M89.6811 20.8189C90.4615 20.8189 91.0942 20.1862 91.0942 19.4058C91.0942 18.6254 90.4615 17.9928 89.6811 17.9928C88.9007 17.9928 88.2681 18.6254 88.2681 19.4058C88.2681 20.1862 88.9007 20.8189 89.6811 20.8189Z" fill="#E0E0E0"/>
<path d="M99.5725 20.8189C100.353 20.8189 100.986 20.1862 100.986 19.4058C100.986 18.6254 100.353 17.9928 99.5725 17.9928C98.7921 17.9928 98.1594 18.6254 98.1594 19.4058C98.1594 20.1862 98.7921 20.8189 99.5725 20.8189Z" fill="#E0E0E0"/>
<path d="M99.5725 11.3986C100.353 11.3986 100.986 10.7659 100.986 9.98552C100.986 9.20512 100.353 8.57248 99.5725 8.57248C98.7921 8.57248 98.1594 9.20512 98.1594 9.98552C98.1594 10.7659 98.7921 11.3986 99.5725 11.3986Z" fill="#E0E0E0"/>
<path d="M69.9928 18.087L68.5797 18.8406C68.4855 19.029 68.4855 19.2174 68.4855 19.4058C68.4855 20.1594 69.0507 20.8189 69.8985 20.8189C70.7464 20.8189 71.3116 20.2536 71.3116 19.4058C71.2174 18.7464 70.6522 18.087 69.9928 18.087Z" fill="#E0E0E0"/>
<path d="M89.6812 8.57248L88.6449 8.94929C88.3623 9.2319 88.2681 9.51451 88.2681 9.89132C88.2681 10.6449 88.8333 11.3044 89.6812 11.3044C90.4348 11.3044 91.0942 10.7391 91.0942 9.89132C91 9.2319 90.4348 8.66668 89.6812 8.57248Z" fill="#E0E0E0"/>
<path fill-rule="evenodd" clip-rule="evenodd" d="M99.4783 116.058C100.703 116.152 101.928 116.246 103.058 116.529L103.435 114.645C102.21 114.362 100.891 114.268 99.5725 114.174L99.4783 116.058ZM92.2246 116.717L91.8478 114.833C93.1667 114.551 94.3913 114.362 95.7101 114.268L95.8986 116.152C94.6739 116.246 93.4493 116.435 92.2246 116.717ZM109.652 119.261C109.322 119.072 109.016 118.884 108.71 118.696C108.404 118.507 108.098 118.319 107.768 118.13C107.391 117.942 106.92 117.754 106.449 117.565L107.203 115.87C107.674 116.058 108.145 116.246 108.616 116.529C108.789 116.628 108.968 116.727 109.15 116.827C109.664 117.11 110.202 117.406 110.688 117.754L109.652 119.261ZM78.0942 121.71L79.3188 123.123C80.1667 122.37 81.2029 121.616 82.2391 120.957L81.2029 119.355C80.0725 120.109 79.0362 120.862 78.0942 121.71ZM115.21 123.971C114.362 123.029 113.514 122.181 112.572 121.428L113.797 120.014L113.797 120.015C114.739 120.862 115.681 121.71 116.623 122.652L115.21 123.971ZM73.0072 127.645L74.6087 128.587C75.1739 127.645 75.9275 126.609 76.7754 125.761L75.3623 124.536C74.4203 125.478 73.6667 126.514 73.0072 127.645ZM119.638 129.812L119.638 129.811C118.978 128.775 118.319 127.739 117.565 126.797L119.072 125.667C119.826 126.703 120.58 127.739 121.239 128.87L119.638 129.812ZM169 133.297L170.601 134.239C171.261 133.109 171.826 132.072 172.486 130.848L170.79 130C170.225 131.13 169.659 132.261 169 133.297ZM71.971 135.275L70.087 134.993C70.2754 133.674 70.6522 132.449 71.1232 131.225L72.913 131.884C72.5362 132.92 72.2536 134.051 71.971 135.275ZM121.428 132.92C121.993 134.051 122.464 135.181 122.935 136.312L124.725 135.558C124.254 134.428 123.688 133.203 123.123 132.072L121.428 132.92ZM166.457 140.645L164.949 139.514C165.703 138.478 166.362 137.442 167.022 136.406L168.623 137.442C168.432 137.729 168.246 138.01 168.064 138.287C167.528 139.099 167.019 139.872 166.457 140.645ZM69.8043 138.855C69.8043 140.08 69.9927 141.399 70.2754 142.717L72.0652 142.435L72.0652 142.435C71.8768 141.21 71.6884 139.985 71.6884 138.855H69.8043ZM125.101 143.377C124.819 142.152 124.536 141.022 124.159 139.797L125.949 139.232C126.326 140.457 126.609 141.681 126.891 142.906L125.101 143.377ZM160.333 145.355L161.746 146.58C162.153 146.072 162.587 145.564 163.033 145.041C163.415 144.594 163.805 144.137 164.196 143.659L162.688 142.529C161.935 143.471 161.181 144.413 160.333 145.355ZM73.0072 150.065C72.3478 148.935 71.7826 147.71 71.4058 146.58L73.1956 145.92C73.5091 146.861 73.9528 147.736 74.4185 148.654L74.4185 148.654L74.4187 148.654C74.5128 148.84 74.6079 149.027 74.7029 149.217L73.0072 150.065ZM125.761 147.051C125.949 148.275 126.043 149.5 126.138 150.725L128.022 150.63L128.022 150.63C127.928 149.311 127.833 147.993 127.645 146.768L125.761 147.051ZM156.377 152.043L155.058 150.63C156 149.783 156.848 148.935 157.696 147.993L159.014 149.312C158.261 150.254 157.319 151.196 156.377 152.043ZM77.2464 156.141C77.317 156.212 77.3877 156.283 77.4348 156.377L78.8478 155.246L78.471 154.775C77.8116 154.022 77.1522 153.174 76.587 152.326L75.0797 153.362L77.058 155.906C77.1051 156 77.1757 156.071 77.2464 156.141ZM150.63 156.942L149.5 155.435C149.786 155.206 150.081 154.977 150.379 154.746L150.38 154.745L150.381 154.744L150.381 154.744L150.381 154.744L150.382 154.743C151.065 154.213 151.765 153.669 152.42 153.08L153.645 154.493C152.899 155.171 152.153 155.751 151.442 156.305C151.166 156.52 150.894 156.731 150.63 156.942ZM125.949 158.072L127.833 158.261L127.851 158.014L127.851 158.014C127.939 156.788 128.022 155.635 128.022 154.399H126.138C126.138 155.623 126.043 156.848 125.949 158.072L125.949 158.072ZM144.319 161.275L143.377 159.674L146.485 157.696L147.522 159.297C146.701 159.745 145.822 160.31 144.977 160.854C144.754 160.997 144.535 161.138 144.319 161.275ZM80.794 159.865L80.7941 159.865C81.5006 160.519 82.2205 161.185 82.9927 161.746L84.1232 160.333C83.1812 159.58 82.2391 158.732 81.3913 157.884L80.0725 159.203C80.3102 159.417 80.5479 159.637 80.7872 159.858L80.7887 159.86L80.7903 159.861L80.7918 159.862L80.7933 159.864L80.794 159.865ZM137.536 164.855L136.783 163.159C137.913 162.688 139.043 162.123 140.08 161.464L140.928 163.159C140.237 163.536 139.462 163.913 138.688 164.29C138.3 164.478 137.913 164.667 137.536 164.855ZM124.725 165.326L126.514 165.797C126.797 164.572 127.08 163.348 127.362 162.029L125.478 161.746C125.32 162.776 125.095 163.739 124.859 164.747L124.859 164.747L124.859 164.747L124.859 164.747L124.859 164.747L124.859 164.747C124.815 164.938 124.77 165.131 124.725 165.326ZM89.4928 165.891C88.3623 165.326 87.2319 164.667 86.1956 164.007L87.2319 162.406C88.2681 163.065 89.3043 163.63 90.4348 164.196L89.4928 165.891ZM129.906 165.891L130.471 167.681C131.696 167.21 132.826 166.833 134.051 166.457L133.391 164.667C132.826 164.855 132.238 165.067 131.649 165.279L131.649 165.279C131.06 165.491 130.471 165.703 129.906 165.891ZM96.558 168.717C95.3333 168.341 94.1087 167.87 92.9783 167.399L93.6377 165.609C94.7681 166.08 95.8985 166.457 97.1232 166.833L96.558 168.717ZM122.275 172.297C122.652 171.449 123.029 170.507 123.406 169.565C123.312 169.565 123.217 169.565 123.123 169.659L122.746 167.775L122.747 167.775C123.971 167.493 125.196 167.21 126.326 166.928L126.797 168.717C126.138 168.906 125.478 169.094 124.725 169.188L125.384 169.377C125.079 170.443 124.652 171.448 124.25 172.391C124.155 172.614 124.061 172.834 123.971 173.051L122.275 172.297ZM118.696 178.703L120.297 179.739C121.051 178.703 121.71 177.572 122.275 176.442L120.58 175.5C120.014 176.63 119.355 177.667 118.696 178.703ZM115.681 185.862L114.268 184.638C115.116 183.696 115.87 182.754 116.623 181.812L118.13 182.942C117.377 183.884 116.529 184.92 115.681 185.862ZM109.087 189.819L110.312 191.232C111.254 190.478 112.196 189.536 113.138 188.594L111.819 187.275C110.877 188.217 110.029 189.065 109.087 189.819ZM104.094 195.848L103.152 194.246L103.152 194.246C104.189 193.587 105.225 192.928 106.167 192.174L107.297 193.681C106.261 194.435 105.13 195.188 104.094 195.848ZM96.4638 197.449L97.2174 199.239C98.442 198.768 99.5725 198.297 100.703 197.638L99.8551 195.942C98.726 196.507 97.597 196.977 96.468 197.448L96.4679 197.448L96.4678 197.448L96.4677 197.448L96.4675 197.448L96.4674 197.448L96.4673 197.448L96.4672 197.448L96.4671 197.448L96.467 197.448L96.4669 197.448L96.4667 197.448L96.4666 197.448L96.4665 197.448L96.4664 197.448L96.4663 197.448L96.4662 197.448L96.466 197.448L96.4659 197.448L96.4658 197.448L96.4657 197.449L96.4656 197.449L96.4655 197.449L96.4654 197.449L96.4652 197.449L96.4651 197.449L96.465 197.449L96.4649 197.449L96.4648 197.449L96.4647 197.449L96.4646 197.449L96.4644 197.449L96.4643 197.449L96.4642 197.449L96.4641 197.449L96.464 197.449L96.4639 197.449L96.4638 197.449ZM18.4638 199.804C17.8397 199.756 17.2156 199.733 16.5791 199.709C15.9665 199.686 15.3424 199.662 14.6956 199.616L14.7899 197.732C15.4021 197.779 16.038 197.803 16.6738 197.826C17.3097 197.85 17.9456 197.873 18.558 197.92L18.4638 199.804ZM25.9055 200.275L25.9058 200.275L26 198.391C24.7754 198.391 23.4565 198.297 22.2319 198.203L22.1377 200.087C23.4564 200.087 24.681 200.181 25.9055 200.275ZM33.442 200.841C32.2174 200.746 30.9928 200.652 29.6739 200.558L29.7681 198.674C30.3804 198.721 31.0163 198.768 31.6522 198.815C32.288 198.862 32.9239 198.909 33.5362 198.957L33.442 200.841ZM89.9638 201.594L89.4928 199.71C90.2028 199.546 90.9129 199.351 91.6046 199.16L91.6047 199.16L91.6048 199.16L91.6048 199.16L91.6049 199.16L91.6052 199.16C92.1063 199.022 92.5977 198.887 93.0725 198.768L93.6377 200.558L93.6373 200.558L93.6372 200.558L93.6371 200.558L93.637 200.558L93.6369 200.558L93.6368 200.558L93.6367 200.558L93.6367 200.558L93.6366 200.558L93.6365 200.558L93.6364 200.558L93.6363 200.558L93.6362 200.558L93.6361 200.558L93.636 200.558L93.6359 200.558L93.6358 200.558L93.6357 200.558L93.6356 200.559L93.6356 200.559L93.6355 200.559L93.6354 200.559L93.6353 200.559L93.6352 200.559L93.6351 200.559L93.635 200.559L93.6349 200.559L93.6348 200.559L93.6347 200.559L93.6346 200.559L93.6345 200.559L93.6345 200.559L93.6344 200.559L93.6343 200.559L93.6342 200.559L93.6341 200.559L93.634 200.559L93.6339 200.559L93.6338 200.559L93.6337 200.559L93.6336 200.559L93.6335 200.559C92.4103 200.935 91.187 201.312 89.9638 201.594ZM44.6522 201.783L48.4203 202.159L48.6087 200.275L44.8406 199.899L44.6522 201.783ZM82.2391 201.029L82.4275 202.913C83.7464 202.725 84.971 202.536 86.1956 202.348L85.913 200.464C85.0966 200.652 84.2802 200.757 83.4638 200.862C83.0556 200.914 82.6474 200.966 82.2391 201.029ZM63.4927 203.196C62.8805 203.149 62.2446 203.125 61.6088 203.101C60.9729 203.078 60.337 203.054 59.7246 203.007L59.8188 201.123C61.0435 201.217 62.3623 201.312 63.587 201.312L63.4927 203.196ZM74.7971 203.384C76.1159 203.384 77.4348 203.29 78.5652 203.196L78.471 201.312L78.4707 201.312C77.2462 201.406 76.0216 201.5 74.7029 201.5L74.7971 203.384ZM67.2609 203.384C68.4855 203.478 69.8043 203.478 71.029 203.478L71.1232 201.594C70.5109 201.594 69.875 201.571 69.2391 201.547C68.6033 201.524 67.9674 201.5 67.3551 201.5L67.2609 203.384ZM55.9565 202.725C54.7319 202.63 53.5072 202.536 52.1884 202.442L52.3768 200.558C52.9891 200.605 53.625 200.652 54.2608 200.699L54.2611 200.699C54.8969 200.746 55.5327 200.793 56.1449 200.841L55.9565 202.725ZM37.1159 201.217C38.4348 201.312 39.6594 201.406 40.8841 201.5L41.0725 199.616C40.4601 199.569 39.8243 199.522 39.1884 199.475C38.5525 199.428 37.9167 199.38 37.3043 199.333L37.1159 201.217ZM107.862 170.79C108.993 170.884 110.123 170.884 111.254 170.884H111.63V169H111.159C110.123 169 108.993 169 107.957 168.906L107.862 170.79ZM115.493 170.696L115.304 168.812C116.529 168.717 117.754 168.623 118.978 168.435L119.261 170.319C118.682 170.363 118.102 170.429 117.513 170.496L117.513 170.496L117.513 170.496L117.513 170.496L117.512 170.496L117.512 170.496C116.856 170.57 116.187 170.646 115.493 170.696ZM100.326 169.754C101.551 170.036 102.775 170.225 104.094 170.413L104.377 168.529C103.152 168.341 101.928 168.152 100.703 167.87L100.326 169.754ZM84.5 117.471L85.3478 119.167C86.4783 118.601 87.6087 118.13 88.7391 117.754L88.0797 115.964C86.8551 116.435 85.6304 116.906 84.5 117.471Z" fill="#E0E0E0"/>
<path d="M174.181 127.362L172.485 126.609C172.768 126.043 173.051 125.478 173.239 124.913L174.935 125.667C174.746 126.232 174.464 126.797 174.181 127.362Z" fill="#E0E0E0"/>
<path d="M174.935 91.9421L175.406 112.007C175.406 112.007 175.783 116.435 179.456 114.362L223.826 74.4203L234 55.9565L174.935 91.9421Z" fill="#E0E0E0"/>
<path d="M157.225 77.7174C157.225 77.7174 152.138 79.3189 156.942 82.4276L174.935 91.9421L234 55.9565L157.225 77.7174Z" fill="white"/>
<path d="M212.616 114.739C212.616 114.739 214.5 116.152 215.63 112.949C216.761 109.652 234 55.8623 234 55.8623L191.891 97.6884C191.891 97.6884 190.761 98.6305 192.08 100.891L192.833 102.304L212.616 114.739Z" fill="white"/>
<path d="M26.5652 84.4058C40.8726 84.4058 52.471 72.8074 52.471 58.5C52.471 44.1926 40.8726 32.5942 26.5652 32.5942C12.2578 32.5942 0.659424 44.1926 0.659424 58.5C0.659424 72.8074 12.2578 84.4058 26.5652 84.4058Z" fill="#F8C62C"/>
<path d="M26.6595 55.1087C30.6135 55.1087 33.8189 51.9033 33.8189 47.9493C33.8189 43.9952 30.6135 40.7899 26.6595 40.7899C22.7054 40.7899 19.5 43.9952 19.5 47.9493C19.5 51.9033 22.7054 55.1087 26.6595 55.1087Z" fill="#BC9322"/>
<path d="M39.2826 67.1667C38.4348 59.8189 29.9565 58.4058 29.9565 58.4058H29.8623C27.2247 57.9348 23.6449 58.4058 23.6449 58.4058C23.6449 58.4058 15.1667 59.8189 14.3189 67.1667C13.471 74.5145 20.0652 73.7609 20.3478 73.7609C20.6305 73.7609 23.5507 73.7609 23.5507 73.7609H24.0218H29.3913H29.8623C29.8623 73.7609 32.7826 73.7609 33.0652 73.7609C33.5363 73.7609 40.1305 74.5145 39.2826 67.1667Z" fill="#BC9322"/>
<path d="M26.0942 54.5435C30.0482 54.5435 33.2536 51.3381 33.2536 47.3841C33.2536 43.43 30.0482 40.2246 26.0942 40.2246C22.1402 40.2246 18.9348 43.43 18.9348 47.3841C18.9348 51.3381 22.1402 54.5435 26.0942 54.5435Z" fill="white"/>
<path d="M38.7174 66.5073C37.8696 59.1594 29.3913 57.7464 29.3913 57.7464H29.2971C26.6594 57.2754 23.0797 57.7464 23.0797 57.7464C23.0797 57.7464 14.6014 59.1594 13.7536 66.5073C12.9058 73.8551 19.5 73.1015 19.7826 73.1015C20.0652 73.1015 22.9855 73.1015 22.9855 73.1015H23.4565H28.8261H29.2971C29.2971 73.1015 32.2174 73.1015 32.5 73.1015C32.971 73.1957 39.5652 73.8551 38.7174 66.5073Z" fill="white"/>
<path d="M194.435 175.406C211.76 175.406 225.804 174.183 225.804 172.674C225.804 171.165 211.76 169.942 194.435 169.942C177.11 169.942 163.065 171.165 163.065 172.674C163.065 174.183 177.11 175.406 194.435 175.406Z" fill="#E0E0E0"/>
<rect x="141.587" y="113.986" width="1.60145" height="7.06522" fill="#30374B"/>
<path d="M145.989 116.729V118.331H138.924V116.729L145.989 116.729Z" fill="#30374B"/>
<path fill-rule="evenodd" clip-rule="evenodd" d="M229.29 95.6159C229.29 96.8406 230.232 97.7826 231.457 97.7826C232.681 97.7826 233.623 96.7464 233.623 95.6159C233.623 94.3913 232.681 93.4493 231.457 93.4493C230.232 93.4493 229.29 94.3913 229.29 95.6159ZM230.232 95.5217C230.232 94.8623 230.797 94.2971 231.457 94.2971C232.116 94.2971 232.681 94.8623 232.681 95.5217C232.681 96.1812 232.116 96.7464 231.457 96.7464C230.797 96.7464 230.232 96.1812 230.232 95.5217Z" fill="#F8C62C"/>
</svg>
