<svg width="260" height="260" viewBox="0 0 260 260" fill="none" xmlns="http://www.w3.org/2000/svg">
<path d="M129.517 0.676575C58.0892 0.676575 0.193298 58.5725 0.193298 130C0.193298 165.665 14.5948 197.948 37.9851 221.338C61.3755 244.825 93.7546 259.323 129.517 259.323C177.361 259.323 219.019 233.42 241.442 194.855C252.558 175.814 258.84 153.68 258.84 130C258.84 58.5725 200.944 0.676575 129.517 0.676575Z" fill="#F1F1F5"/>
<path d="M248.112 181.71C229.651 180.164 200.364 179.197 167.502 179.197C111.732 179.197 66.4981 182 66.4981 185.576C66.4981 189.056 111.732 191.955 167.502 191.955C198.238 191.955 225.688 191.085 244.245 189.732C244.825 188.669 245.309 187.606 245.888 186.543C246.565 184.996 247.338 183.353 248.112 181.71Z" fill="#E0DEDE"/>
<path d="M249.465 81.3829C249.561 81.6728 249.755 82.0595 249.851 82.3494C249.755 82.0595 249.561 81.6728 249.465 81.3829Z" fill="#EFEFEF"/>
<path d="M242.409 66.7881C241.732 65.6283 241.056 64.4684 240.379 63.4052C241.152 64.4684 241.829 65.6283 242.409 66.7881Z" fill="white"/>
<path d="M245.405 72.394C246.372 74.3271 247.242 76.2602 248.112 78.1933C247.338 76.2602 246.372 74.3271 245.405 72.394Z" fill="white"/>
<path d="M249.465 81.3829C249.368 81.1896 249.271 80.8996 249.175 80.7063C249.271 80.8996 249.368 81.1896 249.465 81.3829Z" fill="white"/>
<path d="M239.413 61.6654C237.383 58.3792 235.16 55.1896 232.84 52.0966C235.16 55.1896 237.383 58.3792 239.413 61.6654Z" fill="white"/>
<path d="M240.476 63.3085C240.379 63.2119 240.283 63.0186 240.186 62.9219C240.283 63.0186 240.379 63.2119 240.476 63.3085Z" fill="#E0E0E0"/>
<path d="M240.186 62.9219C239.896 62.5353 239.703 62.0521 239.413 61.6654C239.703 62.0521 239.993 62.5353 240.186 62.9219Z" fill="#E0E0E0"/>
<path d="M258.164 116.565C258.164 116.952 258.26 117.338 258.26 117.628C258.164 117.242 258.164 116.855 258.164 116.565Z" fill="#EFEFEF"/>
<path d="M251.688 87.1822C251.591 86.7955 251.398 86.4089 251.301 86.119C251.398 86.4089 251.494 86.7955 251.688 87.1822Z" fill="white"/>
<path d="M255.457 100.134C255.071 98.394 254.587 96.6543 254.104 95.0111C254.587 96.6543 254.974 98.394 255.457 100.134Z" fill="white"/>
<path d="M251.688 87.1822C252.461 89.3086 253.138 91.4349 253.717 93.658C253.041 91.4349 252.364 89.3086 251.688 87.1822Z" fill="white"/>
<path d="M255.844 101.777C256.907 106.61 257.68 111.442 258.164 116.468C257.68 111.539 256.81 106.61 255.844 101.777Z" fill="white"/>
<path d="M255.844 101.777C255.747 101.197 255.554 100.617 255.457 100.134C255.554 100.714 255.651 101.294 255.844 101.777Z" fill="#E0E0E0"/>
<path d="M256.617 153.294C256.52 153.68 256.52 154.067 256.424 154.357C256.424 153.97 256.52 153.68 256.617 153.294Z" fill="#EFEFEF"/>
<path d="M258.55 136.862C258.647 134.446 258.743 131.933 258.743 129.517C258.743 127.68 258.647 125.747 258.647 123.911C258.743 125.747 258.743 127.584 258.743 129.517C258.84 131.933 258.743 134.446 258.55 136.862Z" fill="white"/>
<path d="M256.617 153.294C257.487 148.461 258.164 143.532 258.454 138.602C258.164 143.532 257.487 148.461 256.617 153.294Z" fill="white"/>
<path d="M258.454 138.602C258.454 138.022 258.55 137.442 258.55 136.959C258.55 137.442 258.55 138.022 258.454 138.602Z" fill="#E0E0E0"/>
<path d="M69.0112 17.1078C68.2379 17.1078 67.5613 17.7844 67.5613 18.5576C67.5613 19.3308 68.2379 20.0074 69.0112 20.0074C69.7844 20.0074 70.461 19.3308 70.461 18.5576C70.461 17.7844 69.7844 17.1078 69.0112 17.1078Z" fill="#E0E0E0"/>
<path d="M79.1598 19.9108C79.9331 19.9108 80.6097 19.2342 80.6097 18.461C80.6097 17.6877 79.9331 17.0111 79.1598 17.0111C78.3866 17.0111 77.71 17.6877 77.71 18.461C77.71 19.3308 78.3866 19.9108 79.1598 19.9108Z" fill="#E0E0E0"/>
<path d="M89.3085 19.9108C90.0818 19.9108 90.7584 19.2342 90.7584 18.461C90.7584 17.6877 90.0818 17.0111 89.3085 17.0111C88.5353 17.0111 87.8587 17.6877 87.8587 18.461C87.9554 19.3308 88.5353 19.9108 89.3085 19.9108Z" fill="#E0E0E0"/>
<path d="M49.8736 29.5762C49.6803 29.7695 49.487 29.8662 49.2937 30.0595C49.487 29.9628 49.6803 29.7695 49.8736 29.5762Z" fill="#E0E0E0"/>
<path d="M58.8624 27.2565C58.0892 27.2565 57.4126 27.9331 57.4126 28.7063C57.4126 29.4795 58.0892 30.1561 58.8624 30.1561C59.6357 30.1561 60.3123 29.4795 60.3123 28.7063C60.3123 27.9331 59.6357 27.2565 58.8624 27.2565Z" fill="#E0E0E0"/>
<path d="M69.0112 27.2565C68.2379 27.2565 67.5613 27.9331 67.5613 28.7063C67.5613 29.4795 68.2379 30.1561 69.0112 30.1561C69.7844 30.1561 70.461 29.4795 70.461 28.7063C70.461 27.9331 69.7844 27.2565 69.0112 27.2565Z" fill="#E0E0E0"/>
<path d="M79.1598 30.1561C79.9331 30.1561 80.6097 29.4795 80.6097 28.7063C80.6097 27.9331 79.9331 27.2565 79.1598 27.2565C78.3866 27.2565 77.71 27.9331 77.71 28.7063C77.71 29.4795 78.3866 30.1561 79.1598 30.1561Z" fill="#E0E0E0"/>
<path d="M89.3085 30.1561C90.0818 30.1561 90.7584 29.4795 90.7584 28.7063C90.7584 27.9331 90.0818 27.2565 89.3085 27.2565C88.5353 27.2565 87.8587 27.9331 87.8587 28.7063C87.9554 29.4795 88.5353 30.1561 89.3085 30.1561Z" fill="#E0E0E0"/>
<path d="M48.7137 37.5019C47.9405 37.5019 47.2639 38.1784 47.2639 38.9517C47.2639 39.7249 47.9405 40.4015 48.7137 40.4015C49.487 40.4015 50.1635 39.7249 50.1635 38.9517C50.0669 38.1784 49.487 37.5019 48.7137 37.5019Z" fill="#E0E0E0"/>
<path d="M58.8624 37.5019C58.0892 37.5019 57.4126 38.1784 57.4126 38.9517C57.4126 39.7249 58.0892 40.4015 58.8624 40.4015C59.6357 40.4015 60.3123 39.7249 60.3123 38.9517C60.3123 38.1784 59.6357 37.5019 58.8624 37.5019Z" fill="#E0E0E0"/>
<path d="M69.0112 37.5019C68.2379 37.5019 67.5613 38.1784 67.5613 38.9517C67.5613 39.7249 68.2379 40.4015 69.0112 40.4015C69.7844 40.4015 70.461 39.7249 70.461 38.9517C70.461 38.1784 69.7844 37.5019 69.0112 37.5019Z" fill="#E0E0E0"/>
<path d="M79.1598 40.3048C79.9331 40.3048 80.6097 39.6283 80.6097 38.855C80.6097 38.0818 79.9331 37.4052 79.1598 37.4052C78.3866 37.4052 77.71 38.0818 77.71 38.855C77.71 39.7249 78.3866 40.3048 79.1598 40.3048Z" fill="#E0E0E0"/>
<path d="M89.3085 40.3048C90.0818 40.3048 90.7584 39.6283 90.7584 38.855C90.7584 38.0818 90.0818 37.4052 89.3085 37.4052C88.5353 37.4052 87.8587 38.0818 87.8587 38.855C87.9554 39.7249 88.5353 40.3048 89.3085 40.3048Z" fill="#E0E0E0"/>
<path d="M38.565 47.6505C37.7918 47.6505 37.1152 48.3271 37.1152 49.1004C37.1152 49.8736 37.7918 50.5502 38.565 50.5502C39.3383 50.5502 40.0149 49.8736 40.0149 49.1004C39.9182 48.3271 39.3383 47.6505 38.565 47.6505Z" fill="#E0E0E0"/>
<path d="M48.7137 47.6505C47.9405 47.6505 47.2639 48.3271 47.2639 49.1004C47.2639 49.8736 47.9405 50.5502 48.7137 50.5502C49.487 50.5502 50.1635 49.8736 50.1635 49.1004C50.0669 48.3271 49.487 47.6505 48.7137 47.6505Z" fill="#E0E0E0"/>
<path d="M58.8624 47.6505C58.0892 47.6505 57.4126 48.3271 57.4126 49.1004C57.4126 49.8736 58.0892 50.5502 58.8624 50.5502C59.6357 50.5502 60.3123 49.8736 60.3123 49.1004C60.3123 48.3271 59.6357 47.6505 58.8624 47.6505Z" fill="#E0E0E0"/>
<path d="M69.0112 47.6505C68.2379 47.6505 67.5613 48.3271 67.5613 49.1004C67.5613 49.8736 68.2379 50.5502 69.0112 50.5502C69.7844 50.5502 70.461 49.8736 70.461 49.1004C70.461 48.3271 69.7844 47.6505 69.0112 47.6505Z" fill="#E0E0E0"/>
<path d="M38.565 57.8959C37.7918 57.8959 37.1152 58.5725 37.1152 59.3457C37.1152 60.119 37.7918 60.7955 38.565 60.7955C39.3383 60.7955 40.0149 60.119 40.0149 59.3457C39.9182 58.5725 39.3383 57.8959 38.565 57.8959Z" fill="#E0E0E0"/>
<path d="M48.7137 57.8959C47.9405 57.8959 47.2639 58.5725 47.2639 59.3457C47.2639 60.119 47.9405 60.7955 48.7137 60.7955C49.487 60.7955 50.1635 60.119 50.1635 59.3457C50.0669 58.5725 49.487 57.8959 48.7137 57.8959Z" fill="#E0E0E0"/>
<path d="M58.8624 57.8959C58.0892 57.8959 57.4126 58.5725 57.4126 59.3457C57.4126 60.119 58.0892 60.7955 58.8624 60.7955C59.6357 60.7955 60.3123 60.119 60.3123 59.3457C60.3123 58.5725 59.6357 57.8959 58.8624 57.8959Z" fill="#E0E0E0"/>
<path d="M69.0112 57.8959C68.2379 57.8959 67.5613 58.5725 67.5613 59.3457C67.5613 60.119 68.2379 60.7955 69.0112 60.7955C69.7844 60.7955 70.461 60.119 70.461 59.3457C70.461 58.5725 69.7844 57.8959 69.0112 57.8959Z" fill="#E0E0E0"/>
<path d="M28.3197 68.1413C27.5465 68.1413 26.8699 68.8178 26.8699 69.5911C26.8699 70.3643 27.5465 71.0409 28.3197 71.0409C29.0929 71.0409 29.7695 70.3643 29.7695 69.5911C29.7695 68.8178 29.1896 68.1413 28.3197 68.1413Z" fill="#E0E0E0"/>
<path d="M38.565 68.1413C37.7918 68.1413 37.1152 68.8178 37.1152 69.5911C37.1152 70.3643 37.7918 71.0409 38.565 71.0409C39.3383 71.0409 40.0149 70.3643 40.0149 69.5911C40.0149 68.8178 39.3383 68.1413 38.565 68.1413Z" fill="#E0E0E0"/>
<path d="M48.7137 68.1413C47.9405 68.1413 47.2639 68.8178 47.2639 69.5911C47.2639 70.3643 47.9405 71.0409 48.7137 71.0409C49.487 71.0409 50.1635 70.3643 50.1635 69.5911C50.1635 68.8178 49.487 68.1413 48.7137 68.1413Z" fill="#E0E0E0"/>
<path d="M58.8624 68.1413C58.0892 68.1413 57.4126 68.8178 57.4126 69.5911C57.4126 70.3643 58.0892 71.0409 58.8624 71.0409C59.6357 71.0409 60.3123 70.3643 60.3123 69.5911C60.3123 68.8178 59.6357 68.1413 58.8624 68.1413Z" fill="#E0E0E0"/>
<path d="M69.0112 68.1413C68.2379 68.1413 67.5613 68.8178 67.5613 69.5911C67.5613 70.3643 68.2379 71.0409 69.0112 71.0409C69.7844 71.0409 70.461 70.3643 70.461 69.5911C70.461 68.8178 69.7844 68.1413 69.0112 68.1413Z" fill="#E0E0E0"/>
<path d="M28.3197 78.2899C27.5465 78.2899 26.8699 78.9665 26.8699 79.7398C26.8699 80.513 27.5465 81.1896 28.3197 81.1896C29.0929 81.1896 29.7695 80.513 29.7695 79.7398C29.7695 78.9665 29.1896 78.2899 28.3197 78.2899Z" fill="#E0E0E0"/>
<path d="M38.565 78.2899C37.7918 78.2899 37.1152 78.9665 37.1152 79.7398C37.1152 80.513 37.7918 81.1896 38.565 81.1896C39.3383 81.1896 40.0149 80.513 40.0149 79.7398C40.0149 78.9665 39.3383 78.2899 38.565 78.2899Z" fill="#E0E0E0"/>
<path d="M48.7137 78.2899C47.9405 78.2899 47.2639 78.9665 47.2639 79.7398C47.2639 80.513 47.9405 81.1896 48.7137 81.1896C49.487 81.1896 50.1635 80.513 50.1635 79.7398C50.1635 78.9665 49.487 78.2899 48.7137 78.2899Z" fill="#E0E0E0"/>
<path d="M58.8624 78.2899C58.0892 78.2899 57.4126 78.9665 57.4126 79.7398C57.4126 80.513 58.0892 81.1896 58.8624 81.1896C59.6357 81.1896 60.3123 80.513 60.3123 79.7398C60.3123 78.9665 59.6357 78.2899 58.8624 78.2899Z" fill="#E0E0E0"/>
<path d="M69.0112 78.2899C68.2379 78.2899 67.5613 78.9665 67.5613 79.7398C67.5613 80.513 68.2379 81.1896 69.0112 81.1896C69.7844 81.1896 70.461 80.513 70.461 79.7398C70.461 78.9665 69.7844 78.2899 69.0112 78.2899Z" fill="#E0E0E0"/>
<path d="M8.02229 88.1487C7.24906 88.1487 6.57248 88.8253 6.57248 89.5985C6.57248 90.3717 7.24906 91.0483 8.02229 91.0483C8.79553 91.0483 9.47211 90.3717 9.47211 89.5985C9.47211 88.7286 8.89218 88.1487 8.02229 88.1487Z" fill="#E0E0E0"/>
<path d="M18.2677 88.1487C17.4944 88.1487 16.8178 88.8253 16.8178 89.5985C16.8178 90.3717 17.4944 91.0483 18.2677 91.0483C19.0409 91.0483 19.7175 90.3717 19.7175 89.5985C19.6208 88.7286 19.0409 88.1487 18.2677 88.1487Z" fill="#E0E0E0"/>
<path d="M28.4163 88.1487C27.6431 88.1487 26.9665 88.8253 26.9665 89.5985C26.9665 90.3717 27.6431 91.0483 28.4163 91.0483C29.1896 91.0483 29.8662 90.3717 29.8662 89.5985C29.7695 88.7286 29.1896 88.1487 28.4163 88.1487Z" fill="#E0E0E0"/>
<path d="M38.565 88.1487C37.7918 88.1487 37.1152 88.8253 37.1152 89.5985C37.1152 90.3717 37.7918 91.0483 38.565 91.0483C39.3383 91.0483 40.0149 90.3717 40.0149 89.5985C40.0149 88.7286 39.3383 88.1487 38.565 88.1487Z" fill="#E0E0E0"/>
<path d="M48.7137 88.1487C47.9405 88.1487 47.2639 88.8253 47.2639 89.5985C47.2639 90.3717 47.9405 91.0483 48.7137 91.0483C49.487 91.0483 50.1635 90.3717 50.1635 89.5985C50.1635 88.7286 49.487 88.1487 48.7137 88.1487Z" fill="#E0E0E0"/>
<path d="M58.8624 88.1487C58.0892 88.1487 57.4126 88.8253 57.4126 89.5985C57.4126 90.3717 58.0892 91.0483 58.8624 91.0483C59.6357 91.0483 60.3123 90.3717 60.3123 89.5985C60.3123 88.7286 59.6357 88.1487 58.8624 88.1487Z" fill="#E0E0E0"/>
<path d="M69.0112 88.1487C68.2379 88.1487 67.5613 88.8253 67.5613 89.5985C67.5613 90.3717 68.2379 91.0483 69.0112 91.0483C69.7844 91.0483 70.461 90.3717 70.461 89.5985C70.461 88.7286 69.7844 88.1487 69.0112 88.1487Z" fill="#E0E0E0"/>
<path d="M79.1598 88.1487C78.3866 88.1487 77.71 88.8253 77.71 89.5985C77.71 90.3717 78.3866 91.0483 79.1598 91.0483C79.9331 91.0483 80.6097 90.3717 80.6097 89.5985C80.6097 88.7286 79.9331 88.1487 79.1598 88.1487Z" fill="#E0E0E0"/>
<path d="M8.02229 97.9108C7.24906 97.9108 6.57248 98.5873 6.57248 99.3606C6.57248 100.134 7.24906 100.81 8.02229 100.81C8.79553 100.81 9.47211 100.134 9.47211 99.3606C9.47211 98.5873 8.89218 97.9108 8.02229 97.9108Z" fill="#E0E0E0"/>
<path d="M18.2677 97.9108C17.4944 97.9108 16.8178 98.5873 16.8178 99.3606C16.8178 100.134 17.4944 100.81 18.2677 100.81C19.0409 100.81 19.7175 100.134 19.7175 99.3606C19.7175 98.5873 19.0409 97.9108 18.2677 97.9108Z" fill="#E0E0E0"/>
<path d="M28.4163 97.9108C27.6431 97.9108 26.9665 98.5873 26.9665 99.3606C26.9665 100.134 27.6431 100.81 28.4163 100.81C29.1896 100.81 29.8662 100.134 29.8662 99.3606C29.8662 98.5873 29.1896 97.9108 28.4163 97.9108Z" fill="#E0E0E0"/>
<path d="M38.565 97.9108C37.7918 97.9108 37.1152 98.5873 37.1152 99.3606C37.1152 100.134 37.7918 100.81 38.565 100.81C39.3383 100.81 40.0149 100.134 40.0149 99.3606C40.0149 98.5873 39.3383 97.9108 38.565 97.9108Z" fill="#E0E0E0"/>
<path d="M48.7137 97.9108C47.9405 97.9108 47.2639 98.5873 47.2639 99.3606C47.2639 100.134 47.9405 100.81 48.7137 100.81C49.487 100.81 50.1635 100.134 50.1635 99.3606C50.1635 98.5873 49.487 97.9108 48.7137 97.9108Z" fill="#E0E0E0"/>
<path d="M58.8624 97.9108C58.0892 97.9108 57.4126 98.5873 57.4126 99.3606C57.4126 100.134 58.0892 100.81 58.8624 100.81C59.6357 100.81 60.3123 100.134 60.3123 99.3606C60.3123 98.5873 59.6357 97.9108 58.8624 97.9108Z" fill="#E0E0E0"/>
<path d="M69.0112 97.9108C68.2379 97.9108 67.5613 98.5873 67.5613 99.3606C67.5613 100.134 68.2379 100.81 69.0112 100.81C69.7844 100.81 70.461 100.134 70.461 99.3606C70.461 98.5873 69.7844 97.9108 69.0112 97.9108Z" fill="#E0E0E0"/>
<path d="M79.1598 97.9108C78.3866 97.9108 77.71 98.5873 77.71 99.3606C77.71 100.134 78.3866 100.81 79.1598 100.81C79.9331 100.81 80.6097 100.134 80.6097 99.3606C80.6097 98.5873 79.9331 97.9108 79.1598 97.9108Z" fill="#E0E0E0"/>
<path d="M8.02229 107.77C7.24906 107.77 6.57248 108.446 6.57248 109.219C6.57248 109.993 7.24906 110.669 8.02229 110.669C8.79553 110.669 9.47211 109.993 9.47211 109.219C9.47211 108.446 8.89218 107.77 8.02229 107.77Z" fill="#E0E0E0"/>
<path d="M18.2677 107.77C17.4944 107.77 16.8178 108.446 16.8178 109.219C16.8178 109.993 17.4944 110.669 18.2677 110.669C19.0409 110.669 19.7175 109.993 19.7175 109.219C19.6208 108.446 19.0409 107.77 18.2677 107.77Z" fill="#E0E0E0"/>
<path d="M28.4163 107.77C27.6431 107.77 26.9665 108.446 26.9665 109.219C26.9665 109.993 27.6431 110.669 28.4163 110.669C29.1896 110.669 29.8662 109.993 29.8662 109.219C29.7695 108.446 29.1896 107.77 28.4163 107.77Z" fill="#E0E0E0"/>
<path d="M38.565 107.77C37.7918 107.77 37.1152 108.446 37.1152 109.219C37.1152 109.993 37.7918 110.669 38.565 110.669C39.3383 110.669 40.0149 109.993 40.0149 109.219C40.0149 108.446 39.3383 107.77 38.565 107.77Z" fill="#E0E0E0"/>
<path d="M48.7137 107.77C47.9405 107.77 47.2639 108.446 47.2639 109.219C47.2639 109.993 47.9405 110.669 48.7137 110.669C49.487 110.669 50.1635 109.993 50.1635 109.219C50.1635 108.446 49.487 107.77 48.7137 107.77Z" fill="#E0E0E0"/>
<path d="M58.8624 107.77C58.0892 107.77 57.4126 108.446 57.4126 109.219C57.4126 109.993 58.0892 110.669 58.8624 110.669C59.6357 110.669 60.3123 109.993 60.3123 109.219C60.3123 108.446 59.6357 107.77 58.8624 107.77Z" fill="#E0E0E0"/>
<path d="M69.0112 107.77C68.2379 107.77 67.5613 108.446 67.5613 109.219C67.5613 109.993 68.2379 110.669 69.0112 110.669C69.7844 110.669 70.461 109.993 70.461 109.219C70.461 108.446 69.7844 107.77 69.0112 107.77Z" fill="#E0E0E0"/>
<path d="M79.1598 107.77C78.3866 107.77 77.71 108.446 77.71 109.219C77.71 109.993 78.3866 110.669 79.1598 110.669C79.9331 110.669 80.6097 109.993 80.6097 109.219C80.6097 108.446 79.9331 107.77 79.1598 107.77Z" fill="#E0E0E0"/>
<path d="M8.02229 117.628C7.24906 117.628 6.57248 118.305 6.57248 119.078C6.57248 119.851 7.24906 120.528 8.02229 120.528C8.79553 120.528 9.47211 119.851 9.47211 119.078C9.47211 118.305 8.89218 117.628 8.02229 117.628Z" fill="#E0E0E0"/>
<path d="M18.2677 117.628C17.4944 117.628 16.8178 118.305 16.8178 119.078C16.8178 119.851 17.4944 120.528 18.2677 120.528C19.0409 120.528 19.7175 119.851 19.7175 119.078C19.7175 118.305 19.0409 117.628 18.2677 117.628Z" fill="#E0E0E0"/>
<path d="M28.4163 117.628C27.6431 117.628 26.9665 118.305 26.9665 119.078C26.9665 119.851 27.6431 120.528 28.4163 120.528C29.1896 120.528 29.8662 119.851 29.8662 119.078C29.8662 118.305 29.1896 117.628 28.4163 117.628Z" fill="#E0E0E0"/>
<path d="M38.565 117.628C37.7918 117.628 37.1152 118.305 37.1152 119.078C37.1152 119.851 37.7918 120.528 38.565 120.528C39.3383 120.528 40.0149 119.851 40.0149 119.078C40.0149 118.305 39.3383 117.628 38.565 117.628Z" fill="#E0E0E0"/>
<path d="M48.7137 117.628C47.9405 117.628 47.2639 118.305 47.2639 119.078C47.2639 119.851 47.9405 120.528 48.7137 120.528C49.487 120.528 50.1635 119.851 50.1635 119.078C50.1635 118.305 49.487 117.628 48.7137 117.628Z" fill="#E0E0E0"/>
<path d="M58.8624 117.628C58.0892 117.628 57.4126 118.305 57.4126 119.078C57.4126 119.851 58.0892 120.528 58.8624 120.528C59.6357 120.528 60.3123 119.851 60.3123 119.078C60.3123 118.305 59.6357 117.628 58.8624 117.628Z" fill="#E0E0E0"/>
<path d="M69.0112 117.628C68.2379 117.628 67.5613 118.305 67.5613 119.078C67.5613 119.851 68.2379 120.528 69.0112 120.528C69.7844 120.528 70.461 119.851 70.461 119.078C70.461 118.305 69.7844 117.628 69.0112 117.628Z" fill="#E0E0E0"/>
<path d="M79.1598 117.628C78.3866 117.628 77.71 118.305 77.71 119.078C77.71 119.851 78.3866 120.528 79.1598 120.528C79.9331 120.528 80.6097 119.851 80.6097 119.078C80.6097 118.305 79.9331 117.628 79.1598 117.628Z" fill="#E0E0E0"/>
<path d="M89.3085 120.431C90.0818 120.431 90.7584 119.755 90.7584 118.981C90.7584 118.208 90.0818 117.532 89.3085 117.532C88.5353 117.532 87.8587 118.208 87.8587 118.981C87.8587 119.755 88.5353 120.431 89.3085 120.431Z" fill="#E0E0E0"/>
<path d="M8.02229 127.487C7.24906 127.487 6.57248 128.164 6.57248 128.937C6.57248 129.71 7.24906 130.387 8.02229 130.387C8.79553 130.387 9.47211 129.71 9.47211 128.937C9.47211 128.067 8.89218 127.487 8.02229 127.487Z" fill="#E0E0E0"/>
<path d="M18.2677 127.487C17.4944 127.487 16.8178 128.164 16.8178 128.937C16.8178 129.71 17.4944 130.387 18.2677 130.387C19.0409 130.387 19.7175 129.71 19.7175 128.937C19.6208 128.067 19.0409 127.487 18.2677 127.487Z" fill="#E0E0E0"/>
<path d="M28.4163 127.487C27.6431 127.487 26.9665 128.164 26.9665 128.937C26.9665 129.71 27.6431 130.387 28.4163 130.387C29.1896 130.387 29.8662 129.71 29.8662 128.937C29.7695 128.067 29.1896 127.487 28.4163 127.487Z" fill="#E0E0E0"/>
<path d="M38.565 127.487C37.7918 127.487 37.1152 128.164 37.1152 128.937C37.1152 129.71 37.7918 130.387 38.565 130.387C39.3383 130.387 40.0149 129.71 40.0149 128.937C40.0149 128.067 39.3383 127.487 38.565 127.487Z" fill="#E0E0E0"/>
<path d="M48.7137 127.487C47.9405 127.487 47.2639 128.164 47.2639 128.937C47.2639 129.71 47.9405 130.387 48.7137 130.387C49.487 130.387 50.1635 129.71 50.1635 128.937C50.1635 128.067 49.487 127.487 48.7137 127.487Z" fill="#E0E0E0"/>
<path d="M58.8624 127.487C58.0892 127.487 57.4126 128.164 57.4126 128.937C57.4126 129.71 58.0892 130.387 58.8624 130.387C59.6357 130.387 60.3123 129.71 60.3123 128.937C60.3123 128.067 59.6357 127.487 58.8624 127.487Z" fill="#E0E0E0"/>
<path d="M69.0112 127.487C68.2379 127.487 67.5613 128.164 67.5613 128.937C67.5613 129.71 68.2379 130.387 69.0112 130.387C69.7844 130.387 70.461 129.71 70.461 128.937C70.461 128.067 69.7844 127.487 69.0112 127.487Z" fill="#E0E0E0"/>
<path d="M79.1598 127.487C78.3866 127.487 77.71 128.164 77.71 128.937C77.71 129.71 78.3866 130.387 79.1598 130.387C79.9331 130.387 80.6097 129.71 80.6097 128.937C80.6097 128.067 79.9331 127.487 79.1598 127.487Z" fill="#E0E0E0"/>
<path d="M89.7918 88.1487C89.0186 88.1487 88.342 88.8253 88.342 89.5985C88.342 90.3717 89.0186 91.0483 89.7918 91.0483C90.5651 91.0483 91.2416 90.3717 91.2416 89.5985C91.2416 88.7286 90.5651 88.1487 89.7918 88.1487Z" fill="#E0E0E0"/>
<path d="M89.7918 97.9108C89.0186 97.9108 88.342 98.5873 88.342 99.3606C88.342 100.134 89.0186 100.81 89.7918 100.81C90.5651 100.81 91.2416 100.134 91.2416 99.3606C91.2416 98.5873 90.5651 97.9108 89.7918 97.9108Z" fill="#E0E0E0"/>
<path d="M89.7918 107.77C89.0186 107.77 88.342 108.446 88.342 109.219C88.342 109.993 89.0186 110.669 89.7918 110.669C90.5651 110.669 91.2416 109.993 91.2416 109.219C91.2416 108.446 90.5651 107.77 89.7918 107.77Z" fill="#E0E0E0"/>
<path d="M89.7918 127.487C89.0186 127.487 88.342 128.164 88.342 128.937C88.342 129.71 89.0186 130.387 89.7918 130.387C90.5651 130.387 91.2416 129.71 91.2416 128.937C91.2416 128.067 90.5651 127.487 89.7918 127.487Z" fill="#E0E0E0"/>
<path d="M80.0297 81.3829C77.2267 81.3829 74.8104 79.2565 74.4238 76.5502V76.7435C74.4238 79.8364 76.9368 82.4461 80.1264 82.4461H249.851C249.755 82.1561 249.561 81.7695 249.465 81.4795H80.0297V81.3829Z" fill="#EFEFEF"/>
<path d="M80.1264 42.3346H224.625C224.335 42.0446 224.045 41.658 223.658 41.368H80.0298C76.9368 41.368 74.3271 43.8811 74.3271 47.0706V75.777C74.3271 76.0669 74.3271 76.3569 74.4238 76.6469V48.0372C74.4238 44.8476 77.0335 42.3346 80.1264 42.3346Z" fill="white"/>
<path fill-rule="evenodd" clip-rule="evenodd" d="M80.0297 81.3829H249.465C249.416 81.2864 249.368 81.1658 249.32 81.0452L249.32 81.0446C249.271 80.9238 249.223 80.803 249.175 80.7063C248.885 79.9331 248.498 79.0632 248.111 78.29C247.946 77.9213 247.78 77.5491 247.613 77.1754C246.906 75.5897 246.187 73.9769 245.405 72.4907C244.439 70.5576 243.472 68.7212 242.409 66.8847C241.732 65.7249 241.056 64.565 240.379 63.5018H191.472H107.286C106.803 63.5018 106.416 63.1152 106.416 62.632C106.416 62.1487 106.803 61.7621 107.286 61.7621H239.316C237.286 58.4758 235.063 55.2862 232.743 52.1933C230.134 48.8104 227.427 45.5242 224.528 42.4312H80.1264C77.0334 42.4312 74.4238 44.9442 74.4238 48.1338V76.6468C74.8104 79.2565 77.2267 81.3829 80.0297 81.3829ZM109.606 68.1413C110.379 68.1413 111.056 68.8178 111.056 69.5911C111.056 70.3643 110.379 71.0409 109.606 71.0409C108.833 71.0409 108.156 70.3643 108.156 69.5911C108.156 68.8178 108.833 68.1413 109.606 68.1413ZM111.056 79.7398C111.056 78.9665 110.379 78.29 109.606 78.29C108.833 78.29 108.156 78.9665 108.156 79.7398C108.156 80.513 108.833 81.1896 109.606 81.1896C110.379 81.1896 111.056 80.513 111.056 79.7398ZM109.606 47.6505C110.379 47.6505 111.056 48.3271 111.056 49.1004C111.056 49.8736 110.379 50.5502 109.606 50.5502C108.833 50.5502 108.156 49.8736 108.156 49.1004C108.253 48.3271 108.833 47.6505 109.606 47.6505ZM111.056 59.3457C111.056 58.5725 110.379 57.8959 109.606 57.8959C108.833 57.8959 108.253 58.5725 108.156 59.3457C108.156 60.1189 108.833 60.7955 109.606 60.7955C110.379 60.7955 111.056 60.1189 111.056 59.3457ZM89.3085 81.0929C88.5353 81.0929 87.8587 80.4163 87.8587 79.6431C87.8587 78.8699 88.5353 78.1933 89.3085 78.1933C90.0818 78.1933 90.7583 78.8699 90.7583 79.6431C90.7583 80.4163 90.0818 81.0929 89.3085 81.0929ZM100.907 49.1004C100.907 48.3271 100.23 47.6505 99.4572 47.6505C98.684 47.6505 98.1041 48.3271 98.0074 49.1004C98.0074 49.8736 98.684 50.5502 99.4572 50.5502C100.23 50.5502 100.907 49.8736 100.907 49.1004ZM99.4572 57.8959C100.23 57.8959 100.907 58.5725 100.907 59.3457C100.907 60.1189 100.23 60.7955 99.4572 60.7955C98.684 60.7955 98.0074 60.1189 98.0074 59.3457C98.1041 58.5725 98.684 57.8959 99.4572 57.8959ZM100.907 69.5911C100.907 68.8178 100.23 68.1413 99.4572 68.1413C98.684 68.1413 98.0074 68.8178 98.0074 69.5911C98.0074 70.3643 98.684 71.0409 99.4572 71.0409C100.23 71.0409 100.907 70.3643 100.907 69.5911ZM99.4572 78.29C100.23 78.29 100.907 78.9665 100.907 79.7398C100.907 80.513 100.23 81.1896 99.4572 81.1896C98.684 81.1896 98.0074 80.513 98.0074 79.7398C98.0074 78.9665 98.684 78.29 99.4572 78.29ZM96.9442 57.2193L93.4647 52.9665V57.2193H96.9442ZM89.3085 47.6505C90.0818 47.6505 90.7583 48.3271 90.7583 49.1004C90.7583 49.8736 90.0818 50.5502 89.3085 50.5502C88.5353 50.5502 87.8587 49.8736 87.8587 49.1004C87.9554 48.3271 88.5353 47.6505 89.3085 47.6505ZM84.8624 52.9665C84.5725 52.9665 84.3792 53.1598 84.3792 53.4498V69.3011C84.3792 69.5911 84.5725 69.7844 84.8624 69.7844H88.052C88.1487 70.461 88.7286 70.9442 89.4052 70.9442C90.0818 70.9442 90.6617 70.461 90.7583 69.7844H96.5576C96.8476 69.7844 97.0409 69.5911 97.0409 69.3011V57.8959H93.2714C92.9814 57.8959 92.7881 57.7026 92.7881 57.4126V52.9665H84.8624ZM79.1598 47.6505C79.9331 47.6505 80.6096 48.3271 80.6096 49.1004C80.6096 49.8736 79.9331 50.5502 79.1598 50.5502C78.3866 50.5502 77.71 49.8736 77.71 49.1004C77.71 48.3271 78.3866 47.6505 79.1598 47.6505ZM80.6096 59.3457C80.6096 58.5725 79.9331 57.8959 79.1598 57.8959C78.3866 57.8959 77.71 58.5725 77.71 59.3457C77.71 60.1189 78.3866 60.7955 79.1598 60.7955C79.9331 60.7955 80.6096 60.1189 80.6096 59.3457ZM79.1598 68.1413C79.9331 68.1413 80.6096 68.8178 80.6096 69.5911C80.6096 70.3643 79.9331 71.0409 79.1598 71.0409C78.3866 71.0409 77.71 70.3643 77.71 69.5911C77.71 68.8178 78.3866 68.1413 79.1598 68.1413ZM80.6096 79.7398C80.6096 78.9665 79.9331 78.29 79.1598 78.29C78.3866 78.29 77.71 78.9665 77.71 79.7398C77.71 80.513 78.3866 81.1896 79.1598 81.1896C79.9331 81.1896 80.6096 80.513 80.6096 79.7398Z" fill="white"/>
<path fill-rule="evenodd" clip-rule="evenodd" d="M89.3086 68.1413C89.7918 68.1413 90.2751 68.4312 90.5651 68.8178H95.9777V60.119H90.5651C90.2751 60.5056 89.8885 60.7955 89.4052 60.7955C88.9219 60.7955 88.4387 60.5056 88.2454 60.119H85.4424V68.8178H88.1487C88.342 68.3346 88.8253 68.1413 89.3086 68.1413ZM93.7547 65.9182L92.1115 67.5613C91.8216 67.8513 91.4349 67.8513 91.2416 67.5613L90.7584 67.0781L90.2751 67.5613C90.1784 67.658 89.9851 67.7546 89.7918 67.7546C89.6503 67.7546 89.5606 67.7028 89.4468 67.6372C89.4052 67.6131 89.3604 67.5872 89.3086 67.5613L87.6654 65.9182C87.3755 65.7249 87.3755 65.3383 87.6654 65.0483L89.0186 63.6952C89.1152 63.5985 89.3086 63.5019 89.4052 63.5019C89.5467 63.5019 89.6364 63.5537 89.7502 63.6193C89.7918 63.6434 89.8367 63.6693 89.8885 63.6952L89.9851 63.7918L88.2454 65.5316L89.6952 66.9814L90.1784 66.4981L89.8885 66.2082C89.5985 65.9182 89.5985 65.5316 89.8885 65.3383L89.9851 65.2416L90.0818 65.3383L91.6283 66.8848H91.7249L93.0781 65.5316V65.4349L92.6915 65.0483L93.2714 64.4684L93.7547 64.9517C94.0446 65.2416 94.0446 65.6283 93.7547 65.9182ZM91.6283 63.6952C91.3383 63.8885 91.0483 64.1784 90.7584 64.4684L90.7584 64.4684L90.1784 65.0483L91.4349 66.3048L91.5316 66.2082C91.7249 66.0149 91.7249 65.5316 91.5316 65.3383C91.2416 65.0483 90.9517 64.7584 90.7584 64.4684C90.8228 64.5328 90.8872 64.5865 90.9517 64.6402L90.9517 64.6402C91.0805 64.7476 91.2094 64.855 91.3383 65.0483L92.5948 63.7918L92.4981 63.6952C92.3048 63.5019 91.8216 63.5019 91.6283 63.6952ZM89.8885 63.5985L90.6617 64.3717L91.2416 63.7918L89.9851 62.5353L89.8885 62.632C89.5985 62.9219 89.5985 63.3085 89.8885 63.5985ZM90.5651 64.4684L89.7918 65.2416C89.6952 65.3383 89.5019 65.4349 89.3086 65.4349C89.167 65.4349 89.0773 65.3831 88.9636 65.3175C88.9219 65.2934 88.8771 65.2675 88.8253 65.2416L88.7286 65.145L89.9851 63.8885L90.5651 64.4684ZM91.145 61.3755L90.6617 61.8587L91.2416 62.4387L91.7249 61.9554L93.1747 63.4052L91.4349 65.145L91.5316 65.2416C91.7249 65.5316 92.1115 65.5316 92.4015 65.2416L93.7547 63.8885C94.0446 63.6952 94.0446 63.3085 93.7547 63.0186L92.1115 61.3755C91.8216 61.0855 91.4349 61.0855 91.145 61.3755ZM87.5688 63.0186L89.2119 61.3755C89.4052 61.1822 89.8885 61.1822 90.0818 61.3755L91.4349 62.7286C91.7249 63.0186 91.6283 63.4052 91.4349 63.5985L91.3383 63.6952C91.3383 63.6952 91.3383 63.5985 91.2416 63.5985L89.5985 61.9554H89.5019L88.1487 63.3085H88.052L88.5353 63.7918L87.9554 64.3717L87.4721 63.8885C87.3755 63.7918 87.2788 63.5985 87.2788 63.4052C87.3148 63.3692 87.3374 63.3198 87.3615 63.267C87.4023 63.178 87.4474 63.0793 87.5688 63.0186Z" fill="white"/>
<path d="M79.1598 50.5502C79.9331 50.5502 80.6097 49.8736 80.6097 49.1004C80.6097 48.3271 79.9331 47.6505 79.1598 47.6505C78.3866 47.6505 77.71 48.3271 77.71 49.1004C77.71 49.8736 78.3866 50.5502 79.1598 50.5502Z" fill="white"/>
<path d="M89.3085 50.5502C90.0818 50.5502 90.7584 49.8736 90.7584 49.1004C90.7584 48.3271 90.0818 47.6505 89.3085 47.6505C88.5353 47.6505 87.9554 48.3271 87.9554 49.1004C87.9554 49.8736 88.5353 50.5502 89.3085 50.5502Z" fill="white"/>
<path d="M99.4573 50.5502C100.23 50.5502 100.907 49.8736 100.907 49.1004C100.907 48.3271 100.23 47.6505 99.4573 47.6505C98.684 47.6505 98.0074 48.3271 98.0074 49.1004C98.1041 49.8736 98.684 50.5502 99.4573 50.5502Z" fill="white"/>
<path d="M109.606 50.5502C110.379 50.5502 111.056 49.8736 111.056 49.1004C111.056 48.3271 110.379 47.6505 109.606 47.6505C108.833 47.6505 108.156 48.3271 108.156 49.1004C108.253 49.8736 108.833 50.5502 109.606 50.5502Z" fill="white"/>
<path d="M79.1598 60.6989C79.9331 60.6989 80.6097 60.0223 80.6097 59.2491C80.6097 58.4758 79.9331 57.7993 79.1598 57.7993C78.3866 57.7993 77.71 58.4758 77.71 59.2491C77.71 60.119 78.3866 60.6989 79.1598 60.6989Z" fill="white"/>
<path d="M89.3085 60.6989C89.7918 60.6989 90.2751 60.4089 90.4684 60.0223H88.1487C88.4386 60.5056 88.8253 60.6989 89.3085 60.6989Z" fill="white"/>
<path d="M99.4573 60.6989C100.23 60.6989 100.907 60.0223 100.907 59.2491C100.907 58.4758 100.23 57.7993 99.4573 57.7993C98.684 57.7993 98.0074 58.4758 98.0074 59.2491C98.1041 60.119 98.684 60.6989 99.4573 60.6989Z" fill="white"/>
<path d="M109.606 60.6989C110.379 60.6989 111.056 60.0223 111.056 59.2491C111.056 58.4758 110.379 57.7993 109.606 57.7993C108.833 57.7993 108.156 58.4758 108.156 59.2491C108.253 60.119 108.833 60.6989 109.606 60.6989Z" fill="white"/>
<path d="M79.1598 70.9442C79.9331 70.9442 80.6097 70.2677 80.6097 69.4944C80.6097 68.7212 79.9331 68.0446 79.1598 68.0446C78.3866 68.0446 77.71 68.7212 77.71 69.4944C77.71 70.2677 78.3866 70.9442 79.1598 70.9442Z" fill="white"/>
<path d="M89.3085 70.9442C89.9851 70.9442 90.565 70.4609 90.6617 69.7844H87.9554C88.052 70.4609 88.632 70.9442 89.3085 70.9442Z" fill="white"/>
<path d="M89.3085 68.1413C88.8253 68.1413 88.342 68.4312 88.052 68.8178H90.4684C90.2751 68.3346 89.8885 68.1413 89.3085 68.1413Z" fill="white"/>
<path d="M99.4573 70.9442C100.23 70.9442 100.907 70.2677 100.907 69.4944C100.907 68.7212 100.23 68.0446 99.4573 68.0446C98.684 68.0446 98.0074 68.7212 98.0074 69.4944C98.0074 70.2677 98.684 70.9442 99.4573 70.9442Z" fill="white"/>
<path d="M109.606 70.9442C110.379 70.9442 111.056 70.2677 111.056 69.4944C111.056 68.7212 110.379 68.0446 109.606 68.0446C108.833 68.0446 108.156 68.7212 108.156 69.4944C108.156 70.2677 108.833 70.9442 109.606 70.9442Z" fill="white"/>
<path d="M79.1598 81.0929C79.9331 81.0929 80.6097 80.4163 80.6097 79.6431C80.6097 78.8699 79.9331 78.2899 79.1598 78.2899C78.3866 78.2899 77.71 78.9665 77.71 79.7398C77.71 80.513 78.3866 81.0929 79.1598 81.0929Z" fill="white"/>
<path d="M89.3085 78.2899C88.5353 78.2899 87.8587 78.9665 87.8587 79.7398C87.8587 80.513 88.5353 81.1896 89.3085 81.1896C90.0818 81.1896 90.7584 80.513 90.7584 79.7398C90.7584 78.9665 90.0818 78.2899 89.3085 78.2899Z" fill="white"/>
<path d="M99.4573 81.0929C100.23 81.0929 100.907 80.4163 100.907 79.6431C100.907 78.8699 100.23 78.1933 99.4573 78.1933C98.684 78.1933 98.0074 78.8699 98.0074 79.6431C98.0074 80.4163 98.684 81.0929 99.4573 81.0929Z" fill="white"/>
<path d="M109.606 81.0929C110.379 81.0929 111.056 80.4163 111.056 79.6431C111.056 78.8699 110.379 78.1933 109.606 78.1933C108.833 78.1933 108.156 78.8699 108.156 79.6431C108.156 80.4163 108.833 81.0929 109.606 81.0929Z" fill="white"/>
<path d="M239.413 61.6654H107.383C106.9 61.6654 106.513 62.0521 106.513 62.5353C106.513 62.0521 106.9 61.6654 107.383 61.6654H191.569C192.052 61.6654 192.439 62.0521 192.439 62.5353C192.439 63.0186 192.052 63.4052 191.569 63.4052H240.476C240.379 63.3086 240.283 63.1152 240.186 63.0186C239.993 62.5353 239.703 62.0521 239.413 61.6654Z" fill="#E0E0E0"/>
<path d="M106.513 62.5353C106.513 63.0186 106.9 63.4052 107.383 63.4052H191.569H107.383C106.9 63.3086 106.513 63.0186 106.513 62.5353Z" fill="#30B749"/>
<path d="M192.439 62.5353C192.439 62.0521 192.052 61.6654 191.569 61.6654H107.383C106.9 61.6654 106.513 62.0521 106.513 62.5353C106.513 63.0186 106.9 63.4052 107.383 63.4052H191.569C192.052 63.3086 192.439 63.0186 192.439 62.5353Z" fill="#F8C62C"/>
<path d="M104.483 111.636V111.926C104.483 115.019 106.996 117.628 110.186 117.628H258.26C258.26 117.242 258.164 116.855 258.164 116.565H110.089C107.286 116.565 104.87 114.439 104.483 111.636Z" fill="#EFEFEF"/>
<path d="M110.186 87.1822H251.688C251.591 86.7955 251.398 86.4089 251.301 86.119H110.089C106.996 86.119 104.387 88.632 104.387 91.8216V110.862C104.387 111.152 104.387 111.442 104.483 111.732V92.8848C104.483 89.6952 106.996 87.1822 110.186 87.1822Z" fill="white"/>
<path fill-rule="evenodd" clip-rule="evenodd" d="M132.416 101.777H218.729H255.844C256.907 106.61 257.68 111.442 258.164 116.468H110.089C107.286 116.468 104.87 114.342 104.483 111.636V92.7881C104.483 89.5985 107.093 87.0855 110.186 87.0855H251.591L251.592 87.0887C252.268 89.214 252.945 91.3394 253.621 93.5613C253.669 93.803 253.742 94.0205 253.814 94.2379C253.887 94.4554 253.959 94.6729 254.007 94.9145C254.491 96.5576 254.974 98.2974 255.361 100.037H132.416C131.933 100.037 131.546 100.424 131.546 100.907C131.546 101.39 131.933 101.777 132.416 101.777ZM162.283 93.658H132.996C132.32 93.658 131.74 94.2379 131.74 94.9145C131.74 95.5911 132.32 96.171 132.996 96.171H162.283C162.959 96.171 163.539 95.5911 163.539 94.9145C163.539 94.2379 162.959 93.658 162.283 93.658ZM109.606 110.669C108.833 110.669 108.156 109.993 108.156 109.219C108.156 108.446 108.833 107.77 109.606 107.77C110.379 107.77 111.056 108.446 111.056 109.219C111.056 109.993 110.476 110.669 109.606 110.669ZM108.156 99.3606C108.156 100.134 108.833 100.81 109.606 100.81C110.476 100.81 111.056 100.134 111.056 99.3606C111.056 98.5874 110.379 97.9108 109.606 97.9108C108.833 97.9108 108.156 98.5874 108.156 99.3606ZM109.606 90.9517C108.833 90.9517 108.156 90.2751 108.156 89.5019C108.156 88.7286 108.833 88.0521 109.606 88.0521C110.379 88.0521 111.056 88.7286 111.056 89.5019C111.056 90.2751 110.476 90.9517 109.606 90.9517ZM124.201 109.026C125.554 109.026 126.617 107.963 126.617 106.61H126.714V98.1041H123.234C122.654 98.1041 122.171 97.6208 122.171 97.0409V93.5613H116.372C115.019 93.5613 113.955 94.6245 113.955 95.9777V106.61C113.955 107.963 115.019 109.026 116.372 109.026H124.201ZM123.138 97.0409V93.5613L126.617 97.0409H123.138ZM132.996 108.349H146.141C146.818 108.349 147.398 107.77 147.398 107.093C147.398 106.416 146.818 105.836 146.141 105.836H132.996C132.32 105.836 131.74 106.416 131.74 107.093C131.74 107.77 132.32 108.349 132.996 108.349Z" fill="white"/>
<path d="M109.606 88.1487C108.833 88.1487 108.156 88.8253 108.156 89.5985C108.156 90.3717 108.833 91.0483 109.606 91.0483C110.379 91.0483 111.056 90.3717 111.056 89.5985C111.056 88.7286 110.476 88.1487 109.606 88.1487Z" fill="white"/>
<path d="M109.606 97.9108C108.833 97.9108 108.156 98.5873 108.156 99.3606C108.156 100.134 108.833 100.81 109.606 100.81C110.379 100.81 111.056 100.134 111.056 99.3606C111.056 98.5873 110.476 97.9108 109.606 97.9108Z" fill="white"/>
<path d="M109.606 107.77C108.833 107.77 108.156 108.446 108.156 109.219C108.156 109.993 108.833 110.669 109.606 110.669C110.379 110.669 111.056 109.993 111.056 109.219C111.056 108.446 110.476 107.77 109.606 107.77Z" fill="white"/>
<path d="M122.074 97.0409V93.5613H116.275C114.922 93.5613 113.859 94.6245 113.859 95.9777V106.61C113.859 107.963 114.922 109.026 116.275 109.026H124.104C125.457 109.026 126.52 107.963 126.52 106.61V98.0074H123.041C122.558 98.0074 122.074 97.6208 122.074 97.0409Z" fill="#EDEDED"/>
<path d="M132.416 100.134C131.933 100.134 131.546 100.52 131.546 101.004C131.643 100.52 132.03 100.134 132.416 100.134H218.632C219.115 100.134 219.502 100.52 219.502 101.004C219.502 101.487 219.115 101.874 218.632 101.874H255.747C255.651 101.294 255.457 100.714 255.361 100.23H132.416V100.134Z" fill="#E0E0E0"/>
<path d="M131.643 101.004C131.643 101.487 132.03 101.874 132.513 101.874H218.729H132.416C132.03 101.777 131.643 101.39 131.643 101.004Z" fill="#30B749"/>
<path d="M219.502 101.004C219.502 100.52 219.115 100.134 218.632 100.134H132.416C131.933 100.134 131.546 100.52 131.546 101.004C131.546 101.487 131.933 101.874 132.416 101.874H218.632C219.212 101.777 219.502 101.39 219.502 101.004Z" fill="#F8C62C"/>
<path d="M132.996 96.0744H162.283C162.959 96.0744 163.539 95.4944 163.539 94.8178C163.539 94.1413 162.959 93.5613 162.283 93.5613H132.996C132.32 93.5613 131.74 94.1413 131.74 94.8178C131.74 95.5911 132.32 96.0744 132.996 96.0744Z" fill="#EDEDED"/>
<path d="M146.141 105.836H132.996C132.32 105.836 131.74 106.416 131.74 107.093C131.74 107.77 132.32 108.349 132.996 108.349H146.141C146.818 108.349 147.398 107.77 147.398 107.093C147.398 106.416 146.818 105.836 146.141 105.836Z" fill="#EDEDED"/>
<path d="M123.138 97.0409H126.617L123.138 93.4647V97.0409Z" fill="#EDEDED"/>
<path d="M104.483 148.461V148.751C104.483 151.844 106.996 154.454 110.186 154.454H256.424C256.52 154.067 256.52 153.68 256.617 153.39H110.089C107.286 153.294 104.87 151.167 104.483 148.461Z" fill="#EFEFEF"/>
<path d="M104.387 128.55V147.591C104.387 147.881 104.387 148.171 104.483 148.461V129.613C104.483 126.52 106.996 123.911 110.186 123.911H258.743C258.743 123.524 258.743 123.138 258.743 122.848H110.089C106.996 122.848 104.387 125.361 104.387 128.55Z" fill="white"/>
<path fill-rule="evenodd" clip-rule="evenodd" d="M104.483 148.461V129.613C104.483 126.52 106.996 123.911 110.186 123.911H258.647C258.647 124.828 258.671 125.77 258.695 126.712L258.695 126.714L258.695 126.716C258.719 127.657 258.743 128.599 258.743 129.517C258.743 131.933 258.647 134.446 258.55 136.862H132.416C131.933 136.862 131.546 137.249 131.546 137.732C131.546 138.216 131.933 138.602 132.416 138.602H218.729H258.454C258.164 143.532 257.487 148.461 256.617 153.294H110.089C107.286 153.294 104.87 151.167 104.483 148.461ZM146.141 142.565H132.996C132.32 142.565 131.74 143.145 131.74 143.822C131.74 144.498 132.32 145.078 132.996 145.078H146.141C146.818 145.078 147.398 144.498 147.398 143.822C147.398 143.145 146.818 142.565 146.141 142.565ZM132.996 130.387H162.283C162.959 130.387 163.539 130.967 163.539 131.643C163.539 132.32 162.959 132.9 162.283 132.9H132.996C132.32 132.9 131.74 132.32 131.74 131.643C131.74 130.967 132.32 130.387 132.996 130.387ZM126.617 133.77L123.138 130.29V133.77H126.617ZM113.859 132.706C113.859 131.353 114.922 130.29 116.275 130.29H122.074V133.77C122.074 134.349 122.558 134.833 123.138 134.833H126.617V143.435C126.617 144.788 125.554 145.851 124.201 145.851H116.372C115.019 145.851 113.955 144.788 113.955 143.435V132.706H113.859ZM109.606 130.29C110.379 130.29 111.056 129.613 111.056 128.84C111.056 128.067 110.476 127.487 109.606 127.39C108.833 127.39 108.156 128.067 108.156 128.84C108.156 129.613 108.833 130.29 109.606 130.29Z" fill="white"/>
<path d="M108.253 128.84C108.253 129.613 108.929 130.29 109.703 130.29C110.476 130.29 111.152 129.613 111.152 128.84C111.152 128.067 110.476 127.39 109.703 127.39C108.833 127.487 108.253 128.067 108.253 128.84Z" fill="white"/>
<path d="M116.275 145.851H124.104C125.457 145.851 126.52 144.788 126.52 143.435V134.833H123.041C122.461 134.833 121.978 134.349 121.978 133.77V130.29H116.178C114.825 130.29 113.762 131.353 113.762 132.706V143.338C113.859 144.691 115.019 145.851 116.275 145.851Z" fill="#EDEDED"/>
<path d="M132.416 136.862C131.933 136.862 131.546 137.249 131.546 137.732C131.643 137.249 132.03 136.862 132.416 136.862H218.632C219.115 136.862 219.502 137.249 219.502 137.732C219.502 138.216 219.115 138.602 218.632 138.602H258.357C258.357 138.022 258.454 137.442 258.454 136.959H132.416V136.862Z" fill="#E0E0E0"/>
<path d="M131.643 137.732C131.643 138.216 132.03 138.602 132.513 138.602H218.729H132.416C132.03 138.602 131.643 138.216 131.643 137.732Z" fill="#30B749"/>
<path d="M219.502 137.732C219.502 137.249 219.115 136.862 218.632 136.862H132.416C131.933 136.862 131.546 137.249 131.546 137.732C131.546 138.216 131.933 138.602 132.416 138.602H218.632C219.212 138.602 219.502 138.216 219.502 137.732Z" fill="#F8C62C"/>
<path d="M132.996 132.9H162.283C162.959 132.9 163.539 132.32 163.539 131.643C163.539 130.967 162.959 130.387 162.283 130.387H132.996C132.32 130.387 131.74 130.967 131.74 131.643C131.74 132.32 132.32 132.9 132.996 132.9Z" fill="#EDEDED"/>
<path d="M132.996 145.078H146.141C146.818 145.078 147.398 144.498 147.398 143.822C147.398 143.145 146.818 142.565 146.141 142.565H132.996C132.32 142.565 131.74 143.145 131.74 143.822C131.74 144.498 132.32 145.078 132.996 145.078Z" fill="#EDEDED"/>
<path d="M123.138 130.29V133.77H126.617L123.138 130.29Z" fill="#EDEDED"/>
<path d="M91.6283 61.9554C92.1115 62.4387 92.5948 62.9219 93.0781 63.4052C92.4981 63.9851 91.9182 64.5651 91.3383 65.145L91.435 65.2416C91.7249 65.5316 92.1115 65.5316 92.3048 65.2416C92.7881 64.7584 93.1747 64.3717 93.658 63.8885C93.948 63.5985 93.948 63.2119 93.658 63.0186C93.1747 62.4387 92.5948 61.9554 92.0149 61.3755C91.7249 61.0855 91.3383 61.0855 91.0483 61.3755C90.855 61.5688 90.6617 61.7621 90.5651 61.8587C90.7584 62.052 90.9517 62.2454 91.145 62.4387C91.3383 62.2454 91.5316 62.1487 91.6283 61.9554Z" fill="#30374B"/>
<path d="M89.6952 67.7546C89.8885 67.7546 89.9851 67.658 90.1784 67.5613C90.3717 67.368 90.565 67.1747 90.6617 67.0781C90.4684 66.8848 90.2751 66.6915 90.0818 66.4981C89.8885 66.6915 89.7918 66.7881 89.5985 66.9814C89.1152 66.4981 88.632 66.0149 88.1487 65.5316C88.7286 64.9517 89.3085 64.3718 89.8885 63.7918L89.7918 63.6952C89.6952 63.5985 89.5018 63.5019 89.3085 63.5019C89.1152 63.5019 89.0186 63.5985 88.9219 63.6952C88.4386 64.1784 88.052 64.5651 87.5688 65.0483C87.2788 65.3383 87.2788 65.7249 87.5688 65.9182C88.1487 66.4981 88.632 66.9814 89.2119 67.5613C89.4052 67.7546 89.5018 67.7546 89.6952 67.7546Z" fill="#30374B"/>
<path d="M88.052 64.4684C88.2453 64.2751 88.4386 64.1784 88.632 63.9851C88.4386 63.7918 88.342 63.6952 88.1487 63.5019C88.1487 63.5019 88.1487 63.5019 88.2453 63.5019C88.7286 63.0186 89.1152 62.632 89.5985 62.1487C89.5985 62.1487 89.5985 62.1487 89.6952 62.1487C90.2751 62.7286 90.7584 63.2119 91.3383 63.7918C91.3383 63.7918 91.3383 63.7918 91.4349 63.8885L91.5316 63.7918C91.8215 63.5019 91.8215 63.1152 91.5316 62.9219C91.0483 62.4387 90.6617 62.0521 90.1784 61.5688C89.9851 61.3755 89.5018 61.3755 89.3085 61.5688C88.7286 62.1487 88.2453 62.632 87.6654 63.2119C87.5688 63.3086 87.4721 63.5019 87.4721 63.5985C87.4721 63.7918 87.5688 63.9851 87.6654 64.0818C87.6654 64.0818 87.8587 64.2751 88.052 64.4684Z" fill="#30374B"/>
<path d="M93.2714 64.4684C93.0781 64.6617 92.8847 64.7583 92.6914 64.9517C92.7881 65.0483 92.9814 65.2416 93.0781 65.3383V65.4349C92.5948 65.9182 92.2082 66.3048 91.7249 66.7881C91.7249 66.7881 91.7249 66.7881 91.6282 66.7881C91.145 66.3048 90.565 65.7249 90.0818 65.2416L89.9851 65.145L89.8885 65.2416C89.5985 65.5316 89.5985 65.9182 89.8885 66.1115C90.3717 66.5948 90.7584 66.9814 91.2416 67.4647C91.5316 67.7546 91.9182 67.7546 92.1115 67.4647C92.6914 66.8847 93.1747 66.4015 93.7546 65.8215C94.0446 65.5316 94.0446 65.145 93.7546 64.9517C93.658 64.855 93.4647 64.6617 93.2714 64.4684Z" fill="#30374B"/>
<path d="M88.9219 65.2416C89.0186 65.3383 89.2119 65.435 89.4052 65.435C89.5985 65.435 89.7918 65.3383 89.8885 65.2416C90.1784 64.9517 90.3717 64.7584 90.6617 64.4684C90.4684 64.2751 90.2751 64.0818 90.0818 63.8885C89.6951 64.2751 89.2119 64.7584 88.8253 65.145C88.8253 65.2416 88.8253 65.2416 88.9219 65.2416Z" fill="#30374B"/>
<path d="M89.8885 62.632C89.5985 62.9219 89.5985 63.3085 89.8885 63.5985C90.1784 63.8885 90.3717 64.0818 90.6617 64.3717C90.6617 64.3717 90.6617 64.4684 90.7584 64.4684C90.9517 64.2751 91.145 64.0818 91.3383 63.8885C90.7584 63.4052 90.3717 63.0186 89.8885 62.632Z" fill="#30374B"/>
<path d="M90.6617 64.5651C90.4684 64.7584 90.2751 64.9517 90.0818 65.145C90.4684 65.5316 90.9517 66.0149 91.3383 66.4015L91.4349 66.3048C91.6283 66.1115 91.6283 65.6283 91.4349 65.435C91.2416 65.0483 90.9517 64.7584 90.6617 64.5651Z" fill="#30374B"/>
<path d="M92.4015 63.5985C92.1115 63.4052 91.7249 63.4052 91.5316 63.5985C91.2416 63.8885 91.0483 64.0818 90.7584 64.3717C90.7584 64.3717 90.7584 64.3717 90.6617 64.3717C90.855 64.565 91.0483 64.7584 91.2416 64.9517C91.6283 64.565 92.1115 64.0818 92.4981 63.6952C92.4981 63.6952 92.4981 63.6952 92.4015 63.5985Z" fill="#30374B"/>
<path d="M93.4647 52.9666V57.2193H96.9442L93.4647 52.9666Z" fill="#30374B"/>
<path d="M84.7658 69.7844H87.9554C87.9554 69.6877 87.9554 69.5911 87.9554 69.4944C87.9554 69.2045 88.052 69.0112 88.1487 68.8179H85.4424V60.119H88.2453C88.052 59.9257 88.052 59.6357 88.052 59.3457C88.052 58.5725 88.7286 57.8959 89.5018 57.8959C90.2751 57.8959 90.9517 58.5725 90.9517 59.3457C90.9517 59.6357 90.855 59.9257 90.7583 60.119H96.171V68.8179H90.7583C90.855 69.0112 90.9517 69.3011 90.9517 69.4944C90.9517 69.5911 90.9517 69.6877 90.9517 69.7844H96.7509C97.0409 69.7844 97.2342 69.5911 97.2342 69.3011V57.8959H93.4647C93.1747 57.8959 92.9814 57.7026 92.9814 57.4126V52.9666H85.0557C84.7658 52.9666 84.5725 53.1599 84.5725 53.4498V69.3011C84.3792 69.5911 84.5725 69.7844 84.7658 69.7844Z" fill="#30374B"/>
<path d="M90.7584 59.3457C90.7584 58.5725 90.0818 57.8959 89.3085 57.8959C88.5353 57.8959 87.8587 58.5725 87.8587 59.3457C87.8587 59.6357 87.9554 59.9256 88.052 60.119H90.3717C90.6617 59.829 90.7584 59.6357 90.7584 59.3457Z" fill="#30374B"/>
<path d="M90.565 68.8178H88.1487C88.052 69.0111 87.9554 69.3011 87.9554 69.4944C87.9554 69.5911 87.9554 69.6877 87.9554 69.7844H90.7584C90.7584 69.6877 90.7584 69.5911 90.7584 69.4944C90.7584 69.2045 90.6617 69.0111 90.565 68.8178Z" fill="#30374B"/>
<path d="M90.4684 7.44237C89.5985 7.73233 88.8253 8.0223 87.9554 8.31226C88.7286 8.0223 89.5985 7.73233 90.4684 7.44237Z" fill="#F1F1F5"/>
<path d="M49.8736 29.5762C49.6803 29.7695 49.487 29.8662 49.2937 30.0595C49.3903 29.8662 49.6803 29.6729 49.8736 29.5762Z" fill="#F1F1F5"/>
<path d="M242.409 66.7881C243.472 68.6245 244.439 70.5576 245.405 72.394C244.535 70.5576 243.472 68.6245 242.409 66.7881Z" fill="#F1F1F5"/>
<path d="M248.112 78.2899C248.498 79.0632 248.788 79.9331 249.175 80.7063C248.885 79.8364 248.498 79.0632 248.112 78.2899Z" fill="#F1F1F5"/>
<path d="M253.717 93.658C253.814 94.1413 254.007 94.5279 254.104 95.0111C254.007 94.5279 253.814 94.1413 253.717 93.658Z" fill="#F1F1F5"/>
<path d="M107.48 68.8178H129.227C129.71 68.8178 130.097 68.2379 130.097 67.5613C130.097 66.8847 129.71 66.3048 129.227 66.3048H107.48C106.996 66.3048 106.61 66.8847 106.61 67.5613C106.513 68.3345 106.996 68.8178 107.48 68.8178Z" fill="#EDEDED"/>
<path d="M108.059 58.0892H143.918C144.788 58.0892 145.465 57.5093 145.465 56.8327C145.465 56.1561 144.788 55.5762 143.918 55.5762H108.059C107.19 55.5762 106.513 56.1561 106.513 56.8327C106.513 57.6059 107.19 58.0892 108.059 58.0892Z" fill="#EDEDED"/>
<path d="M87.9554 8.31227C87.9554 9.08551 88.632 9.76209 89.4052 9.76209C90.1784 9.76209 90.855 9.08551 90.855 8.31227C90.855 8.02231 90.7584 7.73235 90.565 7.44238C89.5985 7.73235 88.7286 8.02231 87.9554 8.31227Z" fill="#E0E0E0"/>
<path d="M89.5985 6.95911L88.342 7.34572C88.1487 7.63569 87.9554 7.92565 87.9554 8.31227C88.8253 8.0223 89.5985 7.73234 90.4684 7.44238C90.2751 7.15242 89.8885 6.95911 89.5985 6.95911Z" fill="#E0E0E0"/>
<path d="M32.0892 66.8848C31.026 66.8848 30.1561 67.7547 30.1561 68.8179C30.1561 69.881 31.026 70.7509 32.0892 70.7509C33.1524 70.7509 34.0223 69.881 34.0223 68.8179C34.0223 67.7547 33.1524 66.8848 32.0892 66.8848Z" fill="#E0E0E0"/>
<path d="M33.3457 87.7621C48.0254 87.7621 59.9257 75.8618 59.9257 61.1822C59.9257 46.5025 48.0254 34.6022 33.3457 34.6022C18.666 34.6022 6.76581 46.5025 6.76581 61.1822C6.76581 75.8618 18.666 87.7621 33.3457 87.7621Z" fill="#E0E0E0"/>
<path d="M31.7993 86.6022C46.4789 86.6022 58.3792 74.702 58.3792 60.0223C58.3792 45.3426 46.4789 33.4424 31.7993 33.4424C17.1196 33.4424 5.21933 45.3426 5.21933 60.0223C5.21933 74.702 17.1196 86.6022 31.7993 86.6022Z" fill="#F8C62C"/>
<path d="M42.1412 71.4275H41.368C40.6914 71.4275 40.2082 70.9443 40.2082 70.2677V60.8922C40.2082 60.2156 40.6914 59.7324 41.368 59.7324H42.1412C42.8178 59.7324 43.3011 60.2156 43.3011 60.8922V70.3643C43.3011 70.9443 42.7212 71.4275 42.1412 71.4275Z" fill="#BC9322"/>
<path d="M22.9071 71.4275H22.1338C21.4572 71.4275 20.974 70.9443 20.974 70.2677V60.8922C20.974 60.2156 21.4572 59.7324 22.1338 59.7324H22.9071C23.5836 59.7324 24.0669 60.2156 24.0669 60.8922V70.3643C24.0669 70.9443 23.5836 71.4275 22.9071 71.4275Z" fill="#BC9322"/>
<path d="M21.0706 70.2677V69.4944C21.0706 68.8179 21.5539 68.3346 22.2305 68.3346H42.1412C42.8178 68.3346 43.3011 68.8179 43.3011 69.4944V70.2677C43.3011 70.9443 42.8178 71.4275 42.1412 71.4275H22.1338C21.5539 71.4275 21.0706 70.9443 21.0706 70.2677Z" fill="#BC9322"/>
<path d="M31.7993 49.0038H32.5725C33.2491 49.0038 33.7323 49.487 33.7323 50.1636V65.7249C33.7323 66.4015 33.2491 66.8848 32.5725 66.8848H31.7993C31.1227 66.8848 30.6394 66.4015 30.6394 65.7249V50.1636C30.6394 49.5837 31.1227 49.0038 31.7993 49.0038Z" fill="#BC9322"/>
<path d="M32.9591 49.197L33.539 49.777C34.0223 50.2602 34.0223 50.9368 33.539 51.4201L28.803 56.1562C28.3197 56.6394 27.6431 56.6394 27.1598 56.1562L26.5799 55.5762C26.0967 55.093 26.0967 54.4164 26.5799 53.9331L31.316 49.197C31.7993 48.7138 32.4758 48.7138 32.9591 49.197Z" fill="#BC9322"/>
<path d="M30.8327 49.777L31.4126 49.197C31.8959 48.7138 32.5725 48.7138 33.0557 49.197L37.7918 53.9331C38.2751 54.4164 38.2751 55.093 37.7918 55.5762L37.2119 56.1562C36.7286 56.6394 36.052 56.6394 35.5688 56.1562L30.8327 51.4201C30.3494 50.9368 30.3494 50.1636 30.8327 49.777Z" fill="#BC9322"/>
<path d="M41.368 70.751H40.5948C39.9182 70.751 39.4349 70.2677 39.4349 69.5911V60.119C39.4349 59.4424 39.9182 58.9591 40.5948 58.9591H41.368C42.0446 58.9591 42.5279 59.4424 42.5279 60.119V69.5911C42.5279 70.2677 42.0446 70.751 41.368 70.751Z" fill="white"/>
<path d="M22.2305 70.751H21.4572C20.7807 70.751 20.2974 70.2677 20.2974 69.5911V60.119C20.2974 59.4424 20.7807 58.9591 21.4572 58.9591H22.2305C22.9071 58.9591 23.3903 59.4424 23.3903 60.119V69.5911C23.3903 70.2677 22.8104 70.751 22.2305 70.751Z" fill="white"/>
<path d="M20.2974 69.6878V68.9145C20.2974 68.2379 20.7807 67.7547 21.4572 67.7547H41.368C42.0446 67.7547 42.5279 68.2379 42.5279 68.9145V69.6878C42.5279 70.3643 42.0446 70.8476 41.368 70.8476H21.4572C20.7807 70.751 20.2974 70.2677 20.2974 69.6878Z" fill="white"/>
<path d="M31.2193 48.4238H31.9925C32.6691 48.4238 33.1524 48.9071 33.1524 49.5836V65.2416C33.1524 65.9182 32.6691 66.4015 31.9925 66.4015H31.2193C30.5427 66.4015 30.0594 65.9182 30.0594 65.2416V49.5836C30.0594 48.9071 30.6394 48.4238 31.2193 48.4238Z" fill="white"/>
<path d="M32.0892 48.7138L32.6691 49.2937C33.1524 49.777 33.1524 50.4535 32.6691 50.9368L27.9331 55.6729C27.4498 56.1561 26.7732 56.1561 26.2899 55.6729L25.71 55.0929C25.2267 54.6097 25.2267 53.9331 25.71 53.4498L30.4461 48.7138C30.8327 48.3271 31.6059 48.3271 32.0892 48.7138Z" fill="white"/>
<path d="M30.6394 49.2937L31.2193 48.7138C31.7026 48.2305 32.3792 48.2305 32.8624 48.7138L37.5985 53.4498C38.0818 53.9331 38.0818 54.6097 37.5985 55.093L37.0186 55.6729C36.5353 56.1562 35.8587 56.1562 35.3754 55.6729L30.6394 50.9368C30.2528 50.4535 30.2528 49.777 30.6394 49.2937Z" fill="white"/>
</svg>
