<svg width="278" height="283" viewBox="0 0 278 283" fill="none" xmlns="http://www.w3.org/2000/svg">
<path d="M120.2 260.7C120.2 257.9 153.2 255.6 193.9 255.6C204.3 255.6 214.2 255.7 223.1 256C237.7 245.2 250 231.4 259.2 215.7C270.6 196 277.2 173.1 277.2 148.7C277.2 74.9 217.4 15.1 143.6 15.1C69.8 15.1 9.99998 74.9 9.99998 148.7C9.99998 185.5 24.9 218.9 49 243.1C73.2 267.3 106.6 282.3 143.5 282.3C166.9 282.3 188.9 276.3 208.1 265.7C203.5 265.8 198.8 265.8 193.9 265.8C153.2 265.8 120.2 263.5 120.2 260.7Z" fill="#F1F1F5"/>
<path d="M193.9 255.6C153.2 255.6 120.2 257.9 120.2 260.7C120.2 263.5 153.2 265.8 193.9 265.8C198.8 265.8 203.5 265.8 208.1 265.7C213.3 262.8 218.3 259.6 223.1 256C214.2 255.8 204.3 255.6 193.9 255.6Z" fill="#E0DEDE"/>
<path d="M233.2 230.1H126C123.9 230.1 122.2 228.4 122.2 226.3V125.2C122.2 123.1 123.9 121.4 126 121.4H157.5L170 133.5H239.8C241.9 133.5 243.6 135.2 243.6 137.3V219.8C243.5 225.5 238.9 230.1 233.2 230.1Z" fill="#E0E0E0"/>
<path d="M241.6 226.8C240.8 228.8 238.9 230.1 236.8 230.1H126.1C123.4 230.1 121.5 227.4 122.5 224.9L148.3 157.2C149.8 153.3 153.5 150.7 157.8 150.7H262.2C266.3 150.7 269.1 154.8 267.7 158.6L241.6 226.8Z" fill="white"/>
<path d="M212.1 106.3L202 116.5L191.9 106.3" fill="#30374B"/>
<path d="M22.9 148.8C23.7284 148.8 24.4 148.128 24.4 147.3C24.4 146.472 23.7284 145.8 22.9 145.8C22.0716 145.8 21.4 146.472 21.4 147.3C21.4 148.128 22.0716 148.8 22.9 148.8Z" fill="#E0E0E0"/>
<path d="M33.5 148.8C34.3284 148.8 35 148.128 35 147.3C35 146.472 34.3284 145.8 33.5 145.8C32.6716 145.8 32 146.472 32 147.3C32 148.128 32.6716 148.8 33.5 148.8Z" fill="#E0E0E0"/>
<path d="M44 148.8C44.8284 148.8 45.5 148.128 45.5 147.3C45.5 146.472 44.8284 145.8 44 145.8C43.1716 145.8 42.5 146.472 42.5 147.3C42.5 148.128 43.1716 148.8 44 148.8Z" fill="#E0E0E0"/>
<path d="M54.5 148.8C55.3284 148.8 56 148.128 56 147.3C56 146.472 55.3284 145.8 54.5 145.8C53.6716 145.8 53 146.472 53 147.3C53 148.128 53.6716 148.8 54.5 148.8Z" fill="#E0E0E0"/>
<path d="M65 148.8C65.8284 148.8 66.5 148.128 66.5 147.3C66.5 146.472 65.8284 145.8 65 145.8C64.1716 145.8 63.5 146.472 63.5 147.3C63.5 148.128 64.1716 148.8 65 148.8Z" fill="#E0E0E0"/>
<path d="M75.5 148.8C76.3284 148.8 77 148.128 77 147.3C77 146.472 76.3284 145.8 75.5 145.8C74.6716 145.8 74 146.472 74 147.3C74 148.128 74.6716 148.8 75.5 148.8Z" fill="#E0E0E0"/>
<path d="M86 148.8C86.8284 148.8 87.5 148.128 87.5 147.3C87.5 146.472 86.8284 145.8 86 145.8C85.1716 145.8 84.5 146.472 84.5 147.3C84.5 148.128 85.1716 148.8 86 148.8Z" fill="#E0E0E0"/>
<path d="M96.5 148.8C97.3284 148.8 98 148.128 98 147.3C98 146.472 97.3284 145.8 96.5 145.8C95.6716 145.8 95 146.472 95 147.3C95 148.128 95.6716 148.8 96.5 148.8Z" fill="#E0E0E0"/>
<path d="M107.1 148.8C107.928 148.8 108.6 148.128 108.6 147.3C108.6 146.472 107.928 145.8 107.1 145.8C106.272 145.8 105.6 146.472 105.6 147.3C105.6 148.128 106.272 148.8 107.1 148.8Z" fill="#E0E0E0"/>
<path d="M22.9 138.6C23.7284 138.6 24.4 137.928 24.4 137.1C24.4 136.272 23.7284 135.6 22.9 135.6C22.0716 135.6 21.4 136.272 21.4 137.1C21.4 137.928 22.0716 138.6 22.9 138.6Z" fill="#E0E0E0"/>
<path d="M33.5 138.6C34.3284 138.6 35 137.928 35 137.1C35 136.272 34.3284 135.6 33.5 135.6C32.6716 135.6 32 136.272 32 137.1C32 137.928 32.6716 138.6 33.5 138.6Z" fill="#E0E0E0"/>
<path d="M44 138.6C44.8284 138.6 45.5 137.928 45.5 137.1C45.5 136.272 44.8284 135.6 44 135.6C43.1716 135.6 42.5 136.272 42.5 137.1C42.5 137.928 43.1716 138.6 44 138.6Z" fill="#E0E0E0"/>
<path d="M54.5 138.6C55.3284 138.6 56 137.928 56 137.1C56 136.272 55.3284 135.6 54.5 135.6C53.6716 135.6 53 136.272 53 137.1C53 137.928 53.6716 138.6 54.5 138.6Z" fill="#E0E0E0"/>
<path d="M65 138.6C65.8284 138.6 66.5 137.928 66.5 137.1C66.5 136.272 65.8284 135.6 65 135.6C64.1716 135.6 63.5 136.272 63.5 137.1C63.5 137.928 64.1716 138.6 65 138.6Z" fill="#E0E0E0"/>
<path d="M75.5 138.6C76.3284 138.6 77 137.928 77 137.1C77 136.272 76.3284 135.6 75.5 135.6C74.6716 135.6 74 136.272 74 137.1C74 137.928 74.6716 138.6 75.5 138.6Z" fill="#E0E0E0"/>
<path d="M86 138.6C86.8284 138.6 87.5 137.928 87.5 137.1C87.5 136.272 86.8284 135.6 86 135.6C85.1716 135.6 84.5 136.272 84.5 137.1C84.5 137.928 85.1716 138.6 86 138.6Z" fill="#E0E0E0"/>
<path d="M96.5 138.6C97.3284 138.6 98 137.928 98 137.1C98 136.272 97.3284 135.6 96.5 135.6C95.6716 135.6 95 136.272 95 137.1C95 137.928 95.6716 138.6 96.5 138.6Z" fill="#E0E0E0"/>
<path d="M107.1 138.6C107.928 138.6 108.6 137.928 108.6 137.1C108.6 136.272 107.928 135.6 107.1 135.6C106.272 135.6 105.6 136.272 105.6 137.1C105.6 137.928 106.272 138.6 107.1 138.6Z" fill="#E0E0E0"/>
<path d="M22.9 128.4C23.7284 128.4 24.4 127.728 24.4 126.9C24.4 126.072 23.7284 125.4 22.9 125.4C22.0716 125.4 21.4 126.072 21.4 126.9C21.4 127.728 22.0716 128.4 22.9 128.4Z" fill="#E0E0E0"/>
<path d="M33.5 128.4C34.3284 128.4 35 127.728 35 126.9C35 126.072 34.3284 125.4 33.5 125.4C32.6716 125.4 32 126.072 32 126.9C32 127.728 32.6716 128.4 33.5 128.4Z" fill="#E0E0E0"/>
<path d="M44 128.4C44.8284 128.4 45.5 127.728 45.5 126.9C45.5 126.072 44.8284 125.4 44 125.4C43.1716 125.4 42.5 126.072 42.5 126.9C42.5 127.728 43.1716 128.4 44 128.4Z" fill="#E0E0E0"/>
<path d="M54.5 128.4C55.3284 128.4 56 127.728 56 126.9C56 126.072 55.3284 125.4 54.5 125.4C53.6716 125.4 53 126.072 53 126.9C53 127.728 53.6716 128.4 54.5 128.4Z" fill="#E0E0E0"/>
<path d="M65 128.4C65.8284 128.4 66.5 127.728 66.5 126.9C66.5 126.072 65.8284 125.4 65 125.4C64.1716 125.4 63.5 126.072 63.5 126.9C63.5 127.728 64.1716 128.4 65 128.4Z" fill="#E0E0E0"/>
<path d="M75.5 128.4C76.3284 128.4 77 127.728 77 126.9C77 126.072 76.3284 125.4 75.5 125.4C74.6716 125.4 74 126.072 74 126.9C74 127.728 74.6716 128.4 75.5 128.4Z" fill="#E0E0E0"/>
<path d="M86 128.4C86.8284 128.4 87.5 127.728 87.5 126.9C87.5 126.072 86.8284 125.4 86 125.4C85.1716 125.4 84.5 126.072 84.5 126.9C84.5 127.728 85.1716 128.4 86 128.4Z" fill="#E0E0E0"/>
<path d="M96.5 128.4C97.3284 128.4 98 127.728 98 126.9C98 126.072 97.3284 125.4 96.5 125.4C95.6716 125.4 95 126.072 95 126.9C95 127.728 95.6716 128.4 96.5 128.4Z" fill="#E0E0E0"/>
<path d="M107.1 128.4C107.928 128.4 108.6 127.728 108.6 126.9C108.6 126.072 107.928 125.4 107.1 125.4C106.272 125.4 105.6 126.072 105.6 126.9C105.6 127.728 106.272 128.4 107.1 128.4Z" fill="#E0E0E0"/>
<path d="M22.9 118.3C23.7284 118.3 24.4 117.628 24.4 116.8C24.4 115.972 23.7284 115.3 22.9 115.3C22.0716 115.3 21.4 115.972 21.4 116.8C21.4 117.628 22.0716 118.3 22.9 118.3Z" fill="#E0E0E0"/>
<path d="M33.5 118.3C34.3284 118.3 35 117.628 35 116.8C35 115.972 34.3284 115.3 33.5 115.3C32.6716 115.3 32 115.972 32 116.8C32 117.628 32.6716 118.3 33.5 118.3Z" fill="#E0E0E0"/>
<path d="M44 118.3C44.8284 118.3 45.5 117.628 45.5 116.8C45.5 115.972 44.8284 115.3 44 115.3C43.1716 115.3 42.5 115.972 42.5 116.8C42.5 117.628 43.1716 118.3 44 118.3Z" fill="#E0E0E0"/>
<path d="M54.5 118.3C55.3284 118.3 56 117.628 56 116.8C56 115.972 55.3284 115.3 54.5 115.3C53.6716 115.3 53 115.972 53 116.8C53 117.628 53.6716 118.3 54.5 118.3Z" fill="#E0E0E0"/>
<path d="M65 118.3C65.8284 118.3 66.5 117.628 66.5 116.8C66.5 115.972 65.8284 115.3 65 115.3C64.1716 115.3 63.5 115.972 63.5 116.8C63.5 117.628 64.1716 118.3 65 118.3Z" fill="#E0E0E0"/>
<path d="M75.5 118.3C76.3284 118.3 77 117.628 77 116.8C77 115.972 76.3284 115.3 75.5 115.3C74.6716 115.3 74 115.972 74 116.8C74 117.628 74.6716 118.3 75.5 118.3Z" fill="#E0E0E0"/>
<path d="M86 118.3C86.8284 118.3 87.5 117.628 87.5 116.8C87.5 115.972 86.8284 115.3 86 115.3C85.1716 115.3 84.5 115.972 84.5 116.8C84.5 117.628 85.1716 118.3 86 118.3Z" fill="#E0E0E0"/>
<path d="M96.5 118.3C97.3284 118.3 98 117.628 98 116.8C98 115.972 97.3284 115.3 96.5 115.3C95.6716 115.3 95 115.972 95 116.8C95 117.628 95.6716 118.3 96.5 118.3Z" fill="#E0E0E0"/>
<path d="M107.1 118.3C107.928 118.3 108.6 117.628 108.6 116.8C108.6 115.972 107.928 115.3 107.1 115.3C106.272 115.3 105.6 115.972 105.6 116.8C105.6 117.628 106.272 118.3 107.1 118.3Z" fill="#E0E0E0"/>
<path d="M22.9 108.1C23.7284 108.1 24.4 107.428 24.4 106.6C24.4 105.772 23.7284 105.1 22.9 105.1C22.0716 105.1 21.4 105.772 21.4 106.6C21.4 107.428 22.0716 108.1 22.9 108.1Z" fill="#E0E0E0"/>
<path d="M33.5 108.1C34.3284 108.1 35 107.428 35 106.6C35 105.772 34.3284 105.1 33.5 105.1C32.6716 105.1 32 105.772 32 106.6C32 107.428 32.6716 108.1 33.5 108.1Z" fill="#E0E0E0"/>
<path d="M44 108.1C44.8284 108.1 45.5 107.428 45.5 106.6C45.5 105.772 44.8284 105.1 44 105.1C43.1716 105.1 42.5 105.772 42.5 106.6C42.5 107.428 43.1716 108.1 44 108.1Z" fill="#E0E0E0"/>
<path d="M54.5 108.1C55.3284 108.1 56 107.428 56 106.6C56 105.772 55.3284 105.1 54.5 105.1C53.6716 105.1 53 105.772 53 106.6C53 107.428 53.6716 108.1 54.5 108.1Z" fill="#E0E0E0"/>
<path d="M65 108.1C65.8284 108.1 66.5 107.428 66.5 106.6C66.5 105.772 65.8284 105.1 65 105.1C64.1716 105.1 63.5 105.772 63.5 106.6C63.5 107.428 64.1716 108.1 65 108.1Z" fill="#E0E0E0"/>
<path d="M75.5 108.1C76.3284 108.1 77 107.428 77 106.6C77 105.772 76.3284 105.1 75.5 105.1C74.6716 105.1 74 105.772 74 106.6C74 107.428 74.6716 108.1 75.5 108.1Z" fill="#E0E0E0"/>
<path d="M86 108.1C86.8284 108.1 87.5 107.428 87.5 106.6C87.5 105.772 86.8284 105.1 86 105.1C85.1716 105.1 84.5 105.772 84.5 106.6C84.5 107.428 85.1716 108.1 86 108.1Z" fill="#E0E0E0"/>
<path d="M96.5 108.1C97.3284 108.1 98 107.428 98 106.6C98 105.772 97.3284 105.1 96.5 105.1C95.6716 105.1 95 105.772 95 106.6C95 107.428 95.6716 108.1 96.5 108.1Z" fill="#E0E0E0"/>
<path d="M107.1 108.1C107.928 108.1 108.6 107.428 108.6 106.6C108.6 105.772 107.928 105.1 107.1 105.1C106.272 105.1 105.6 105.772 105.6 106.6C105.6 107.428 106.272 108.1 107.1 108.1Z" fill="#E0E0E0"/>
<path d="M22.9 98C23.7284 98 24.4 97.3284 24.4 96.5C24.4 95.6716 23.7284 95 22.9 95C22.0716 95 21.4 95.6716 21.4 96.5C21.4 97.3284 22.0716 98 22.9 98Z" fill="#E0E0E0"/>
<path d="M33.5 98C34.3284 98 35 97.3284 35 96.5C35 95.6716 34.3284 95 33.5 95C32.6716 95 32 95.6716 32 96.5C32 97.3284 32.6716 98 33.5 98Z" fill="#E0E0E0"/>
<path d="M44 98C44.8284 98 45.5 97.3284 45.5 96.5C45.5 95.6716 44.8284 95 44 95C43.1716 95 42.5 95.6716 42.5 96.5C42.5 97.3284 43.1716 98 44 98Z" fill="#E0E0E0"/>
<path d="M54.5 98C55.3284 98 56 97.3284 56 96.5C56 95.6716 55.3284 95 54.5 95C53.6716 95 53 95.6716 53 96.5C53 97.3284 53.6716 98 54.5 98Z" fill="#E0E0E0"/>
<path d="M65 98C65.8284 98 66.5 97.3284 66.5 96.5C66.5 95.6716 65.8284 95 65 95C64.1716 95 63.5 95.6716 63.5 96.5C63.5 97.3284 64.1716 98 65 98Z" fill="#E0E0E0"/>
<path d="M75.5 98C76.3284 98 77 97.3284 77 96.5C77 95.6716 76.3284 95 75.5 95C74.6716 95 74 95.6716 74 96.5C74 97.3284 74.6716 98 75.5 98Z" fill="#E0E0E0"/>
<path d="M86 98C86.8284 98 87.5 97.3284 87.5 96.5C87.5 95.6716 86.8284 95 86 95C85.1716 95 84.5 95.6716 84.5 96.5C84.5 97.3284 85.1716 98 86 98Z" fill="#E0E0E0"/>
<path d="M96.5 98C97.3284 98 98 97.3284 98 96.5C98 95.6716 97.3284 95 96.5 95C95.6716 95 95 95.6716 95 96.5C95 97.3284 95.6716 98 96.5 98Z" fill="#E0E0E0"/>
<path d="M107.1 98C107.928 98 108.6 97.3284 108.6 96.5C108.6 95.6716 107.928 95 107.1 95C106.272 95 105.6 95.6716 105.6 96.5C105.6 97.3284 106.272 98 107.1 98Z" fill="#E0E0E0"/>
<path d="M22.9 87.4C23.7284 87.4 24.4 86.7285 24.4 85.9C24.4 85.0716 23.7284 84.4 22.9 84.4C22.0716 84.4 21.4 85.0716 21.4 85.9C21.4 86.7285 22.0716 87.4 22.9 87.4Z" fill="#E0E0E0"/>
<path d="M33.5 87.4C34.3284 87.4 35 86.7285 35 85.9C35 85.0716 34.3284 84.4 33.5 84.4C32.6716 84.4 32 85.0716 32 85.9C32 86.7285 32.6716 87.4 33.5 87.4Z" fill="#E0E0E0"/>
<path d="M44 87.4C44.8284 87.4 45.5 86.7285 45.5 85.9C45.5 85.0716 44.8284 84.4 44 84.4C43.1716 84.4 42.5 85.0716 42.5 85.9C42.5 86.7285 43.1716 87.4 44 87.4Z" fill="#E0E0E0"/>
<path d="M54.5 87.4C55.3284 87.4 56 86.7285 56 85.9C56 85.0716 55.3284 84.4 54.5 84.4C53.6716 84.4 53 85.0716 53 85.9C53 86.7285 53.6716 87.4 54.5 87.4Z" fill="#E0E0E0"/>
<path d="M65 87.4C65.8284 87.4 66.5 86.7285 66.5 85.9C66.5 85.0716 65.8284 84.4 65 84.4C64.1716 84.4 63.5 85.0716 63.5 85.9C63.5 86.7285 64.1716 87.4 65 87.4Z" fill="#E0E0E0"/>
<path d="M75.5 87.4C76.3284 87.4 77 86.7285 77 85.9C77 85.0716 76.3284 84.4 75.5 84.4C74.6716 84.4 74 85.0716 74 85.9C74 86.7285 74.6716 87.4 75.5 87.4Z" fill="#E0E0E0"/>
<path d="M86 87.4C86.8284 87.4 87.5 86.7285 87.5 85.9C87.5 85.0716 86.8284 84.4 86 84.4C85.1716 84.4 84.5 85.0716 84.5 85.9C84.5 86.7285 85.1716 87.4 86 87.4Z" fill="#E0E0E0"/>
<path d="M96.5 87.4C97.3284 87.4 98 86.7285 98 85.9C98 85.0716 97.3284 84.4 96.5 84.4C95.6716 84.4 95 85.0716 95 85.9C95 86.7285 95.6716 87.4 96.5 87.4Z" fill="#E0E0E0"/>
<path d="M107.1 87.4C107.928 87.4 108.6 86.7285 108.6 85.9C108.6 85.0716 107.928 84.4 107.1 84.4C106.272 84.4 105.6 85.0716 105.6 85.9C105.6 86.7285 106.272 87.4 107.1 87.4Z" fill="#E0E0E0"/>
<path d="M22.9 77.2C23.7284 77.2 24.4 76.5284 24.4 75.7C24.4 74.8716 23.7284 74.2 22.9 74.2C22.0716 74.2 21.4 74.8716 21.4 75.7C21.4 76.5284 22.0716 77.2 22.9 77.2Z" fill="#E0E0E0"/>
<path d="M33.5 77.2C34.3284 77.2 35 76.5284 35 75.7C35 74.8716 34.3284 74.2 33.5 74.2C32.6716 74.2 32 74.8716 32 75.7C32 76.5284 32.6716 77.2 33.5 77.2Z" fill="#E0E0E0"/>
<path d="M44 77.2C44.8284 77.2 45.5 76.5284 45.5 75.7C45.5 74.8716 44.8284 74.2 44 74.2C43.1716 74.2 42.5 74.8716 42.5 75.7C42.5 76.5284 43.1716 77.2 44 77.2Z" fill="#E0E0E0"/>
<path d="M54.5 77.2C55.3284 77.2 56 76.5284 56 75.7C56 74.8716 55.3284 74.2 54.5 74.2C53.6716 74.2 53 74.8716 53 75.7C53 76.5284 53.6716 77.2 54.5 77.2Z" fill="#E0E0E0"/>
<path d="M65 77.2C65.8284 77.2 66.5 76.5284 66.5 75.7C66.5 74.8716 65.8284 74.2 65 74.2C64.1716 74.2 63.5 74.8716 63.5 75.7C63.5 76.5284 64.1716 77.2 65 77.2Z" fill="#E0E0E0"/>
<path d="M75.5 77.2C76.3284 77.2 77 76.5284 77 75.7C77 74.8716 76.3284 74.2 75.5 74.2C74.6716 74.2 74 74.8716 74 75.7C74 76.5284 74.6716 77.2 75.5 77.2Z" fill="#E0E0E0"/>
<path d="M86 77.2C86.8284 77.2 87.5 76.5284 87.5 75.7C87.5 74.8716 86.8284 74.2 86 74.2C85.1716 74.2 84.5 74.8716 84.5 75.7C84.5 76.5284 85.1716 77.2 86 77.2Z" fill="#E0E0E0"/>
<path d="M96.5 77.2C97.3284 77.2 98 76.5284 98 75.7C98 74.8716 97.3284 74.2 96.5 74.2C95.6716 74.2 95 74.8716 95 75.7C95 76.5284 95.6716 77.2 96.5 77.2Z" fill="#E0E0E0"/>
<path d="M107.1 77.2C107.928 77.2 108.6 76.5284 108.6 75.7C108.6 74.8716 107.928 74.2 107.1 74.2C106.272 74.2 105.6 74.8716 105.6 75.7C105.6 76.5284 106.272 77.2 107.1 77.2Z" fill="#E0E0E0"/>
<path d="M22.9 67.1C23.7284 67.1 24.4 66.4284 24.4 65.6C24.4 64.7716 23.7284 64.1 22.9 64.1C22.0716 64.1 21.4 64.7716 21.4 65.6C21.4 66.4284 22.0716 67.1 22.9 67.1Z" fill="#E0E0E0"/>
<path d="M33.5 67.1C34.3284 67.1 35 66.4284 35 65.6C35 64.7716 34.3284 64.1 33.5 64.1C32.6716 64.1 32 64.7716 32 65.6C32 66.4284 32.6716 67.1 33.5 67.1Z" fill="#E0E0E0"/>
<path d="M44 67.1C44.8284 67.1 45.5 66.4284 45.5 65.6C45.5 64.7716 44.8284 64.1 44 64.1C43.1716 64.1 42.5 64.7716 42.5 65.6C42.5 66.4284 43.1716 67.1 44 67.1Z" fill="#E0E0E0"/>
<path d="M54.5 67.1C55.3284 67.1 56 66.4284 56 65.6C56 64.7716 55.3284 64.1 54.5 64.1C53.6716 64.1 53 64.7716 53 65.6C53 66.4284 53.6716 67.1 54.5 67.1Z" fill="#E0E0E0"/>
<path d="M65 67.1C65.8284 67.1 66.5 66.4284 66.5 65.6C66.5 64.7716 65.8284 64.1 65 64.1C64.1716 64.1 63.5 64.7716 63.5 65.6C63.5 66.4284 64.1716 67.1 65 67.1Z" fill="#E0E0E0"/>
<path d="M75.5 67.1C76.3284 67.1 77 66.4284 77 65.6C77 64.7716 76.3284 64.1 75.5 64.1C74.6716 64.1 74 64.7716 74 65.6C74 66.4284 74.6716 67.1 75.5 67.1Z" fill="#E0E0E0"/>
<path d="M86 67.1C86.8284 67.1 87.5 66.4284 87.5 65.6C87.5 64.7716 86.8284 64.1 86 64.1C85.1716 64.1 84.5 64.7716 84.5 65.6C84.5 66.4284 85.1716 67.1 86 67.1Z" fill="#E0E0E0"/>
<path d="M96.5 67.1C97.3284 67.1 98 66.4284 98 65.6C98 64.7716 97.3284 64.1 96.5 64.1C95.6716 64.1 95 64.7716 95 65.6C95 66.4284 95.6716 67.1 96.5 67.1Z" fill="#E0E0E0"/>
<path d="M107.1 67.1C107.928 67.1 108.6 66.4284 108.6 65.6C108.6 64.7716 107.928 64.1 107.1 64.1C106.272 64.1 105.6 64.7716 105.6 65.6C105.6 66.4284 106.272 67.1 107.1 67.1Z" fill="#E0E0E0"/>
<path d="M22.9 56.9C23.7284 56.9 24.4 56.2284 24.4 55.4C24.4 54.5716 23.7284 53.9 22.9 53.9C22.0716 53.9 21.4 54.5716 21.4 55.4C21.4 56.2284 22.0716 56.9 22.9 56.9Z" fill="#E0E0E0"/>
<path d="M33.5 56.9C34.3284 56.9 35 56.2284 35 55.4C35 54.5716 34.3284 53.9 33.5 53.9C32.6716 53.9 32 54.5716 32 55.4C32 56.2284 32.6716 56.9 33.5 56.9Z" fill="#E0E0E0"/>
<path d="M44 56.9C44.8284 56.9 45.5 56.2284 45.5 55.4C45.5 54.5716 44.8284 53.9 44 53.9C43.1716 53.9 42.5 54.5716 42.5 55.4C42.5 56.2284 43.1716 56.9 44 56.9Z" fill="#E0E0E0"/>
<path d="M54.5 56.9C55.3284 56.9 56 56.2284 56 55.4C56 54.5716 55.3284 53.9 54.5 53.9C53.6716 53.9 53 54.5716 53 55.4C53 56.2284 53.6716 56.9 54.5 56.9Z" fill="#E0E0E0"/>
<path d="M65 56.9C65.8284 56.9 66.5 56.2284 66.5 55.4C66.5 54.5716 65.8284 53.9 65 53.9C64.1716 53.9 63.5 54.5716 63.5 55.4C63.5 56.2284 64.1716 56.9 65 56.9Z" fill="#E0E0E0"/>
<path d="M75.5 56.9C76.3284 56.9 77 56.2284 77 55.4C77 54.5716 76.3284 53.9 75.5 53.9C74.6716 53.9 74 54.5716 74 55.4C74 56.2284 74.6716 56.9 75.5 56.9Z" fill="#E0E0E0"/>
<path d="M86 56.9C86.8284 56.9 87.5 56.2284 87.5 55.4C87.5 54.5716 86.8284 53.9 86 53.9C85.1716 53.9 84.5 54.5716 84.5 55.4C84.5 56.2284 85.1716 56.9 86 56.9Z" fill="#E0E0E0"/>
<path d="M96.5 56.9C97.3284 56.9 98 56.2284 98 55.4C98 54.5716 97.3284 53.9 96.5 53.9C95.6716 53.9 95 54.5716 95 55.4C95 56.2284 95.6716 56.9 96.5 56.9Z" fill="#E0E0E0"/>
<path d="M107.1 56.9C107.928 56.9 108.6 56.2284 108.6 55.4C108.6 54.5716 107.928 53.9 107.1 53.9C106.272 53.9 105.6 54.5716 105.6 55.4C105.6 56.2284 106.272 56.9 107.1 56.9Z" fill="#E0E0E0"/>
<path d="M65 46.7C65.8284 46.7 66.5 46.0284 66.5 45.2C66.5 44.3716 65.8284 43.7 65 43.7C64.1716 43.7 63.5 44.3716 63.5 45.2C63.5 46.0284 64.1716 46.7 65 46.7Z" fill="#E0E0E0"/>
<path d="M75.5 46.7C76.3284 46.7 77 46.0284 77 45.2C77 44.3716 76.3284 43.7 75.5 43.7C74.6716 43.7 74 44.3716 74 45.2C74 46.0284 74.6716 46.7 75.5 46.7Z" fill="#E0E0E0"/>
<path d="M86 46.7C86.8284 46.7 87.5 46.0284 87.5 45.2C87.5 44.3716 86.8284 43.7 86 43.7C85.1716 43.7 84.5 44.3716 84.5 45.2C84.5 46.0284 85.1716 46.7 86 46.7Z" fill="#E0E0E0"/>
<path d="M96.5 46.7C97.3284 46.7 98 46.0284 98 45.2C98 44.3716 97.3284 43.7 96.5 43.7C95.6716 43.7 95 44.3716 95 45.2C95 46.0284 95.6716 46.7 96.5 46.7Z" fill="#E0E0E0"/>
<path d="M107.1 46.7C107.928 46.7 108.6 46.0284 108.6 45.2C108.6 44.3716 107.928 43.7 107.1 43.7C106.272 43.7 105.6 44.3716 105.6 45.2C105.6 46.0284 106.272 46.7 107.1 46.7Z" fill="#E0E0E0"/>
<path d="M86 36.6C86.8284 36.6 87.5 35.9284 87.5 35.1C87.5 34.2716 86.8284 33.6 86 33.6C85.1716 33.6 84.5 34.2716 84.5 35.1C84.5 35.9284 85.1716 36.6 86 36.6Z" fill="#E0E0E0"/>
<path d="M96.5 36.6C97.3284 36.6 98 35.9284 98 35.1C98 34.2716 97.3284 33.6 96.5 33.6C95.6716 33.6 95 34.2716 95 35.1C95 35.9284 95.6716 36.6 96.5 36.6Z" fill="#E0E0E0"/>
<path d="M107.1 36.6C107.928 36.6 108.6 35.9284 108.6 35.1C108.6 34.2716 107.928 33.6 107.1 33.6C106.272 33.6 105.6 34.2716 105.6 35.1C105.6 35.9284 106.272 36.6 107.1 36.6Z" fill="#E0E0E0"/>
<path d="M107.1 26.5C107.928 26.5 108.6 25.8284 108.6 25C108.6 24.1716 107.928 23.5 107.1 23.5C106.272 23.5 105.6 24.1716 105.6 25C105.6 25.8284 106.272 26.5 107.1 26.5Z" fill="#E0E0E0"/>
<path d="M75.6 33.6L74.1 34.5C74 34.7 74 34.9 74 35.1C74 35.9 74.6 36.6 75.5 36.6C76.4 36.6 77 36 77 35.1C77 34.3 76.4 33.7 75.6 33.6Z" fill="#E0E0E0"/>
<path d="M96.6 23.6L95.5 24C95.2 24.3 95.1 24.6 95.1 25C95.1 25.8 95.7 26.5 96.6 26.5C97.4 26.5 98.1 25.9 98.1 25C98 24.3 97.4 23.6 96.6 23.6Z" fill="#E0E0E0"/>
<rect x="122.2" y="19.3" width="3.8" height="3.8" fill="#E0E0E0"/>
<path fill-rule="evenodd" clip-rule="evenodd" d="M122.2 37.9H126V30.5H122.2V37.9ZM126 52.6H122.2V45.2H126V52.6ZM122.2 60.2C122.2 61.7 122.3 64.7 123.3 67.9L127 66.8C126.1 64.1 126 61.5 126 60.2L124.1 60H122.2V60.2ZM135.1 78.7C132.1 78.2 129.6 77 127.6 75L130.3 72.3C131.8 73.7 133.6 74.6 135.8 75L135.1 78.7ZM193.6 79.9C191.5 79 189.5 78.9 188.7 78.9H188.2H187.1V75.1H188H188.7C190 75.1 192.5 75.3 195.1 76.4L193.6 79.9ZM200 90.1C199.8 87.6 199.2 85.6 198.2 83.9L201.5 81.9C202.8 84.1 203.6 86.7 203.8 89.7L200 90.1ZM157.5 75.2V79H164.9V75.2H157.5ZM150.1 79H142.7V75.2H150.1V79ZM172.3 75.2V79H179.7V75.2H172.3Z" fill="#E0E0E0"/>
<rect x="200.1" y="97.4" width="3.8" height="3.8" fill="#E0E0E0"/>
<rect x="122.2" y="15.7" width="3.8" height="7.4" fill="#E0E0E0"/>
<rect x="122.2" y="0.700012" width="3.8" height="7.4" fill="#E0E0E0"/>
<path d="M29.9 104.8C45.0878 104.8 57.4 92.4879 57.4 77.3C57.4 62.1122 45.0878 49.8 29.9 49.8C14.7122 49.8 2.39999 62.1122 2.39999 77.3C2.39999 92.4879 14.7122 104.8 29.9 104.8Z" fill="#E0E0E0"/>
<path d="M28.3 103.8C43.4878 103.8 55.8 91.4879 55.8 76.3C55.8 61.1122 43.4878 48.8 28.3 48.8C13.1122 48.8 0.799988 61.1122 0.799988 76.3C0.799988 91.4879 13.1122 103.8 28.3 103.8Z" fill="#F8C62C"/>
<path d="M17.2 77.5V75.8C17.2 75.4 17.5 75 18 75H39.5C39.9 75 40.3 75.3 40.3 75.8V77.5C40.3 77.9 40 78.3 39.5 78.3H17.9C17.5 78.2 17.2 77.9 17.2 77.5Z" fill="#BC9322"/>
<path d="M29.5 65.2H27.8C27.4 65.2 27 65.5 27 66V87.5C27 87.9 27.3 88.3 27.8 88.3H29.5C29.9 88.3 30.3 88 30.3 87.5V65.9C30.2 65.5 29.9 65.2 29.5 65.2Z" fill="#BC9322"/>
<path d="M28.8 64.4H27.1C26.7 64.4 26.3 64.7 26.3 65.2V86.7C26.3 87.1 26.6 87.5 27.1 87.5H28.8C29.2 87.5 29.6 87.2 29.6 86.7V65.2C29.6 64.8 29.2 64.4 28.8 64.4Z" fill="white"/>
<path d="M16.4 76.8V75.1C16.4 74.7 16.7 74.3 17.2 74.3H38.7C39.1 74.3 39.5 74.6 39.5 75.1V76.8C39.5 77.2 39.2 77.6 38.7 77.6H17.2C16.8 77.6 16.4 77.2 16.4 76.8Z" fill="white"/>
</svg>
