<?xml version="1.0" encoding="utf-8"?>
<!-- Generator: Adobe Illustrator 22.0.0, SVG Export Plug-In . SVG Version: 6.00 Build 0)  -->
<svg version="1.1" id="Calque_1" xmlns="http://www.w3.org/2000/svg" xmlns:xlink="http://www.w3.org/1999/xlink" x="0px" y="0px"
	 viewBox="0 0 124 39" style="enable-background:new 0 0 124 39;" xml:space="preserve">
<style type="text/css">
	.st0{fill:#68BCAF;}
	.st1{fill:#FAC92B;}
	.st2{fill:#E26025;}
	.st3{fill:#DF5218;}
	.st4{fill:#DA2418;}
	.st5{fill:#755837;}
	.st6{fill:#C8C7CB;}
	.st7{fill:#9E9DA3;}
	.st8{fill:#539C90;}
	.st9{fill:#2F374A;}
</style>
<g>
	<path class="st0" d="M-225.4,308.6h-118.4c-10.1,0-18.4-8.3-18.4-18.4v0c0-10.1,8.3-18.4,18.4-18.4h118.4
		c10.1,0,18.4,8.3,18.4,18.4v0C-207,300.4-215.3,308.6-225.4,308.6z"/>
	<path class="st1" d="M-838.3,308.6h-118.4c-10.1,0-18.4-8.3-18.4-18.4v0c0-10.1,8.3-18.4,18.4-18.4h118.4
		c10.1,0,18.4,8.3,18.4,18.4v0C-819.9,300.4-828.1,308.6-838.3,308.6z"/>
	<path class="st2" d="M-771.2-82.6h-67c-10.1,0-18.4-8.3-18.4-18.4v0c0-10.1,8.3-18.4,18.4-18.4h67c10.1,0,18.4,8.3,18.4,18.4v0
		C-752.8-90.9-761.1-82.6-771.2-82.6z"/>
	<path class="st2" d="M-485.1-231.4h-71c-10.1,0-18.4-8.3-18.4-18.4v0c0-10.1,8.3-18.4,18.4-18.4h71c10.1,0,18.4,8.3,18.4,18.4v0
		C-466.7-239.7-475-231.4-485.1-231.4z"/>
	<path class="st2" d="M-856.6,290.3V-101c0-10.1,8.3-18.4,18.4-18.4h0c10.1,0,18.4,8.3,18.4,18.4v391.3c0,10.1-8.3,18.4-18.4,18.4h0
		C-848.4,308.6-856.6,300.4-856.6,290.3z"/>
	<path class="st2" d="M-503.5,290.3v-540.1c0-10.1,8.3-18.4,18.4-18.4h0c10.1,0,18.4,8.3,18.4,18.4v540.1c0,10.1-8.3,18.4-18.4,18.4
		h0C-495.2,308.6-503.5,300.4-503.5,290.3z"/>
	<path class="st1" d="M-574.7,290.3v-540.1c0-10.1,8.3-18.4,18.4-18.4l0,0c10.1,0,18.4,8.3,18.4,18.4v540.1
		c0,10.1-8.3,18.4-18.4,18.4l0,0C-566.4,308.6-574.7,300.4-574.7,290.3z"/>
	<path class="st0" d="M-789.6,290.3V-101c0-10.1,8.3-18.4,18.4-18.4l0,0c10.1,0,18.4,8.3,18.4,18.4v391.3c0,10.1-8.3,18.4-18.4,18.4
		l0,0C-781.3,308.6-789.6,300.4-789.6,290.3z"/>
	<path class="st3" d="M-838.3,271.9h-18.4v18.4c0,10.1,8.3,18.4,18.4,18.4c10.1,0,18.4-8.3,18.4-18.4
		C-819.9,280.1-828.1,271.9-838.3,271.9z"/>
	<path class="st4" d="M-838.3-82.6h18.4V-101c0-10.1-8.3-18.4-18.4-18.4c-10.1,0-18.4,8.3-18.4,18.4
		C-856.6-90.9-848.4-82.6-838.3-82.6z"/>
	<path class="st4" d="M-503.5-249.8v18.4h18.4c10.1,0,18.4-8.3,18.4-18.4c0-10.1-8.3-18.4-18.4-18.4
		C-495.2-268.2-503.5-259.9-503.5-249.8z"/>
	<path class="st3" d="M-556.3-231.4h18.4v-18.4c0-10.1-8.3-18.4-18.4-18.4s-18.4,8.3-18.4,18.4
		C-574.7-239.7-566.4-231.4-556.3-231.4z"/>
	<path class="st5" d="M-789.6-101v18.4h18.4c10.1,0,18.4-8.3,18.4-18.4s-8.3-18.4-18.4-18.4C-781.3-119.4-789.6-111.1-789.6-101z"/>
	<path class="st6" d="M-630.3,131.4h-67c-10.1,0-18.4-8.3-18.4-18.4v0c0-10.1,8.3-18.4,18.4-18.4h67c10.1,0,18.4,8.3,18.4,18.4v0
		C-611.9,123.1-620.1,131.4-630.3,131.4z"/>
	<path class="st6" d="M-715.7,290.3V113c0-10.1,8.3-18.4,18.4-18.4h0c10.1,0,18.4,8.3,18.4,18.4v177.3c0,10.1-8.3,18.4-18.4,18.4
		l0,0C-707.4,308.6-715.7,300.4-715.7,290.3z"/>
	<path class="st6" d="M-648.6,290.3V113c0-10.1,8.3-18.4,18.4-18.4l0,0c10.1,0,18.4,8.3,18.4,18.4v177.3c0,10.1-8.3,18.4-18.4,18.4
		l0,0C-640.4,308.6-648.6,300.4-648.6,290.3z"/>
	<path class="st7" d="M-697.3,131.4h18.4V113c0-10.1-8.3-18.4-18.4-18.4s-18.4,8.3-18.4,18.4C-715.7,123.1-707.4,131.4-697.3,131.4z
		"/>
	<path class="st6" d="M-432.2,290.3V24.4c0-10.1,8.3-18.4,18.4-18.4h0c10.1,0,18.4,8.3,18.4,18.4v265.9c0,10.1-8.3,18.4-18.4,18.4h0
		C-424,308.6-432.2,300.4-432.2,290.3z"/>
	<path class="st0" d="M-362.1,290.3V24.4c0-10.1,8.3-18.4,18.4-18.4h0c10.1,0,18.4,8.3,18.4,18.4v265.9c0,10.1-8.3,18.4-18.4,18.4h0
		C-353.9,308.6-362.1,300.4-362.1,290.3z"/>
	<path class="st7" d="M-648.6,113v18.4h18.4c10.1,0,18.4-8.3,18.4-18.4s-8.3-18.4-18.4-18.4C-640.4,94.6-648.6,102.9-648.6,113z"/>
	<path class="st6" d="M-343.7,42.8h-70.1c-10.1,0-18.4-8.3-18.4-18.4v0c0-10.1,8.3-18.4,18.4-18.4h70.1c10.1,0,18.4,8.3,18.4,18.4v0
		C-325.4,34.5-333.6,42.8-343.7,42.8z"/>
	<path class="st7" d="M-413.8,42.8h18.4V24.4c0-10.1-8.3-18.4-18.4-18.4s-18.4,8.3-18.4,18.4C-432.2,34.5-424,42.8-413.8,42.8z"/>
	<path class="st8" d="M-362.1,24.4v18.4h18.4c10.1,0,18.4-8.3,18.4-18.4S-333.6,6-343.7,6C-353.9,6-362.1,14.3-362.1,24.4z"/>
	<path class="st8" d="M-325.4,290.3v-18.4h-18.4c-10.1,0-18.4,8.3-18.4,18.4c0,10.1,8.3,18.4,18.4,18.4
		C-333.6,308.6-325.4,300.4-325.4,290.3z"/>
</g>
<g>
	<path class="st9" d="M-72.5,306.2V132.4h56.8c18.9,0,33.1,3.9,42.6,11.7c9.5,7.8,14.3,19.3,14.3,34.6c0,8.1-2.3,15.3-6.9,21.6
		c-4.6,6.3-10.9,11.1-18.9,14.5c9.4,2.6,16.8,7.6,22.3,15c5.5,7.4,8.2,16.1,8.2,26.3c0,15.6-5.1,27.9-15.2,36.8
		c-10.1,8.9-24.4,13.4-42.9,13.4H-72.5z M-49.6,206.5H-15c10,0,18-2.5,24.1-7.5c6-5,9-11.8,9-20.5c0-9.6-2.8-16.5-8.4-20.9
		c-5.6-4.3-14.1-6.5-25.4-6.5h-33.9V206.5z M-49.6,224.9v62.6h37.9c10.7,0,19.1-2.8,25.3-8.3c6.2-5.5,9.3-13.2,9.3-22.9
		c0-20.9-11.4-31.4-34.1-31.4H-49.6z"/>
	<path class="st9" d="M104.3,306.2H81.4V132.4h22.9V306.2z"/>
	<path class="st9" d="M175.8,132.4l56.8,141.9l56.8-141.9h29.7v173.9h-22.9v-67.7l2.1-73.1l-57.1,140.8h-17.6l-57-140.4l2.3,72.7
		v67.7h-22.9V132.4H175.8z"/>
	<path class="st9" d="M359.7,306.2V132.4h49.1c15.1,0,28.5,3.3,40.1,10c11.6,6.7,20.6,16.2,26.9,28.5c6.3,12.3,9.5,26.5,9.6,42.5
		v11.1c0,16.4-3.2,30.8-9.5,43.1c-6.3,12.3-15.4,21.8-27.1,28.4c-11.7,6.6-25.4,10-41,10.1H359.7z M382.6,151.1v136.4h24.1
		c17.7,0,31.4-5.5,41.3-16.5c9.8-11,14.7-26.7,14.7-47v-10.2c0-19.8-4.6-35.1-13.9-46.1c-9.3-11-22.4-16.5-39.5-16.7H382.6z"/>
	<path class="st9" d="M596.4,306.2c-1.3-2.5-2.3-7.1-3.1-13.6c-10.3,10.7-22.5,16-36.8,16c-12.7,0-23.2-3.6-31.3-10.8
		c-8.2-7.2-12.2-16.3-12.2-27.4c0-13.5,5.1-23.9,15.3-31.3c10.2-7.4,24.6-11.2,43.2-11.2h21.5v-10.1c0-7.7-2.3-13.9-6.9-18.4
		c-4.6-4.6-11.4-6.9-20.4-6.9c-7.9,0-14.5,2-19.8,6c-5.3,4-8,8.8-8,14.4h-22.2c0-6.4,2.3-12.7,6.9-18.7c4.6-6,10.8-10.8,18.6-14.3
		c7.8-3.5,16.5-5.3,25.9-5.3c14.9,0,26.5,3.7,35,11.2c8.4,7.4,12.8,17.7,13.1,30.7V276c0,11.9,1.5,21.3,4.5,28.3v1.9H596.4z
		 M559.7,289.4c6.9,0,13.5-1.8,19.7-5.4c6.2-3.6,10.7-8.2,13.5-14v-26.5h-17.3c-27.1,0-40.6,7.9-40.6,23.8c0,6.9,2.3,12.3,6.9,16.2
		C546.5,287.4,552.5,289.4,559.7,289.4z"/>
	<path class="st9" d="M679.6,145.7V177h24.1v17.1h-24.1v80.2c0,5.2,1.1,9.1,3.2,11.7c2.1,2.6,5.8,3.9,11,3.9c2.5,0,6-0.5,10.5-1.4
		v17.8c-5.8,1.6-11.5,2.4-17,2.4c-9.9,0-17.3-3-22.3-9c-5-6-7.5-14.4-7.5-25.4v-80.1H634V177h23.5v-31.3H679.6z"/>
	<path class="st9" d="M809.3,306.2c-1.3-2.5-2.3-7.1-3.1-13.6c-10.3,10.7-22.5,16-36.8,16c-12.7,0-23.2-3.6-31.3-10.8
		c-8.2-7.2-12.2-16.3-12.2-27.4c0-13.5,5.1-23.9,15.3-31.3c10.2-7.4,24.6-11.2,43.2-11.2h21.5v-10.1c0-7.7-2.3-13.9-6.9-18.4
		c-4.6-4.6-11.4-6.9-20.4-6.9c-7.9,0-14.5,2-19.8,6c-5.3,4-8,8.8-8,14.4h-22.2c0-6.4,2.3-12.7,6.9-18.7c4.6-6,10.8-10.8,18.6-14.3
		c7.8-3.5,16.5-5.3,25.9-5.3c14.9,0,26.5,3.7,35,11.2c8.4,7.4,12.8,17.7,13.1,30.7V276c0,11.9,1.5,21.3,4.5,28.3v1.9H809.3z
		 M772.6,289.4c6.9,0,13.5-1.8,19.7-5.4c6.2-3.6,10.7-8.2,13.5-14v-26.5h-17.3c-27.1,0-40.6,7.9-40.6,23.8c0,6.9,2.3,12.3,6.9,16.2
		C759.4,287.4,765.4,289.4,772.6,289.4z"/>
	<path class="st9" d="M863,294.6c0-3.8,1.1-7,3.4-9.6c2.3-2.5,5.7-3.8,10.2-3.8s8,1.3,10.3,3.8c2.3,2.6,3.5,5.7,3.5,9.6
		c0,3.7-1.2,6.7-3.5,9.2c-2.3,2.5-5.8,3.7-10.3,3.7s-7.9-1.2-10.2-3.7C864.1,301.4,863,298.3,863,294.6z"/>
	<path class="st9" d="M927,142.7c0-3.6,1.1-6.6,3.3-9.1c2.2-2.5,5.4-3.7,9.7-3.7c4.3,0,7.6,1.2,9.8,3.7c2.2,2.5,3.3,5.5,3.3,9.1
		s-1.1,6.6-3.3,9c-2.2,2.4-5.5,3.6-9.8,3.6c-4.3,0-7.5-1.2-9.7-3.6C928.1,149.3,927,146.3,927,142.7z M950.9,306.2h-22.1V177h22.1
		V306.2z"/>
	<path class="st9" d="M980.4,240.4c0-12.7,2.5-24,7.5-34.1c5-10.1,11.9-17.9,20.8-23.4c8.9-5.5,19-8.2,30.4-8.2
		c17.6,0,31.8,6.1,42.7,18.3c10.9,12.2,16.3,28.4,16.3,48.6v1.6c0,12.6-2.4,23.9-7.2,33.9c-4.8,10-11.7,17.8-20.7,23.3
		c-9,5.6-19.2,8.4-30.9,8.4c-17.5,0-31.7-6.1-42.6-18.3c-10.9-12.2-16.3-28.3-16.3-48.4V240.4z M1002.6,243c0,14.3,3.3,25.8,10,34.5
		c6.6,8.7,15.5,13,26.7,13c11.2,0,20.1-4.4,26.7-13.2c6.6-8.8,9.9-21.1,9.9-37c0-14.2-3.4-25.7-10.1-34.4
		c-6.7-8.8-15.7-13.2-26.8-13.2c-10.9,0-19.7,4.3-26.4,13C1005.9,214.5,1002.6,226.9,1002.6,243z"/>
</g>
<g>
	<path class="st0" d="M45.3,36h-6.8c-0.6,0-1.1-0.5-1.1-1.1v0c0-0.6,0.5-1.1,1.1-1.1h6.8c0.6,0,1.1,0.5,1.1,1.1v0
		C46.4,35.5,45.9,36,45.3,36z"/>
	<path class="st1" d="M9.9,36H3.1C2.5,36,2,35.5,2,34.9l0,0c0-0.6,0.5-1.1,1.1-1.1h6.8c0.6,0,1.1,0.5,1.1,1.1l0,0
		C11,35.5,10.5,36,9.9,36z"/>
	<path class="st2" d="M13.8,13.4H9.9c-0.6,0-1.1-0.5-1.1-1.1v0c0-0.6,0.5-1.1,1.1-1.1h3.9c0.6,0,1.1,0.5,1.1,1.1v0
		C14.8,12.9,14.4,13.4,13.8,13.4z"/>
	<path class="st2" d="M30.3,4.8h-4.1c-0.6,0-1.1-0.5-1.1-1.1v0c0-0.6,0.5-1.1,1.1-1.1h4.1c0.6,0,1.1,0.5,1.1,1.1v0
		C31.4,4.3,30.9,4.8,30.3,4.8z"/>
	<path class="st2" d="M8.8,34.9V12.3c0-0.6,0.5-1.1,1.1-1.1h0c0.6,0,1.1,0.5,1.1,1.1v22.6c0,0.6-0.5,1.1-1.1,1.1h0
		C9.3,36,8.8,35.5,8.8,34.9z"/>
	<path class="st2" d="M29.3,34.9V3.7c0-0.6,0.5-1.1,1.1-1.1h0c0.6,0,1.1,0.5,1.1,1.1v31.2c0,0.6-0.5,1.1-1.1,1.1h0
		C29.7,36,29.3,35.5,29.3,34.9z"/>
	<path class="st1" d="M25.1,34.9V3.7c0-0.6,0.5-1.1,1.1-1.1h0c0.6,0,1.1,0.5,1.1,1.1v31.2c0,0.6-0.5,1.1-1.1,1.1h0
		C25.6,36,25.1,35.5,25.1,34.9z"/>
	<path class="st0" d="M12.7,34.9V12.3c0-0.6,0.5-1.1,1.1-1.1h0c0.6,0,1.1,0.5,1.1,1.1v22.6c0,0.6-0.5,1.1-1.1,1.1h0
		C13.2,36,12.7,35.5,12.7,34.9z"/>
	<path class="st3" d="M9.9,33.9H8.8v1.1c0,0.6,0.5,1.1,1.1,1.1s1.1-0.5,1.1-1.1C11,34.4,10.5,33.9,9.9,33.9z"/>
	<path class="st4" d="M9.9,13.4H11v-1.1c0-0.6-0.5-1.1-1.1-1.1s-1.1,0.5-1.1,1.1C8.8,12.9,9.3,13.4,9.9,13.4z"/>
	<path class="st4" d="M29.3,3.7v1.1h1.1c0.6,0,1.1-0.5,1.1-1.1s-0.5-1.1-1.1-1.1C29.7,2.7,29.3,3.1,29.3,3.7z"/>
	<path class="st3" d="M26.2,4.8h1.1V3.7c0-0.6-0.5-1.1-1.1-1.1s-1.1,0.5-1.1,1.1C25.1,4.3,25.6,4.8,26.2,4.8z"/>
	<path class="st5" d="M12.7,12.3v1.1h1.1c0.6,0,1.1-0.5,1.1-1.1c0-0.6-0.5-1.1-1.1-1.1C13.2,11.3,12.7,11.7,12.7,12.3z"/>
	<path class="st6" d="M21.9,25.8h-3.9c-0.6,0-1.1-0.5-1.1-1.1v0c0-0.6,0.5-1.1,1.1-1.1h3.9c0.6,0,1.1,0.5,1.1,1.1v0
		C23,25.3,22.5,25.8,21.9,25.8z"/>
	<path class="st6" d="M17,34.9V24.7c0-0.6,0.5-1.1,1.1-1.1h0c0.6,0,1.1,0.5,1.1,1.1v10.2c0,0.6-0.5,1.1-1.1,1.1h0
		C17.5,36,17,35.5,17,34.9z"/>
	<path class="st6" d="M20.9,34.9V24.7c0-0.6,0.5-1.1,1.1-1.1h0c0.6,0,1.1,0.5,1.1,1.1v10.2c0,0.6-0.5,1.1-1.1,1.1h0
		C21.3,36,20.9,35.5,20.9,34.9z"/>
	<path class="st7" d="M18.1,25.8h1.1v-1.1c0-0.6-0.5-1.1-1.1-1.1S17,24.1,17,24.7C17,25.3,17.5,25.8,18.1,25.8z"/>
	<path class="st6" d="M33.4,34.9V19.6c0-0.6,0.5-1.1,1.1-1.1h0c0.6,0,1.1,0.5,1.1,1.1v15.4c0,0.6-0.5,1.1-1.1,1.1h0
		C33.9,36,33.4,35.5,33.4,34.9z"/>
	<path class="st0" d="M37.4,34.9V19.6c0-0.6,0.5-1.1,1.1-1.1l0,0c0.6,0,1.1,0.5,1.1,1.1v15.4c0,0.6-0.5,1.1-1.1,1.1l0,0
		C37.9,36,37.4,35.5,37.4,34.9z"/>
	<path class="st7" d="M20.9,24.7v1.1h1.1c0.6,0,1.1-0.5,1.1-1.1s-0.5-1.1-1.1-1.1C21.3,23.6,20.9,24.1,20.9,24.7z"/>
	<path class="st6" d="M38.5,20.6h-4.1c-0.6,0-1.1-0.5-1.1-1.1v0c0-0.6,0.5-1.1,1.1-1.1h4.1c0.6,0,1.1,0.5,1.1,1.1v0
		C39.6,20.2,39.1,20.6,38.5,20.6z"/>
	<path class="st7" d="M34.4,20.6h1.1v-1.1c0-0.6-0.5-1.1-1.1-1.1s-1.1,0.5-1.1,1.1C33.4,20.2,33.9,20.6,34.4,20.6z"/>
	<path class="st8" d="M37.4,19.6v1.1h1.1c0.6,0,1.1-0.5,1.1-1.1c0-0.6-0.5-1.1-1.1-1.1C37.9,18.5,37.4,19,37.4,19.6z"/>
	<path class="st8" d="M39.6,34.9v-1.1h-1.1c-0.6,0-1.1,0.5-1.1,1.1s0.5,1.1,1.1,1.1C39.1,36,39.6,35.5,39.6,34.9z"/>
</g>
<g>
	<path class="st9" d="M54.2,35.9v-10h3.3c1.1,0,1.9,0.2,2.5,0.7c0.5,0.5,0.8,1.1,0.8,2c0,0.5-0.1,0.9-0.4,1.2
		c-0.3,0.4-0.6,0.6-1.1,0.8c0.5,0.2,1,0.4,1.3,0.9c0.3,0.4,0.5,0.9,0.5,1.5c0,0.9-0.3,1.6-0.9,2.1c-0.6,0.5-1.4,0.8-2.5,0.8H54.2z
		 M55.5,30.1h2c0.6,0,1-0.1,1.4-0.4c0.3-0.3,0.5-0.7,0.5-1.2c0-0.6-0.2-1-0.5-1.2c-0.3-0.3-0.8-0.4-1.5-0.4h-2V30.1z M55.5,31.2v3.6
		h2.2c0.6,0,1.1-0.2,1.5-0.5c0.4-0.3,0.5-0.8,0.5-1.3c0-1.2-0.7-1.8-2-1.8H55.5z"/>
	<path class="st9" d="M64.4,35.9h-1.3v-10h1.3V35.9z"/>
	<path class="st9" d="M68.5,25.8l3.3,8.2l3.3-8.2h1.7v10h-1.3v-3.9l0.1-4.2l-3.3,8.1h-1L68,27.7l0.1,4.2v3.9h-1.3v-10H68.5z"/>
	<path class="st9" d="M79.2,35.9v-10H82c0.9,0,1.6,0.2,2.3,0.6c0.7,0.4,1.2,0.9,1.6,1.6c0.4,0.7,0.6,1.5,0.6,2.5v0.6
		c0,0.9-0.2,1.8-0.5,2.5c-0.4,0.7-0.9,1.3-1.6,1.6c-0.7,0.4-1.5,0.6-2.4,0.6H79.2z M80.5,26.9v7.9h1.4c1,0,1.8-0.3,2.4-1
		c0.6-0.6,0.9-1.5,0.9-2.7v-0.6c0-1.1-0.3-2-0.8-2.7c-0.5-0.6-1.3-1-2.3-1H80.5z"/>
	<path class="st9" d="M92.8,35.9c-0.1-0.1-0.1-0.4-0.2-0.8c-0.6,0.6-1.3,0.9-2.1,0.9c-0.7,0-1.3-0.2-1.8-0.6
		C88.2,35,88,34.4,88,33.8c0-0.8,0.3-1.4,0.9-1.8c0.6-0.4,1.4-0.6,2.5-0.6h1.2v-0.6c0-0.4-0.1-0.8-0.4-1.1c-0.3-0.3-0.7-0.4-1.2-0.4
		c-0.5,0-0.8,0.1-1.1,0.3c-0.3,0.2-0.5,0.5-0.5,0.8h-1.3c0-0.4,0.1-0.7,0.4-1.1c0.3-0.3,0.6-0.6,1.1-0.8c0.5-0.2,1-0.3,1.5-0.3
		c0.9,0,1.5,0.2,2,0.6c0.5,0.4,0.7,1,0.8,1.8v3.4c0,0.7,0.1,1.2,0.3,1.6v0.1H92.8z M90.7,34.9c0.4,0,0.8-0.1,1.1-0.3
		c0.4-0.2,0.6-0.5,0.8-0.8v-1.5h-1c-1.6,0-2.3,0.5-2.3,1.4c0,0.4,0.1,0.7,0.4,0.9C90,34.8,90.3,34.9,90.7,34.9z"/>
	<path class="st9" d="M97.6,26.6v1.8H99v1h-1.4V34c0,0.3,0.1,0.5,0.2,0.7c0.1,0.1,0.3,0.2,0.6,0.2c0.1,0,0.3,0,0.6-0.1v1
		c-0.3,0.1-0.7,0.1-1,0.1c-0.6,0-1-0.2-1.3-0.5c-0.3-0.3-0.4-0.8-0.4-1.5v-4.6H95v-1h1.4v-1.8H97.6z"/>
	<path class="st9" d="M105.1,35.9c-0.1-0.1-0.1-0.4-0.2-0.8c-0.6,0.6-1.3,0.9-2.1,0.9c-0.7,0-1.3-0.2-1.8-0.6
		c-0.5-0.4-0.7-0.9-0.7-1.6c0-0.8,0.3-1.4,0.9-1.8c0.6-0.4,1.4-0.6,2.5-0.6h1.2v-0.6c0-0.4-0.1-0.8-0.4-1.1
		c-0.3-0.3-0.7-0.4-1.2-0.4c-0.5,0-0.8,0.1-1.1,0.3c-0.3,0.2-0.5,0.5-0.5,0.8h-1.3c0-0.4,0.1-0.7,0.4-1.1c0.3-0.3,0.6-0.6,1.1-0.8
		c0.5-0.2,1-0.3,1.5-0.3c0.9,0,1.5,0.2,2,0.6c0.5,0.4,0.7,1,0.8,1.8v3.4c0,0.7,0.1,1.2,0.3,1.6v0.1H105.1z M103,34.9
		c0.4,0,0.8-0.1,1.1-0.3c0.4-0.2,0.6-0.5,0.8-0.8v-1.5h-1c-1.6,0-2.3,0.5-2.3,1.4c0,0.4,0.1,0.7,0.4,0.9
		C102.3,34.8,102.6,34.9,103,34.9z"/>
	<path class="st9" d="M108.2,35.2c0-0.2,0.1-0.4,0.2-0.6c0.1-0.1,0.3-0.2,0.6-0.2s0.5,0.1,0.6,0.2c0.1,0.1,0.2,0.3,0.2,0.6
		c0,0.2-0.1,0.4-0.2,0.5c-0.1,0.1-0.3,0.2-0.6,0.2s-0.5-0.1-0.6-0.2C108.3,35.6,108.2,35.4,108.2,35.2z"/>
	<path class="st9" d="M111.9,26.4c0-0.2,0.1-0.4,0.2-0.5c0.1-0.1,0.3-0.2,0.6-0.2c0.2,0,0.4,0.1,0.6,0.2c0.1,0.1,0.2,0.3,0.2,0.5
		s-0.1,0.4-0.2,0.5c-0.1,0.1-0.3,0.2-0.6,0.2c-0.2,0-0.4-0.1-0.6-0.2C112,26.8,111.9,26.6,111.9,26.4z M113.3,35.9h-1.3v-7.5h1.3
		V35.9z"/>
	<path class="st9" d="M115,32.1c0-0.7,0.1-1.4,0.4-2c0.3-0.6,0.7-1,1.2-1.4c0.5-0.3,1.1-0.5,1.8-0.5c1,0,1.8,0.4,2.5,1.1
		c0.6,0.7,0.9,1.6,0.9,2.8v0.1c0,0.7-0.1,1.4-0.4,2c-0.3,0.6-0.7,1-1.2,1.3c-0.5,0.3-1.1,0.5-1.8,0.5c-1,0-1.8-0.4-2.5-1.1
		S115,33.3,115,32.1L115,32.1z M116.3,32.2c0,0.8,0.2,1.5,0.6,2c0.4,0.5,0.9,0.8,1.5,0.8c0.6,0,1.2-0.3,1.5-0.8
		c0.4-0.5,0.6-1.2,0.6-2.1c0-0.8-0.2-1.5-0.6-2c-0.4-0.5-0.9-0.8-1.5-0.8c-0.6,0-1.1,0.3-1.5,0.8C116.5,30.6,116.3,31.3,116.3,32.2z
		"/>
</g>
</svg>
