<?xml version="1.0" encoding="UTF-8"?>
<svg width="70px" height="70px" viewBox="0 0 70 70" version="1.1" xmlns="http://www.w3.org/2000/svg" xmlns:xlink="http://www.w3.org/1999/xlink">
    <!-- Generator: Sketch 47.1 (45422) - http://www.bohemiancoding.com/sketch -->
    <title>logo-carre</title>
    <desc>Created with Sketch.</desc>
    <defs>
        <polygon id="path-1" points="0 3.27339507 0 0.0157485132 13.7432421 0.0157485132 13.7432421 3.27339507 6.61649345e-16 3.27339507"></polygon>
        <polygon id="path-3" points="0.0223678845 0.0449617672 3.28001444 0.0449617672 3.28001444 3.30262617 0.0223678845 3.30262617 0.0223678845 0.0449617672"></polygon>
        <polygon id="path-5" points="0 69.4195412 70 69.4195412 70 0.0592353441 0 0.0592353441"></polygon>
    </defs>
    <g id="Symbols" stroke="none" stroke-width="1" fill="none" fill-rule="evenodd">
        <g id="logo-carre">
            <g id="Page-1">
                <path d="M66.4085599,51.1636245 L55.9230119,51.1636245 C55.0271665,51.1636245 54.2941589,50.4306168 54.2941589,49.5347715 C54.2941589,48.6389261 55.0271665,47.9059779 55.9230119,47.9059779 L66.4085599,47.9059779 C67.3044053,47.9059779 68.0373534,48.6389261 68.0373534,49.5347715 C68.0373534,50.4306168 67.3044053,51.1636245 66.4085599,51.1636245 Z" id="Fill-1" fill="#68BCAF"></path>
                <g id="Group-5" transform="translate(0.000000, 47.890229)">
                    <mask id="mask-2" fill="white">
                        <use xlink:href="#path-1"></use>
                    </mask>
                    <g id="Clip-4"></g>
                    <path d="M12.1143891,3.27339507 L1.62884112,3.27339507 C0.732995752,3.27339507 -1.18946474e-05,2.54038743 -1.18946474e-05,1.64454206 C-1.18946474e-05,0.748696686 0.732995752,0.0157485132 1.62884112,0.0157485132 L12.1143891,0.0157485132 C13.0102345,0.0157485132 13.7432421,0.748696686 13.7432421,1.64454206 C13.7432421,2.54038743 13.0102345,3.27339507 12.1143891,3.27339507" id="Fill-3" fill="#FAC92B" mask="url(#mask-2)"></path>
                </g>
                <path d="M18.0528156,16.5001657 L12.1144129,16.5001657 C11.2185081,16.5001657 10.4855599,15.7672175 10.4855599,14.8713721 C10.4855599,13.9754673 11.2185081,13.2425191 12.1144129,13.2425191 L18.0528156,13.2425191 C18.948661,13.2425191 19.6816686,13.9754673 19.6816686,14.8713721 C19.6816686,15.7672175 18.948661,16.5001657 18.0528156,16.5001657" id="Fill-6" fill="#E26025"></path>
                <path d="M43.4014095,3.3168819 L37.1146126,3.3168819 C36.2187672,3.3168819 35.4857596,2.58387426 35.4857596,1.68802889 C35.4857596,0.792183517 36.2187672,0.0592353441 37.1146126,0.0592353441 L43.4014095,0.0592353441 C44.2972549,0.0592353441 45.0302031,0.792183517 45.0302031,1.68802889 C45.0302031,2.58387426 44.2972549,3.3168819 43.4014095,3.3168819" id="Fill-8" fill="#E26025"></path>
                <path d="M10.4855658,49.5347893 L10.4855658,14.8713483 C10.4855658,13.975503 11.218514,13.2424953 12.1144189,13.2424953 C13.0102642,13.2424953 13.7432124,13.975503 13.7432124,14.8713483 L13.7432124,49.5347893 C13.7432124,50.4306347 13.0102642,51.1636423 12.1144189,51.1636423 C11.218514,51.1636423 10.4855658,50.4306347 10.4855658,49.5347893" id="Fill-10" fill="#E26025"></path>
                <path d="M41.7725803,49.5347893 L41.7725803,1.68803483 C41.7725803,0.792189465 42.5055285,0.0592412914 43.4013738,0.0592412914 L43.4014333,0.0592412914 C44.2972787,0.0592412914 45.0302268,0.792189465 45.0302268,1.68803483 L45.0302268,49.5347893 C45.0302268,50.4306347 44.2972787,51.1636423 43.4014333,51.1636423 L43.4013738,51.1636423 C42.5055285,51.1636423 41.7725803,50.4306347 41.7725803,49.5347893" id="Fill-12" fill="#E26025"></path>
                <path d="M35.4608819,49.5347893 L35.4608819,1.68803483 C35.4608819,0.792189465 36.1938301,0.0592412914 37.0896754,0.0592412914 L37.0897349,0.0592412914 C37.9855803,0.0592412914 38.7185285,0.792189465 38.7185285,1.68803483 L38.7185285,49.5347893 C38.7185285,50.4306347 37.9855803,51.1636423 37.0897349,51.1636423 L37.0896754,51.1636423 C36.1938301,51.1636423 35.4608819,50.4306347 35.4608819,49.5347893" id="Fill-14" fill="#FAC92B"></path>
                <path d="M16.4239864,49.5347893 L16.4239864,14.8713483 C16.4239864,13.975503 17.1569346,13.2424953 18.0528394,13.2424953 L18.0528394,13.2424953 C18.9486848,13.2424953 19.681633,13.975503 19.681633,14.8713483 L19.681633,49.5347893 C19.681633,50.4306347 18.9486848,51.1636423 18.0528394,51.1636423 L18.0528394,51.1636423 C17.1569346,51.1636423 16.4239864,50.4306347 16.4239864,49.5347893" id="Fill-16" fill="#68BCAF"></path>
                <path d="M12.1143891,47.9059541 L10.4855361,47.9059541 L10.4855361,49.5348071 C10.4855361,50.4306525 11.2185438,51.1636007 12.1143891,51.1636007 C13.0102345,51.1636007 13.7432421,50.4306525 13.7432421,49.5348071 C13.7432421,48.6389618 13.0102345,47.9059541 12.1143891,47.9059541" id="Fill-18" fill="#DF5218"></path>
                <path d="M12.1143891,16.5001657 L13.7432421,16.5001657 L13.7432421,14.8713721 C13.7432421,13.9754673 13.0102345,13.2425191 12.1143891,13.2425191 C11.2185438,13.2425191 10.4855361,13.9754673 10.4855361,14.8713721 C10.4855361,15.767158 11.2185438,16.5001657 12.1143891,16.5001657" id="Fill-20" fill="#DA2418"></path>
                <g id="Group-24" transform="translate(41.750212, 0.014274)">
                    <mask id="mask-4" fill="white">
                        <use xlink:href="#path-3"></use>
                    </mask>
                    <g id="Clip-23"></g>
                    <path d="M0.0223678845,1.67377315 L0.0223678845,3.30262617 L1.65116143,3.30262617 C2.54706627,3.30262617 3.28001444,2.56961852 3.28001444,1.67377315 C3.28001444,0.777927782 2.54706627,0.0449201359 1.65116143,0.0449201359 C0.755375531,0.0449201359 0.0223678845,0.777927782 0.0223678845,1.67377315" id="Fill-22" fill="#DA2418" mask="url(#mask-4)"></path>
                </g>
                <path d="M37.0897111,3.3168819 L38.7185047,3.3168819 L38.7185047,1.68802889 C38.7185047,0.792183517 37.9855565,0.0592353441 37.0897111,0.0592353441 C36.1938658,0.0592353441 35.4608581,0.792183517 35.4608581,1.68802889 C35.4608581,2.58387426 36.1938658,3.3168819 37.0897111,3.3168819" id="Fill-25" fill="#DF5218"></path>
                <path d="M16.4239864,14.8713602 L16.4239864,16.5001538 L18.0528394,16.5001538 C18.9486848,16.5001538 19.681633,15.7672056 19.681633,14.8713602 C19.681633,13.9755149 18.9486848,13.2425072 18.0528394,13.2425072 C17.1569941,13.2425072 16.4239864,13.9755149 16.4239864,14.8713602" id="Fill-27" fill="#755837"></path>
                <path d="M30.5404707,35.4607154 L24.602068,35.4607154 C23.7061631,35.4607154 22.973215,34.7277672 22.973215,33.8319218 L22.973215,33.8318624 C22.973215,32.936017 23.7061631,32.2030688 24.602068,32.2030688 L30.5404707,32.2030688 C31.4363161,32.2030688 32.1693237,32.936017 32.1693237,33.8318624 L32.1693237,33.8319218 C32.1693237,34.7277672 31.4363161,35.4607154 30.5404707,35.4607154" id="Fill-29" fill="#C8C7CB"></path>
                <path d="M22.9732209,49.5347893 L22.9732209,33.8318921 C22.9732209,32.9360467 23.7061691,32.2030986 24.6020739,32.2030986 L24.6020739,32.2030986 C25.4979193,32.2030986 26.2308675,32.9360467 26.2308675,33.8318921 L26.2308675,49.5347893 C26.2308675,50.4306347 25.4979193,51.1636423 24.6020739,51.1636423 L24.6020739,51.1636423 C23.7061691,51.1636423 22.9732209,50.4306347 22.9732209,49.5347893" id="Fill-31" fill="#C8C7CB"></path>
                <path d="M28.9116474,49.5347893 L28.9116474,33.8318921 C28.9116474,32.9360467 29.6445956,32.2030986 30.5405004,32.2030986 L30.5405004,32.2030986 C31.4363458,32.2030986 32.169294,32.9360467 32.169294,33.8318921 L32.169294,49.5347893 C32.169294,50.4306347 31.4363458,51.1636423 30.5405004,51.1636423 L30.5405004,51.1636423 C29.6445956,51.1636423 28.9116474,50.4306347 28.9116474,49.5347893" id="Fill-33" fill="#C8C7CB"></path>
                <path d="M24.6020442,35.4607154 L26.2308972,35.4607154 L26.2308972,33.8319218 C26.2308972,32.936017 25.4978895,32.2030688 24.6020442,32.2030688 C23.7061988,32.2030688 22.9731912,32.936017 22.9731912,33.8319218 C22.9731912,34.7277077 23.7061988,35.4607154 24.6020442,35.4607154" id="Fill-35" fill="#9E9DA3"></path>
                <path d="M48.0842787,49.5347893 L48.0842787,25.9804732 C48.0842787,25.0845684 48.8172268,24.3516202 49.7130722,24.3516202 C50.6089771,24.3516202 51.3419252,25.0845684 51.3419252,25.9804732 L51.3419252,49.5347893 C51.3419252,50.4306347 50.6089771,51.1636423 49.7130722,51.1636423 C48.8172268,51.1636423 48.0842787,50.4306347 48.0842787,49.5347893" id="Fill-37" fill="#C8C7CB"></path>
                <path d="M54.2941708,49.5347893 L54.2941708,25.9804732 C54.2941708,25.0845684 55.0271189,24.3516202 55.9229643,24.3516202 L55.9230238,24.3516202 C56.8188692,24.3516202 57.5518173,25.0845684 57.5518173,25.9804732 L57.5518173,49.5347893 C57.5518173,50.4306347 56.8188692,51.1636423 55.9230238,51.1636423 L55.9229643,51.1636423 C55.0271189,51.1636423 54.2941708,50.4306347 54.2941708,49.5347893" id="Fill-39" fill="#68BCAF"></path>
                <path d="M28.9116474,33.8319099 L28.9116474,35.4607035 L30.5405004,35.4607035 C31.4363458,35.4607035 32.169294,34.7277553 32.169294,33.8319099 C32.169294,32.9360646 31.4363458,32.2030569 30.5405004,32.2030569 C29.6446551,32.2030569 28.9116474,32.9360646 28.9116474,33.8319099" id="Fill-41" fill="#9E9DA3"></path>
                <path d="M55.923,27.6092906 L49.713102,27.6092906 C48.8172566,27.6092906 48.0842489,26.8762829 48.0842489,25.9804376 C48.0842489,25.0845922 48.8172566,24.351644 49.713102,24.351644 L55.923,24.351644 C56.8188454,24.351644 57.5517935,25.0845922 57.5517935,25.9804376 C57.5517935,26.8762829 56.8188454,27.6092906 55.923,27.6092906" id="Fill-43" fill="#C8C7CB"></path>
                <path d="M49.713102,27.6092906 L51.341955,27.6092906 L51.341955,25.9804376 C51.341955,25.0845922 50.6089473,24.351644 49.713102,24.351644 C48.8172566,24.351644 48.0842489,25.0845922 48.0842489,25.9804376 C48.0842489,26.8762829 48.8172566,27.6092906 49.713102,27.6092906" id="Fill-45" fill="#9E9DA3"></path>
                <path d="M54.2941708,25.9804554 L54.2941708,27.6093084 L55.9229643,27.6093084 C56.8188692,27.6093084 57.5518173,26.8763008 57.5518173,25.9804554 C57.5518173,25.08461 56.8188692,24.3516024 55.9229643,24.3516024 C55.0271784,24.3516024 54.2941708,25.08461 54.2941708,25.9804554" id="Fill-47" fill="#539C90"></path>
                <path d="M1.74859048,64.4414588 L1.74859048,68.1625803 L3.99971198,68.1625803 C4.634113,68.1625803 5.13475871,67.9982557 5.50164911,67.6690714 C5.86853951,67.3401249 6.05201444,66.8868794 6.05201444,66.3091563 C6.05201444,65.0640841 5.37497111,64.4414588 4.02106287,64.4414588 L1.74859048,64.4414588 Z M1.74859048,63.3478649 L3.80797026,63.3478649 C4.40448683,63.3478649 4.88146219,63.1984681 5.23889635,62.8994367 C5.5963305,62.6007026 5.77504758,62.1949167 5.77504758,61.6825548 C5.77504758,61.1132175 5.60935514,60.6992838 5.27797026,60.4408726 C4.94658539,60.182164 4.44237128,60.0528097 3.76538743,60.0528097 L1.74859048,60.0528097 L1.74859048,63.3478649 Z M0.385107052,69.2775251 L0.385107052,58.9378649 L3.76538743,58.9378649 C4.88740952,58.9378649 5.73127528,59.1699295 6.29704418,59.6338207 C6.86275361,60.0979499 7.1456678,60.784271 7.1456678,61.69326 C7.1456678,62.1761232 7.00828462,62.6034979 6.73375616,62.9750272 C6.45916822,63.3468539 6.08514104,63.6344664 5.61173407,63.8378649 C6.17036619,63.9941011 6.61183602,64.2913483 6.93614359,64.7290714 C7.26039167,65.1670918 7.42257519,65.6890289 7.42257519,66.2949422 C7.42257519,67.2229626 7.12193798,67.9521045 6.52072302,68.48213 C5.9194486,69.0124528 5.06963551,69.2775251 3.97134325,69.2775251 L0.385107052,69.2775251 Z" id="Fill-51" fill="#30374B"></path>
                <mask id="mask-6" fill="white">
                    <use xlink:href="#path-5"></use>
                </mask>
                <g id="Clip-54"></g>
                <polygon id="Fill-53" fill="#30374B" mask="url(#mask-6)" points="9.53879354 69.2775191 10.902277 69.2775191 10.902277 58.937859 9.53879354 58.937859"></polygon>
                <polygon id="Fill-55" fill="#30374B" mask="url(#mask-6)" points="15.1560051 58.9378887 18.5362855 67.3743458 21.9165064 58.9378887 23.6847647 58.9378887 23.6847647 69.2775489 22.3212812 69.2775489 22.3212812 65.2510323 22.4491487 60.904966 19.0546542 69.2775489 18.0107799 69.2775489 14.6234223 60.9263169 14.7583076 65.2510323 14.7583076 69.2775489 13.3948836 69.2775489 13.3948836 58.9378887"></polygon>
                <path d="M27.4556058,60.0528097 L27.4556058,68.1625803 L28.8901003,68.1625803 C29.9411113,68.1625803 30.7588683,67.8356559 31.3436092,67.1818666 C31.9282906,66.5280178 32.220661,65.5967264 32.220661,64.3884681 L32.220661,63.784339 C32.220661,62.6093263 31.9448241,61.6957579 31.3933288,61.0444664 C30.841774,60.3926398 30.0594036,60.0624444 29.0463364,60.0528097 L27.4556058,60.0528097 Z M26.0921223,69.2775251 L26.0921223,58.9378649 L29.0108309,58.9378649 C29.9102447,58.9378649 30.7056398,59.1367434 31.3968972,59.534441 C32.0880357,59.932079 32.6218675,60.4979074 32.9982141,61.2316287 C33.3746202,61.9656474 33.565113,62.8081453 33.5698709,63.7597171 L33.5698709,64.4201674 C33.5698709,65.3955879 33.3816975,66.2500399 33.0053509,66.9837613 C32.6289448,67.7177205 32.0916041,68.281051 31.3933288,68.6739312 C30.6949941,69.0669898 29.881876,69.2681283 28.9539745,69.2775251 L26.0921223,69.2775251 Z" id="Fill-56" fill="#30374B" mask="url(#mask-6)"></path>
                <path d="M37.9869541,68.2762039 C38.3988658,68.2762039 38.7894265,68.1696873 39.1586958,67.9566542 C39.5279652,67.7436211 39.7954163,67.4666542 39.9611682,67.1258131 L39.9611682,65.5492965 L38.9314486,65.5492965 C37.321746,65.5492965 36.5169541,66.020503 36.5169541,66.9624401 C36.5169541,67.3743517 36.6542184,67.6963993 36.9288658,67.928226 C37.2033942,68.1602906 37.55613,68.2762039 37.9869541,68.2762039 L37.9869541,68.2762039 Z M40.1670646,69.2774953 C40.0912957,69.1261359 40.0297409,68.8562464 39.9824596,68.4679456 C39.371729,69.1025251 38.6426466,69.4195769 37.7952124,69.4195769 C37.0377018,69.4195769 36.4163254,69.2054732 35.9310833,68.7768496 C35.4457816,68.3485234 35.2031903,67.8052353 35.2031903,67.1471045 C35.2031903,66.3471895 35.5073959,65.7258131 36.1157477,65.2829754 C36.7240399,64.8403755 37.5797409,64.6190161 38.6829099,64.6190161 L39.9611682,64.6190161 L39.9611682,64.0153628 C39.9611682,63.5563483 39.823785,63.1905879 39.5492566,62.9182005 C39.2746686,62.646051 38.8698938,62.5098573 38.334932,62.5098573 C37.8662234,62.5098573 37.4732243,62.628328 37.156113,62.864972 C36.8388828,63.1018539 36.6803271,63.3882175 36.6803271,63.7242413 L35.3594265,63.7242413 C35.3594265,63.3407579 35.4955013,62.9704775 35.7677698,62.6128649 C36.0399788,62.2554902 36.4092481,61.9727545 36.8755777,61.7642413 C37.3418479,61.5560255 37.8543883,61.4517689 38.4130204,61.4517689 C39.2982795,61.4517689 39.9919159,61.6731878 40.4937511,62.1157876 C40.9955268,62.5585658 41.2559601,63.1680476 41.2748726,63.9444112 L41.2748726,67.4808683 C41.2748726,68.1864588 41.3647961,68.7474104 41.5447621,69.1639014 L41.5447621,69.2774953 L40.1670646,69.2774953 Z" id="Fill-57" fill="#30374B" mask="url(#mask-6)"></path>
                <path d="M45.1167426,59.73326 L45.1167426,61.5938207 L46.551237,61.5938207 L46.551237,62.6093263 L45.1167426,62.6093263 L45.1167426,67.3804477 C45.1167426,67.6885786 45.1806763,67.9196321 45.3084843,68.0735489 C45.4362923,68.2275251 45.6540238,68.3046619 45.9617978,68.3046619 C46.1132761,68.3046619 46.3215514,68.2762336 46.5867426,68.2193772 L46.5867426,69.2785361 C46.2410841,69.3723849 45.9050008,69.4195472 45.5783144,69.4195472 C44.991254,69.4195472 44.5486542,69.2420195 44.2503959,68.8869643 C43.9521376,68.5318496 43.8029788,68.027695 43.8029788,67.374322 L43.8029788,62.6093263 L42.4039898,62.6093263 L42.4039898,61.5938207 L43.8029788,61.5938207 L43.8029788,59.73326 L45.1167426,59.73326 Z" id="Fill-58" fill="#30374B" mask="url(#mask-6)"></path>
                <path d="M50.648729,68.2762039 C51.0605811,68.2762039 51.4512014,68.1696873 51.8204707,67.9566542 C52.18974,67.7436211 52.4571912,67.4666542 52.6228836,67.1258131 L52.6228836,65.5492965 L51.5932234,65.5492965 C49.9835208,65.5492965 49.178729,66.020503 49.178729,66.9624401 C49.178729,67.3743517 49.3159932,67.6963993 49.5906406,67.928226 C49.8651691,68.1602906 50.2179048,68.2762039 50.648729,68.2762039 L50.648729,68.2762039 Z M52.8288394,69.2774953 C52.7530705,69.1261359 52.6915157,68.8562464 52.6442345,68.4679456 C52.0335038,69.1025251 51.3044214,69.4195769 50.4569873,69.4195769 C49.6994766,69.4195769 49.0781003,69.2054732 48.5928581,68.7768496 C48.1075565,68.3485234 47.8649652,67.8052353 47.8649652,67.1471045 C47.8649652,66.3471895 48.1691113,65.7258131 48.7775225,65.2829754 C49.3858148,64.8403755 50.2415157,64.6190161 51.3446848,64.6190161 L52.6228836,64.6190161 L52.6228836,64.0153628 C52.6228836,63.5563483 52.4855599,63.1905879 52.2110314,62.9182005 C51.9364435,62.646051 51.5316686,62.5098573 50.9967069,62.5098573 C50.5279983,62.5098573 50.1349992,62.628328 49.8178879,62.864972 C49.5006576,63.1018539 49.342102,63.3882175 49.342102,63.7242413 L48.0212014,63.7242413 C48.0212014,63.3407579 48.1572761,62.9704775 48.4295446,62.6128649 C48.7017536,62.2554902 49.0710229,61.9727545 49.5373526,61.7642413 C50.0036228,61.5560255 50.5161631,61.4517689 51.0747952,61.4517689 C51.9600544,61.4517689 52.6536907,61.6731878 53.1555259,62.1157876 C53.6573016,62.5585658 53.9177349,63.1680476 53.9366474,63.9444112 L53.9366474,67.4808683 C53.9366474,68.1864588 54.0265709,68.7474104 54.206537,69.1639014 L54.206537,69.2774953 L52.8288394,69.2774953 Z" id="Fill-59" fill="#30374B" mask="url(#mask-6)"></path>
                <path d="M56.0244732,68.5886703 C56.0244732,68.3614231 56.0919159,68.1722387 56.2268607,68.020582 C56.3618054,67.8691631 56.5641929,67.7933347 56.8340229,67.7933347 C57.1039125,67.7933347 57.3086194,67.8691631 57.448322,68.020582 C57.5879057,68.1722387 57.6577867,68.3614231 57.6577867,68.5886703 C57.6577867,68.8065208 57.5879057,68.9888658 57.448322,69.1354673 C57.3086194,69.2820688 57.1039125,69.3556372 56.8340229,69.3556372 C56.5641929,69.3556372 56.3618054,69.2820688 56.2268607,69.1354673 C56.0919159,68.9888658 56.0244732,68.8065208 56.0244732,68.5886703" id="Fill-60" fill="#30374B" mask="url(#mask-6)"></path>
                <path d="M59.9373067,69.2775191 L61.2510705,69.2775191 L61.2510705,61.5938148 L59.9373067,61.5938148 L59.9373067,69.2775191 Z M59.8307901,59.5557264 C59.8307901,59.3426933 59.8958539,59.1628462 60.0261003,59.0160068 C60.1562872,58.8694053 60.3492184,58.7958369 60.6048938,58.7958369 C60.8605098,58.7958369 61.0545709,58.8694053 61.1871963,59.0160068 C61.3197026,59.1628462 61.3860153,59.3426933 61.3860153,59.5557264 C61.3860153,59.7687596 61.3197026,59.9462872 61.1871963,60.0883093 C61.0545709,60.2303314 60.8605098,60.3013424 60.6048938,60.3013424 C60.3492184,60.3013424 60.1562872,60.2303314 60.0261003,60.0883093 C59.8958539,59.9462872 59.8307901,59.7687596 59.8307901,59.5557264 L59.8307901,59.5557264 Z" id="Fill-61" fill="#30374B" mask="url(#mask-6)"></path>
                <path d="M64.3259915,65.5208921 C64.3259915,66.3730841 64.5236211,67.0573237 64.9189397,67.5731946 C65.3141988,68.0893033 65.8432727,68.3472387 66.506102,68.3472387 C67.1736296,68.3472387 67.7038335,68.0857349 68.0968326,67.5625489 C68.4897723,67.0395412 68.6862719,66.3068309 68.6862719,65.3646559 C68.6862719,64.522158 68.4862039,63.8391079 68.0861869,63.3159218 C67.6861105,62.7929142 67.1547171,62.5311725 66.4918879,62.5311725 C65.8432727,62.5311725 65.3202056,62.7894053 64.9225081,63.3052761 C64.5248105,63.8213849 64.3259915,64.5599235 64.3259915,65.5208921 L64.3259915,65.5208921 Z M63.0051504,65.3646559 C63.0051504,64.6119031 63.1530603,63.9349788 63.4489992,63.3336449 C63.744819,62.7325489 64.1567307,62.2684197 64.6846151,61.9417927 C65.2124401,61.6151062 65.814904,61.4517927 66.4918879,61.4517927 C67.538141,61.4517927 68.3844452,61.8139252 69.0306814,62.5383093 C69.6769176,63.2626338 69.9999762,64.2261597 69.9999762,65.4285896 L69.9999762,65.5208921 C69.9999762,66.2690654 69.8567647,66.9401614 69.5703415,67.5341206 C69.2839184,68.1283772 68.8744452,68.591198 68.3418029,68.9224639 C67.8092201,69.2539082 67.1972999,69.4195412 66.506102,69.4195412 C65.4645472,69.4195412 64.6206814,69.0573492 63.9744452,68.3330246 C63.3282685,67.6087001 63.0051504,66.6499915 63.0051504,65.4569584 L63.0051504,65.3646559 Z" id="Fill-62" fill="#30374B" mask="url(#mask-6)"></path>
            </g>
        </g>
    </g>
</svg>