<?xml version="1.0" encoding="utf-8"?>
<!-- Generator: Adobe Illustrator 23.0.1, SVG Export Plug-In . SVG Version: 6.00 Build 0)  -->
<svg version="1.1" id="Calque_1" xmlns="http://www.w3.org/2000/svg" xmlns:xlink="http://www.w3.org/1999/xlink" x="0px" y="0px"
	 viewBox="0 0 110 50" style="enable-background:new 0 0 110 50;" xml:space="preserve">
<style type="text/css">
	.st0{fill:#30374B;}
	.st1{fill:#F9C72C;}
</style>
<g>
	<g>
		<path class="st0" d="M26.31,32.12V19.93h4.18c1.38,0,2.43,0.28,3.15,0.83c0.72,0.55,1.08,1.38,1.08,2.47
			c0,0.56-0.15,1.06-0.45,1.51c-0.3,0.45-0.74,0.79-1.32,1.04c0.66,0.18,1.17,0.51,1.53,1.01c0.36,0.49,0.54,1.09,0.54,1.78
			c0,1.14-0.37,2.02-1.1,2.64c-0.73,0.61-1.78,0.92-3.15,0.92H26.31z M28.43,25.06h2.08c0.66,0,1.17-0.15,1.54-0.45
			s0.56-0.72,0.56-1.27c0-0.6-0.17-1.04-0.51-1.31c-0.34-0.27-0.88-0.4-1.6-0.4h-2.06V25.06z M28.43,26.62v3.81h2.35
			c0.66,0,1.18-0.16,1.56-0.49c0.37-0.33,0.56-0.79,0.56-1.37c0-1.27-0.65-1.91-1.94-1.94H28.43z"/>
		<path class="st0" d="M39.36,32.12h-2.11V19.93h2.11V32.12z"/>
		<path class="st0" d="M44.7,19.93l3.51,9.34l3.51-9.34h2.74v12.18h-2.11V28.1l0.21-5.37l-3.6,9.39h-1.51l-3.59-9.38l0.21,5.36v4.02
			h-2.11V19.93H44.7z"/>
		<path class="st0" d="M56.96,32.12V19.93h3.6c1.08,0,2.03,0.24,2.87,0.72c0.83,0.48,1.48,1.16,1.94,2.04
			c0.46,0.88,0.69,1.89,0.69,3.03v0.61c0,1.15-0.23,2.17-0.69,3.05c-0.46,0.88-1.12,1.55-1.97,2.03c-0.85,0.47-1.83,0.71-2.92,0.71
			H56.96z M59.08,21.64v8.79h1.38c1.11,0,1.96-0.35,2.56-1.04c0.59-0.69,0.9-1.69,0.91-2.99v-0.68c0-1.32-0.29-2.33-0.86-3.03
			c-0.57-0.7-1.41-1.05-2.5-1.05H59.08z"/>
		<path class="st0" d="M73.38,32.12c-0.09-0.17-0.17-0.45-0.23-0.85c-0.65,0.68-1.44,1.01-2.38,1.01c-0.91,0-1.65-0.26-2.23-0.78
			c-0.57-0.52-0.86-1.16-0.86-1.92c0-0.97,0.36-1.71,1.08-2.22c0.72-0.52,1.74-0.77,3.08-0.77h1.25v-0.59
			c0-0.47-0.13-0.84-0.39-1.13c-0.26-0.28-0.66-0.42-1.2-0.42c-0.46,0-0.84,0.12-1.14,0.35s-0.44,0.53-0.44,0.88h-2.03
			c0-0.5,0.16-0.96,0.49-1.39c0.33-0.43,0.78-0.77,1.34-1.02c0.57-0.25,1.2-0.37,1.9-0.37c1.06,0,1.91,0.27,2.54,0.8
			s0.95,1.28,0.97,2.25v4.08c0,0.81,0.11,1.46,0.34,1.95v0.14H73.38z M71.14,30.65c0.4,0,0.78-0.1,1.13-0.29
			c0.35-0.2,0.62-0.46,0.8-0.79v-1.71h-1.1c-0.75,0-1.32,0.13-1.7,0.39s-0.57,0.63-0.57,1.11c0,0.39,0.13,0.7,0.39,0.93
			S70.71,30.65,71.14,30.65z"/>
		<path class="st0" d="M79.79,20.86v2.2h1.6v1.51h-1.6v5.05c0,0.35,0.07,0.6,0.21,0.75c0.14,0.15,0.38,0.23,0.73,0.23
			c0.23,0,0.47-0.03,0.71-0.08v1.57c-0.46,0.13-0.91,0.19-1.34,0.19c-1.56,0-2.34-0.86-2.34-2.59v-5.13h-1.49v-1.51h1.49v-2.2H79.79
			z"/>
		<path class="st0" d="M88.35,32.12c-0.09-0.17-0.17-0.45-0.23-0.85c-0.65,0.68-1.44,1.01-2.38,1.01c-0.91,0-1.65-0.26-2.23-0.78
			c-0.57-0.52-0.86-1.16-0.86-1.92c0-0.97,0.36-1.71,1.08-2.22c0.72-0.52,1.74-0.77,3.08-0.77h1.25v-0.59
			c0-0.47-0.13-0.84-0.39-1.13c-0.26-0.28-0.66-0.42-1.2-0.42c-0.46,0-0.84,0.12-1.14,0.35s-0.44,0.53-0.44,0.88h-2.03
			c0-0.5,0.16-0.96,0.49-1.39c0.33-0.43,0.78-0.77,1.34-1.02c0.57-0.25,1.2-0.37,1.9-0.37c1.06,0,1.91,0.27,2.54,0.8
			s0.95,1.28,0.97,2.25v4.08c0,0.81,0.11,1.46,0.34,1.95v0.14H88.35z M86.11,30.65c0.4,0,0.78-0.1,1.13-0.29
			c0.35-0.2,0.62-0.46,0.8-0.79v-1.71h-1.1c-0.75,0-1.32,0.13-1.7,0.39s-0.57,0.63-0.57,1.11c0,0.39,0.13,0.7,0.39,0.93
			S85.68,30.65,86.11,30.65z"/>
		<path class="st0" d="M93.48,29.97c0.38,0,0.67,0.11,0.88,0.32s0.31,0.48,0.31,0.81c0,0.32-0.1,0.58-0.31,0.79
			c-0.21,0.21-0.5,0.31-0.88,0.31c-0.36,0-0.65-0.1-0.86-0.31c-0.21-0.21-0.32-0.47-0.32-0.8c0-0.32,0.1-0.59,0.31-0.81
			C92.81,30.08,93.1,29.97,93.48,29.97z"/>
		<path class="st0" d="M97,20.71c0-0.31,0.1-0.57,0.3-0.78c0.2-0.21,0.48-0.31,0.85-0.31c0.37,0,0.65,0.1,0.85,0.31
			c0.2,0.21,0.3,0.47,0.3,0.78c0,0.31-0.1,0.56-0.3,0.77c-0.2,0.2-0.49,0.31-0.85,0.31c-0.37,0-0.65-0.1-0.85-0.31
			C97.1,21.27,97,21.02,97,20.71z M99.16,32.12h-2.03v-9.05h2.03V32.12z"/>
		<path class="st0" d="M100.99,27.51c0-0.89,0.18-1.69,0.53-2.4c0.35-0.71,0.85-1.26,1.48-1.64c0.64-0.38,1.37-0.57,2.19-0.57
			c1.22,0,2.21,0.39,2.98,1.18c0.76,0.79,1.17,1.83,1.23,3.13l0.01,0.48c0,0.89-0.17,1.69-0.51,2.39s-0.83,1.25-1.47,1.63
			s-1.38,0.58-2.21,0.58c-1.28,0-2.3-0.43-3.07-1.28s-1.15-1.98-1.15-3.4V27.51z M103.03,27.68c0,0.93,0.19,1.66,0.58,2.19
			s0.92,0.79,1.61,0.79c0.69,0,1.22-0.27,1.6-0.8c0.38-0.54,0.57-1.32,0.57-2.35c0-0.91-0.2-1.64-0.59-2.18
			c-0.39-0.54-0.93-0.8-1.6-0.8c-0.66,0-1.19,0.26-1.58,0.79C103.22,25.84,103.03,26.63,103.03,27.68z"/>
	</g>
	<polygon class="st1" points="12.62,14.47 12.62,15.94 17.36,12.92 17.36,38.78 7.84,38.78 7.84,36.65 6.6,36.65 6.6,40.02 
		18.6,40.02 18.6,10.66 	"/>
	<polygon class="st1" points="2.85,13.93 2.85,20.71 4.09,19.91 4.09,19.91 4.09,14.78 4.09,14.61 11.38,9.95 11.38,14.78 
		11.38,15.26 11.38,15.26 12.62,14.47 12.62,7.69 	"/>
	<path class="st0" d="M0.82,22v14.65h11.8V14.47L0.82,22z M11.38,35.4H2.06V22.68l9.32-5.94V35.4z"/>
</g>
<g>
	<path class="st1" d="M66.05,35.05c0.53-0.1,1.26-0.17,2.26-0.17c1.08,0,1.87,0.23,2.39,0.66c0.48,0.4,0.79,1.03,0.79,1.79
		c0,0.77-0.24,1.41-0.7,1.84c-0.59,0.59-1.51,0.86-2.56,0.86c-0.28,0-0.53-0.01-0.72-0.05v3.05h-1.47V35.05z M67.52,38.83
		c0.18,0.05,0.42,0.06,0.72,0.06c1.11,0,1.78-0.54,1.78-1.49c0-0.9-0.63-1.38-1.65-1.38c-0.41,0-0.7,0.04-0.85,0.07V38.83z"/>
	<path class="st1" d="M72.68,34.51h1.49v8.53h-1.49V34.51z"/>
	<path class="st1" d="M79.06,43.04l-0.1-0.65h-0.04c-0.36,0.46-0.97,0.78-1.73,0.78c-1.18,0-1.84-0.85-1.84-1.74
		c0-1.48,1.31-2.22,3.47-2.21v-0.1c0-0.38-0.16-1.02-1.19-1.02c-0.58,0-1.18,0.18-1.57,0.43l-0.29-0.96
		c0.43-0.26,1.19-0.52,2.11-0.52c1.87,0,2.42,1.19,2.42,2.46v2.11c0,0.53,0.02,1.05,0.08,1.41H79.06z M78.87,40.18
		c-1.04-0.02-2.04,0.2-2.04,1.09c0,0.58,0.37,0.84,0.84,0.84c0.59,0,1.02-0.38,1.15-0.81c0.04-0.11,0.05-0.23,0.05-0.32V40.18z"/>
	<path class="st1" d="M83.5,35.52v1.67h1.41v1.11H83.5v2.58c0,0.71,0.19,1.08,0.76,1.08c0.25,0,0.44-0.04,0.58-0.07l0.02,1.13
		c-0.22,0.08-0.6,0.14-1.07,0.14c-0.54,0-1-0.18-1.27-0.48c-0.31-0.34-0.46-0.86-0.46-1.63V38.3h-0.84v-1.11h0.84v-1.32L83.5,35.52z
		"/>
	<path class="st1" d="M86.19,43.04V38.3H85.4v-1.11h0.79v-0.25c0-0.76,0.2-1.51,0.71-1.99c0.43-0.41,1.02-0.57,1.53-0.57
		c0.4,0,0.71,0.06,0.95,0.14l-0.11,1.14c-0.16-0.06-0.36-0.11-0.63-0.11c-0.73,0-0.99,0.61-0.99,1.33v0.3h1.29v1.11h-1.27v4.75
		H86.19z"/>
	<path class="st1" d="M95.29,40.06c0,2.15-1.51,3.11-3,3.11c-1.66,0-2.93-1.14-2.93-3.02c0-1.92,1.26-3.1,3.03-3.1
		C94.12,37.06,95.29,38.29,95.29,40.06z M90.88,40.12c0,1.13,0.55,1.98,1.45,1.98c0.84,0,1.43-0.83,1.43-2.01
		c0-0.91-0.41-1.96-1.42-1.96C91.3,38.14,90.88,39.15,90.88,40.12z"/>
	<path class="st1" d="M96.51,39.08c0-0.79-0.01-1.36-0.05-1.89h1.29l0.05,1.12h0.05c0.29-0.83,0.97-1.25,1.6-1.25
		c0.14,0,0.23,0.01,0.35,0.04v1.39c-0.12-0.02-0.25-0.05-0.43-0.05c-0.71,0-1.19,0.46-1.32,1.12c-0.02,0.13-0.05,0.29-0.05,0.46
		v3.03h-1.48V39.08z"/>
	<path class="st1" d="M100.78,38.94c0-0.67-0.01-1.24-0.05-1.74h1.27l0.06,0.87h0.04c0.29-0.46,0.82-1,1.8-1
		c0.77,0,1.37,0.43,1.62,1.08h0.02c0.2-0.32,0.45-0.57,0.72-0.73c0.32-0.23,0.7-0.35,1.18-0.35c0.97,0,1.96,0.66,1.96,2.54v3.45
		h-1.44v-3.23c0-0.97-0.34-1.55-1.05-1.55c-0.5,0-0.88,0.36-1.03,0.78c-0.04,0.14-0.07,0.32-0.07,0.49v3.51h-1.44v-3.39
		c0-0.82-0.32-1.39-1.01-1.39c-0.55,0-0.93,0.43-1.06,0.84c-0.06,0.14-0.08,0.31-0.08,0.48v3.46h-1.44V38.94z"/>
</g>
</svg>
