<?xml version="1.0" encoding="utf-8"?>
<!-- Generator: Adobe Illustrator 23.0.1, SVG Export Plug-In . SVG Version: 6.00 Build 0)  -->
<svg version="1.1" id="Calque_1" xmlns="http://www.w3.org/2000/svg" xmlns:xlink="http://www.w3.org/1999/xlink" x="0px" y="0px"
	 viewBox="0 0 100 100" style="enable-background:new 0 0 100 100;" xml:space="preserve">
<style type="text/css">
	.st0{fill:#F9C72C;}
	.st1{fill:#FFFFFF;}
</style>
<polygon class="st0" points="58.46,22.74 58.46,27.02 72.22,18.24 72.22,93.36 44.57,93.36 44.57,87.16 40.96,87.16 40.96,96.97 
	75.83,96.97 75.83,11.66 "/>
<polygon class="st0" points="30.06,21.16 30.06,40.86 33.67,38.55 33.67,38.55 33.67,23.64 33.67,23.13 54.85,9.61 54.85,23.64 
	54.85,25.04 54.85,25.04 58.46,22.74 58.46,3.03 "/>
<path class="st1" d="M24.17,44.61v42.55h34.29V22.74L24.17,44.61z M54.85,83.55H27.78V46.59l27.07-17.27V83.55z"/>
</svg>
