<?xml version="1.0" encoding="utf-8"?>
<!-- Generator: Adobe Illustrator 23.0.1, SVG Export Plug-In . SVG Version: 6.00 Build 0)  -->
<svg version="1.1" id="Calque_1" xmlns="http://www.w3.org/2000/svg" xmlns:xlink="http://www.w3.org/1999/xlink" x="0px" y="0px"
	 viewBox="0 0 487.59 145.16" style="enable-background:new 0 0 487.59 145.16;" xml:space="preserve">
<style type="text/css">
	.st0{fill:#30374B;}
	.st1{fill:#F9C72C;}
</style>
<g>
	<path class="st0" d="M116.81,108.99V55.27h18.41c6.07,0,10.7,1.22,13.87,3.65c3.17,2.43,4.76,6.06,4.76,10.88
		c0,2.46-0.66,4.67-1.99,6.64c-1.33,1.97-3.27,3.49-5.83,4.57c2.9,0.79,5.15,2.27,6.73,4.45s2.38,4.79,2.38,7.84
		c0,5.04-1.62,8.92-4.85,11.62c-3.23,2.71-7.86,4.06-13.89,4.06H116.81z M126.14,77.89h9.15c2.9,0,5.17-0.66,6.81-1.97
		c1.64-1.32,2.45-3.18,2.45-5.59c0-2.66-0.76-4.57-2.27-5.76c-1.51-1.18-3.87-1.77-7.06-1.77h-9.08V77.89z M126.14,84.75v16.79
		h10.37c2.93,0,5.21-0.73,6.86-2.18c1.65-1.45,2.47-3.47,2.47-6.05c0-5.58-2.85-8.44-8.56-8.56H126.14z"/>
	<path class="st0" d="M174.32,108.99h-9.3V55.27h9.3V108.99z"/>
	<path class="st0" d="M197.9,55.27l15.49,41.17l15.46-41.17h12.06v53.71h-9.3V91.28l0.92-23.68l-15.86,41.39H210l-15.83-41.36
		l0.92,23.65v17.71h-9.3V55.27H197.9z"/>
	<path class="st0" d="M251.94,108.99V55.27h15.86c4.75,0,8.96,1.06,12.64,3.17c3.68,2.12,6.52,5.12,8.54,9
		c2.02,3.89,3.03,8.34,3.03,13.35v2.69c0,5.09-1.01,9.57-3.04,13.43c-2.03,3.86-4.92,6.84-8.67,8.93s-8.05,3.14-12.89,3.14H251.94z
		 M261.28,62.8v38.74h6.09c4.89,0,8.65-1.53,11.27-4.59c2.62-3.06,3.95-7.46,4-13.19v-2.99c0-5.83-1.27-10.28-3.8-13.35
		c-2.53-3.07-6.21-4.61-11.03-4.61H261.28z"/>
	<path class="st0" d="M324.29,108.99c-0.39-0.76-0.74-2-1.03-3.73c-2.85,2.98-6.35,4.46-10.48,4.46c-4.01,0-7.28-1.14-9.81-3.43
		c-2.53-2.29-3.8-5.12-3.8-8.49c0-4.25,1.58-7.52,4.74-9.79c3.16-2.28,7.68-3.41,13.56-3.41h5.5v-2.62c0-2.07-0.58-3.72-1.73-4.96
		c-1.16-1.24-2.91-1.86-5.28-1.86c-2.04,0-3.71,0.51-5.02,1.53c-1.3,1.02-1.96,2.32-1.96,3.89h-8.96c0-2.19,0.73-4.24,2.18-6.14
		c1.45-1.91,3.42-3.4,5.92-4.48c2.5-1.08,5.28-1.62,8.36-1.62c4.67,0,8.4,1.17,11.18,3.52c2.78,2.35,4.21,5.65,4.28,9.91v18
		c0,3.59,0.5,6.46,1.51,8.6v0.63H324.29z M314.44,102.53c1.77,0,3.44-0.43,5-1.29c1.56-0.86,2.74-2.02,3.52-3.47v-7.53h-4.83
		c-3.32,0-5.82,0.58-7.49,1.73c-1.67,1.16-2.51,2.79-2.51,4.91c0,1.72,0.57,3.09,1.72,4.11
		C310.99,102.02,312.52,102.53,314.44,102.53z"/>
	<path class="st0" d="M352.55,59.37v9.7h7.05v6.64h-7.05v22.28c0,1.52,0.3,2.63,0.9,3.3s1.68,1.01,3.23,1.01
		c1.03,0,2.08-0.12,3.14-0.37v6.94c-2.04,0.57-4.01,0.85-5.9,0.85c-6.89,0-10.33-3.8-10.33-11.4V75.71h-6.57v-6.64h6.57v-9.7H352.55
		z"/>
	<path class="st0" d="M390.29,108.99c-0.39-0.76-0.74-2-1.03-3.73c-2.85,2.98-6.35,4.46-10.48,4.46c-4.01,0-7.28-1.14-9.81-3.43
		c-2.53-2.29-3.8-5.12-3.8-8.49c0-4.25,1.58-7.52,4.74-9.79c3.16-2.28,7.68-3.41,13.56-3.41h5.5v-2.62c0-2.07-0.58-3.72-1.73-4.96
		c-1.16-1.24-2.91-1.86-5.28-1.86c-2.04,0-3.71,0.51-5.02,1.53c-1.3,1.02-1.96,2.32-1.96,3.89h-8.96c0-2.19,0.73-4.24,2.18-6.14
		c1.45-1.91,3.42-3.4,5.92-4.48c2.5-1.08,5.28-1.62,8.36-1.62c4.67,0,8.4,1.17,11.18,3.52c2.78,2.35,4.21,5.65,4.28,9.91v18
		c0,3.59,0.5,6.46,1.51,8.6v0.63H390.29z M380.44,102.53c1.77,0,3.44-0.43,5-1.29c1.56-0.86,2.74-2.02,3.52-3.47v-7.53h-4.83
		c-3.32,0-5.82,0.58-7.49,1.73c-1.67,1.16-2.51,2.79-2.51,4.91c0,1.72,0.57,3.09,1.72,4.11
		C376.99,102.02,378.52,102.53,380.44,102.53z"/>
	<path class="st0" d="M412.9,99.54c1.67,0,2.96,0.47,3.87,1.42c0.91,0.95,1.37,2.13,1.37,3.56c0,1.4-0.46,2.56-1.37,3.49
		c-0.91,0.92-2.2,1.38-3.87,1.38c-1.6,0-2.87-0.46-3.8-1.36c-0.93-0.91-1.4-2.08-1.4-3.5c0-1.43,0.45-2.61,1.36-3.56
		C409.98,100.02,411.26,99.54,412.9,99.54z"/>
	<path class="st0" d="M428.44,58.7c0-1.38,0.44-2.52,1.31-3.43c0.87-0.91,2.12-1.37,3.74-1.37c1.62,0,2.88,0.46,3.76,1.37
		c0.89,0.91,1.33,2.05,1.33,3.43c0,1.35-0.44,2.48-1.33,3.38s-2.14,1.35-3.76,1.35c-1.62,0-2.87-0.45-3.74-1.35
		C428.87,61.18,428.44,60.06,428.44,58.7z M437.95,108.99h-8.96V69.07h8.96V108.99z"/>
	<path class="st0" d="M446.03,88.66c0-3.91,0.77-7.43,2.32-10.57c1.55-3.14,3.73-5.55,6.53-7.23c2.8-1.68,6.03-2.53,9.67-2.53
		c5.39,0,9.76,1.73,13.12,5.2c3.36,3.47,5.17,8.07,5.44,13.8l0.04,2.1c0,3.94-0.76,7.45-2.27,10.55c-1.51,3.1-3.68,5.5-6.49,7.19
		s-6.07,2.55-9.76,2.55c-5.63,0-10.14-1.88-13.52-5.63s-5.07-8.75-5.07-15V88.66z M455,89.44c0,4.11,0.85,7.32,2.55,9.65
		c1.7,2.32,4.06,3.49,7.08,3.49s5.38-1.18,7.06-3.54c1.68-2.36,2.53-5.82,2.53-10.37c0-4.03-0.87-7.23-2.6-9.59
		c-1.73-2.36-4.09-3.54-7.06-3.54c-2.93,0-5.25,1.16-6.97,3.49S455,84.81,455,89.44z"/>
</g>
<polygon class="st1" points="56.47,31.2 56.47,37.7 77.34,24.38 77.34,138.36 35.39,138.36 35.39,128.96 29.92,128.96 29.92,143.83 
	82.82,143.83 82.82,14.39 "/>
<polygon class="st1" points="13.38,28.8 13.38,58.69 18.85,55.2 18.85,55.2 18.85,32.57 18.85,31.8 51,11.29 51,32.57 51,34.69 
	51,34.69 56.47,31.2 56.47,1.3 "/>
<path class="st0" d="M4.45,64.39v64.57h52.03V31.2L4.45,64.39z M51,123.48H9.92V67.39L51,41.19V123.48z"/>
</svg>
