<?xml version="1.0" encoding="UTF-8"?>
<svg width="747px" height="650px" viewBox="0 0 747 650" version="1.1" xmlns="http://www.w3.org/2000/svg" xmlns:xlink="http://www.w3.org/1999/xlink">
    <!-- Generator: Sketch 55.2 (78181) - https://sketchapp.com -->
    <title>Group 2</title>
    <desc>Created with Sketch.</desc>
    <defs>
        <path d="M727,34.3159414 L727,26.6859597 L-5.68434189e-14,26.6859597 L-5.68434189e-14,41.9459231 L-5.68434189e-14,9 C-5.56757804e-14,4.02943725 4.02943725,-9.03252554e-13 9,-9.05941988e-13 L718,-9.05941988e-13 C722.970563,-9.05078709e-13 727,4.02943725 727,9 L727,34.3159414 Z" id="path-1"></path>
        <filter x="-2.2%" y="-35.0%" width="104.4%" height="184.7%" filterUnits="objectBoundingBox" id="filter-2">
            <feOffset dx="0" dy="2" in="SourceAlpha" result="shadowOffsetOuter1"></feOffset>
            <feGaussianBlur stdDeviation="5" in="shadowOffsetOuter1" result="shadowBlurOuter1"></feGaussianBlur>
            <feColorMatrix values="0 0 0 0 0   0 0 0 0 0   0 0 0 0 0  0 0 0 0.1 0" type="matrix" in="shadowBlurOuter1"></feColorMatrix>
        </filter>
        <polygon id="path-3" points="640.405044 54.2081481 659.57316 54.2081481 659.57316 35.0302288 640.405044 35.0302288"></polygon>
        <filter x="-83.5%" y="-73.0%" width="266.9%" height="266.9%" filterUnits="objectBoundingBox" id="filter-4">
            <feOffset dx="0" dy="2" in="SourceAlpha" result="shadowOffsetOuter1"></feOffset>
            <feGaussianBlur stdDeviation="5" in="shadowOffsetOuter1" result="shadowBlurOuter1"></feGaussianBlur>
            <feColorMatrix values="0 0 0 0 0   0 0 0 0 0   0 0 0 0 0  0 0 0 0.1 0" type="matrix" in="shadowBlurOuter1"></feColorMatrix>
        </filter>
        <polygon id="path-5" points="616.62263 54.2081481 635.790747 54.2081481 635.790747 35.0302288 616.62263 35.0302288"></polygon>
        <filter x="-83.5%" y="-73.0%" width="266.9%" height="266.9%" filterUnits="objectBoundingBox" id="filter-6">
            <feOffset dx="0" dy="2" in="SourceAlpha" result="shadowOffsetOuter1"></feOffset>
            <feGaussianBlur stdDeviation="5" in="shadowOffsetOuter1" result="shadowBlurOuter1"></feGaussianBlur>
            <feColorMatrix values="0 0 0 0 0   0 0 0 0 0   0 0 0 0 0  0 0 0 0.1 0" type="matrix" in="shadowBlurOuter1"></feColorMatrix>
        </filter>
        <polygon id="path-7" points="13.5558824 54.2081481 103.96325 54.2081481 103.96325 35.0302288 13.5558824 35.0302288"></polygon>
        <filter x="-17.7%" y="-73.0%" width="135.4%" height="266.9%" filterUnits="objectBoundingBox" id="filter-8">
            <feOffset dx="0" dy="2" in="SourceAlpha" result="shadowOffsetOuter1"></feOffset>
            <feGaussianBlur stdDeviation="5" in="shadowOffsetOuter1" result="shadowBlurOuter1"></feGaussianBlur>
            <feColorMatrix values="0 0 0 0 0   0 0 0 0 0   0 0 0 0 0  0 0 0 0.1 0" type="matrix" in="shadowBlurOuter1"></feColorMatrix>
        </filter>
        <polygon id="path-9" points="111.621497 54.2081481 202.026615 54.2081481 202.026615 35.0302288 111.621497 35.0302288"></polygon>
        <filter x="-17.7%" y="-73.0%" width="135.4%" height="266.9%" filterUnits="objectBoundingBox" id="filter-10">
            <feOffset dx="0" dy="2" in="SourceAlpha" result="shadowOffsetOuter1"></feOffset>
            <feGaussianBlur stdDeviation="5" in="shadowOffsetOuter1" result="shadowBlurOuter1"></feGaussianBlur>
            <feColorMatrix values="0 0 0 0 0   0 0 0 0 0   0 0 0 0 0  0 0 0 0.1 0" type="matrix" in="shadowBlurOuter1"></feColorMatrix>
        </filter>
        <polygon id="path-11" points="501.447447 308.338665 714.629751 308.338665 714.629751 64.928864 501.447447 64.928864"></polygon>
        <filter x="-7.5%" y="-5.8%" width="115.0%" height="113.1%" filterUnits="objectBoundingBox" id="filter-12">
            <feOffset dx="0" dy="2" in="SourceAlpha" result="shadowOffsetOuter1"></feOffset>
            <feGaussianBlur stdDeviation="5" in="shadowOffsetOuter1" result="shadowBlurOuter1"></feGaussianBlur>
            <feColorMatrix values="0 0 0 0 0   0 0 0 0 0   0 0 0 0 0  0 0 0 0.1 0" type="matrix" in="shadowBlurOuter1"></feColorMatrix>
        </filter>
        <polygon id="path-13" points="501.447447 101.989658 714.629751 101.989658 714.629751 83.458135 501.447447 83.458135"></polygon>
        <filter x="-7.5%" y="-75.5%" width="115.0%" height="272.7%" filterUnits="objectBoundingBox" id="filter-14">
            <feOffset dx="0" dy="2" in="SourceAlpha" result="shadowOffsetOuter1"></feOffset>
            <feGaussianBlur stdDeviation="5" in="shadowOffsetOuter1" result="shadowBlurOuter1"></feGaussianBlur>
            <feColorMatrix values="0 0 0 0 0   0 0 0 0 0   0 0 0 0 0  0 0 0 0.1 0" type="matrix" in="shadowBlurOuter1"></feColorMatrix>
        </filter>
        <polygon id="path-15" points="13.2611614 306.385963 478.060994 306.385963 478.060994 64.9266118 13.2611614 64.9266118"></polygon>
        <filter x="-3.4%" y="-5.8%" width="106.9%" height="113.3%" filterUnits="objectBoundingBox" id="filter-16">
            <feOffset dx="0" dy="2" in="SourceAlpha" result="shadowOffsetOuter1"></feOffset>
            <feGaussianBlur stdDeviation="5" in="shadowOffsetOuter1" result="shadowBlurOuter1"></feGaussianBlur>
            <feColorMatrix values="0 0 0 0 0   0 0 0 0 0   0 0 0 0 0  0 0 0 0.1 0" type="matrix" in="shadowBlurOuter1"></feColorMatrix>
        </filter>
        <polygon id="path-17" points="19.198328 299.041372 193.967907 299.041372 193.967907 255.606706 19.198328 255.606706"></polygon>
        <filter x="-9.2%" y="-32.2%" width="118.3%" height="173.7%" filterUnits="objectBoundingBox" id="filter-18">
            <feOffset dx="0" dy="2" in="SourceAlpha" result="shadowOffsetOuter1"></feOffset>
            <feGaussianBlur stdDeviation="5" in="shadowOffsetOuter1" result="shadowBlurOuter1"></feGaussianBlur>
            <feColorMatrix values="0 0 0 0 0   0 0 0 0 0   0 0 0 0 0  0 0 0 0.1 0" type="matrix" in="shadowBlurOuter1"></feColorMatrix>
        </filter>
        <polygon id="path-19" points="1.30739863e-12 37.0607942 701.36859 37.0607942 701.36859 18.529271 1.30739863e-12 18.529271"></polygon>
        <filter x="-2.3%" y="-75.5%" width="104.6%" height="272.7%" filterUnits="objectBoundingBox" id="filter-20">
            <feOffset dx="0" dy="2" in="SourceAlpha" result="shadowOffsetOuter1"></feOffset>
            <feGaussianBlur stdDeviation="5" in="shadowOffsetOuter1" result="shadowBlurOuter1"></feGaussianBlur>
            <feColorMatrix values="0 0 0 0 0   0 0 0 0 0   0 0 0 0 0  0 0 0 0.1 0" type="matrix" in="shadowBlurOuter1"></feColorMatrix>
        </filter>
        <polygon id="path-21" points="5.95291512 62.8963682 24.4640964 62.8963682 24.4640964 44.364845 5.95291512 44.364845"></polygon>
        <filter x="-86.4%" y="-75.5%" width="272.9%" height="272.7%" filterUnits="objectBoundingBox" id="filter-22">
            <feOffset dx="0" dy="2" in="SourceAlpha" result="shadowOffsetOuter1"></feOffset>
            <feGaussianBlur stdDeviation="5" in="shadowOffsetOuter1" result="shadowBlurOuter1"></feGaussianBlur>
            <feColorMatrix values="0 0 0 0 0   0 0 0 0 0   0 0 0 0 0  0 0 0 0.1 0" type="matrix" in="shadowBlurOuter1"></feColorMatrix>
        </filter>
        <polygon id="path-23" points="129.758251 62.8963682 148.269432 62.8963682 148.269432 44.364845 129.758251 44.364845"></polygon>
        <filter x="-86.4%" y="-75.5%" width="272.9%" height="272.7%" filterUnits="objectBoundingBox" id="filter-24">
            <feOffset dx="0" dy="2" in="SourceAlpha" result="shadowOffsetOuter1"></feOffset>
            <feGaussianBlur stdDeviation="5" in="shadowOffsetOuter1" result="shadowBlurOuter1"></feGaussianBlur>
            <feColorMatrix values="0 0 0 0 0   0 0 0 0 0   0 0 0 0 0  0 0 0 0.1 0" type="matrix" in="shadowBlurOuter1"></feColorMatrix>
        </filter>
        <polygon id="path-25" points="30.8309708 62.8963682 123.818835 62.8963682 123.818835 44.364845 30.8309708 44.364845"></polygon>
        <filter x="-17.2%" y="-75.5%" width="134.4%" height="272.7%" filterUnits="objectBoundingBox" id="filter-26">
            <feOffset dx="0" dy="2" in="SourceAlpha" result="shadowOffsetOuter1"></feOffset>
            <feGaussianBlur stdDeviation="5" in="shadowOffsetOuter1" result="shadowBlurOuter1"></feGaussianBlur>
            <feColorMatrix values="0 0 0 0 0   0 0 0 0 0   0 0 0 0 0  0 0 0 0.1 0" type="matrix" in="shadowBlurOuter1"></feColorMatrix>
        </filter>
        <polygon id="path-27" points="154.697051 62.8963682 331.041475 62.8963682 331.041475 44.364845 154.697051 44.364845"></polygon>
        <filter x="-9.1%" y="-75.5%" width="118.1%" height="272.7%" filterUnits="objectBoundingBox" id="filter-28">
            <feOffset dx="0" dy="2" in="SourceAlpha" result="shadowOffsetOuter1"></feOffset>
            <feGaussianBlur stdDeviation="5" in="shadowOffsetOuter1" result="shadowBlurOuter1"></feGaussianBlur>
            <feColorMatrix values="0 0 0 0 0   0 0 0 0 0   0 0 0 0 0  0 0 0 0.1 0" type="matrix" in="shadowBlurOuter1"></feColorMatrix>
        </filter>
        <polygon id="path-29" points="6.14414633 235.243138 148.269432 235.243138 148.269432 70.2004189 6.14414633 70.2004189"></polygon>
        <filter x="-11.3%" y="-8.5%" width="122.5%" height="119.4%" filterUnits="objectBoundingBox" id="filter-30">
            <feOffset dx="0" dy="2" in="SourceAlpha" result="shadowOffsetOuter1"></feOffset>
            <feGaussianBlur stdDeviation="5" in="shadowOffsetOuter1" result="shadowBlurOuter1"></feGaussianBlur>
            <feColorMatrix values="0 0 0 0 0   0 0 0 0 0   0 0 0 0 0  0 0 0 0.1 0" type="matrix" in="shadowBlurOuter1"></feColorMatrix>
        </filter>
        <polygon id="path-31" points="154.697051 126.82652 693.417871 126.82652 693.417871 102.166621 154.697051 102.166621"></polygon>
        <filter x="-3.0%" y="-56.8%" width="105.9%" height="229.8%" filterUnits="objectBoundingBox" id="filter-32">
            <feOffset dx="0" dy="2" in="SourceAlpha" result="shadowOffsetOuter1"></feOffset>
            <feGaussianBlur stdDeviation="5" in="shadowOffsetOuter1" result="shadowBlurOuter1"></feGaussianBlur>
            <feColorMatrix values="0 0 0 0 0   0 0 0 0 0   0 0 0 0 0  0 0 0 0.1 0" type="matrix" in="shadowBlurOuter1"></feColorMatrix>
        </filter>
        <polygon id="path-33" points="154.366655 157.510547 693.087475 157.510547 693.087475 132.850648 154.366655 132.850648"></polygon>
        <filter x="-3.0%" y="-56.8%" width="105.9%" height="229.8%" filterUnits="objectBoundingBox" id="filter-34">
            <feOffset dx="0" dy="2" in="SourceAlpha" result="shadowOffsetOuter1"></feOffset>
            <feGaussianBlur stdDeviation="5" in="shadowOffsetOuter1" result="shadowBlurOuter1"></feGaussianBlur>
            <feColorMatrix values="0 0 0 0 0   0 0 0 0 0   0 0 0 0 0  0 0 0 0.1 0" type="matrix" in="shadowBlurOuter1"></feColorMatrix>
        </filter>
    </defs>
    <g id="Page-1" stroke="none" stroke-width="1" fill="none" fill-rule="evenodd">
        <g id="Artboard" transform="translate(-1649.000000, -119.000000)">
            <g id="Group-2" transform="translate(1659.000000, 127.000000)">
                <rect id="Rectangle" fill="#F1F1F1" x="-5.68434189e-14" y="-1.25055521e-12" width="727" height="641.676031" rx="9"></rect>
                <g id="Combined-Shape">
                    <use fill="black" fill-opacity="1" filter="url(#filter-2)" xlink:href="#path-1"></use>
                    <use fill="#FFFFFF" fill-rule="evenodd" xlink:href="#path-1"></use>
                </g>
                <path d="M27.5513073,14.4471299 L27.5513073,16.2264084 L28.6469497,16.2264084 C28.9574192,16.2264084 29.2003953,16.1498319 29.3758781,15.9944265 C29.5491111,15.8412735 29.6368524,15.6273096 29.6368524,15.3547872 C29.6368524,14.7624451 29.3353821,14.4606434 28.7301915,14.4471299 L27.5513073,14.4471299 Z M27.5513073,13.7196528 L28.5209621,13.7196528 C28.826932,13.7196528 29.0676584,13.649833 29.2408913,13.5101934 C29.4141243,13.3705538 29.4996159,13.174608 29.4996159,12.9178513 C29.4996159,12.6363199 29.4186239,12.4336173 29.2611393,12.3074913 C29.0991553,12.1836174 28.8494298,12.1205544 28.511963,12.1205544 L27.5513073,12.1205544 L27.5513073,13.7196528 Z M26.5636544,17.0169486 L26.5636544,11.3232575 L28.511963,11.3232575 C29.1553997,11.3232575 29.6458515,11.4516358 29.9810686,11.7106447 C30.3162857,11.9674013 30.4850191,12.3525363 30.4850191,12.8637973 C30.4850191,13.1250585 30.4130262,13.3592926 30.2735399,13.5664997 C30.1318038,13.7759591 29.9270739,13.9381212 29.6571004,14.052986 C29.9630704,14.1363193 30.2015469,14.2939769 30.3680306,14.5237065 C30.536764,14.7534361 30.6200058,15.030463 30.6200058,15.3547872 C30.6200058,15.8885707 30.4490226,16.2984805 30.1070562,16.5867686 C29.7650898,16.8728045 29.274638,17.0169486 28.6357008,17.0169486 L26.5636544,17.0169486 Z" id="Fill-3" fill="#30374B"></path>
                <polygon id="Fill-5" fill="#30374B" points="31.666603 17.0167234 32.6497564 17.0167234 32.6497564 11.3230322 31.666603 11.3230322"></polygon>
                <polygon id="Fill-7" fill="#30374B" points="35.1465611 11.322807 36.78665 15.6854177 38.424489 11.322807 39.7001137 11.322807 39.7001137 17.0164982 38.7169603 17.0164982 38.7169603 15.1381206 38.8159506 12.6291127 37.1353657 17.0164982 36.4266853 17.0164982 34.7528498 12.6336172 34.8495903 15.1381206 34.8495903 17.0164982 33.8664369 17.0164982 33.8664369 11.322807"></polygon>
                <path d="M41.8563019,12.1212301 L41.8563019,16.2270841 L42.5019884,16.2270841 C43.0216874,16.2270841 43.4176485,16.0626698 43.6943713,15.7383456 C43.9710941,15.4140214 44.1128302,14.9478054 44.1195795,14.3419498 L44.1195795,14.0243824 C44.1195795,13.4072655 43.9845927,12.9342928 43.7168691,12.6099686 C43.4491454,12.2833922 43.0576838,12.1212301 42.5492338,12.1212301 L41.8563019,12.1212301 Z M40.8708987,17.015372 L40.8708987,11.3239331 L42.5492338,11.3239331 C43.0509345,11.3239331 43.4963907,11.4342935 43.8856025,11.6595186 C44.2748142,11.8847437 44.5762846,12.2023111 44.7900136,12.6144731 C45.0037426,13.0243828 45.1094822,13.4973556 45.1094822,14.0288869 L45.1094822,14.3149228 C45.1094822,14.8532108 45.0014928,15.3284358 44.7900136,15.7360933 C44.5740348,16.146003 44.2680649,16.4613182 43.8721038,16.6842911 C43.4738929,16.9050117 43.0194376,17.015372 42.506488,17.015372 L40.8708987,17.015372 Z" id="Fill-8" fill="#30374B"></path>
                <path d="M47.4852488,16.3322642 C47.6719805,16.3322642 47.849713,16.2849669 48.0139469,16.1948769 C48.1804305,16.1025346 48.3041683,15.980913 48.3874102,15.8277599 L48.3874102,15.030463 L47.8767103,15.030463 C47.5257448,15.030463 47.2580211,15.0912738 47.0825384,15.2128954 C46.9048058,15.3367692 46.8170645,15.5101925 46.8170645,15.7331654 C46.8170645,15.9155977 46.8778085,16.0619941 46.9992966,16.1701021 C47.1207846,16.2782102 47.2827687,16.3322642 47.4852488,16.3322642 L47.4852488,16.3322642 Z M48.5291462,17.0169486 C48.4864004,16.9358676 48.450404,16.8029847 48.4189071,16.6205524 C48.1151869,16.9381198 47.7462232,17.0935251 47.309766,17.0935251 C46.8845578,17.0935251 46.5380919,16.9741558 46.2703682,16.7309127 C46.0026445,16.4876696 45.8676577,16.1881201 45.8676577,15.8322645 C45.8676577,15.3818142 46.0341414,15.0349675 46.3693584,14.7939766 C46.7045755,14.5507335 47.1837784,14.4313642 47.8069672,14.4313642 L48.3874102,14.4313642 L48.3874102,14.1543373 C48.3874102,13.9358689 48.3266661,13.7601933 48.2029283,13.6273105 C48.0814402,13.4966799 47.8969584,13.4313646 47.6449831,13.4313646 C47.4312541,13.4313646 47.2512718,13.4854187 47.1140353,13.5935267 C46.974549,13.7016348 46.9070556,13.8390221 46.9070556,14.0056887 L45.9576489,14.0056887 C45.9576489,13.7737068 46.0341414,13.5574907 46.1893761,13.3547881 C46.3423611,13.1520855 46.5515905,12.9944279 46.8148147,12.8795631 C47.0780388,12.7646983 47.3750096,12.708392 47.7012276,12.708392 C48.1939292,12.708392 48.5876405,12.8322658 48.8823615,13.0822657 C49.1770826,13.3300133 49.3278178,13.6791123 49.3368169,14.1295625 L49.3368169,16.0394716 C49.3368169,16.420102 49.3908116,16.7219037 49.498801,16.9493811 L49.498801,17.0169486 L48.5291462,17.0169486 Z" id="Fill-9" fill="#30374B"></path>
                <path d="M51.5188775,11.7572663 L51.5188775,12.7865451 L52.2658041,12.7865451 L52.2658041,13.4892475 L51.5188775,13.4892475 L51.5188775,15.8496068 C51.5188775,16.0117689 51.5526242,16.1288859 51.615618,16.200958 C51.6786118,16.27303 51.7933505,16.309066 51.9553346,16.309066 C52.0655738,16.309066 52.1780627,16.2955525 52.2905517,16.2685255 L52.2905517,17.0050117 C52.0723231,17.0635702 51.8630937,17.0951017 51.6628634,17.0951017 C50.933935,17.0951017 50.5694708,16.6919487 50.5694708,15.8856428 L50.5694708,13.4892475 L49.8765389,13.4892475 L49.8765389,12.7865451 L50.5694708,12.7865451 L50.5694708,11.7572663 L51.5188775,11.7572663 Z" id="Fill-10" fill="#30374B"></path>
                <path d="M54.4717124,16.3322642 C54.6606938,16.3322642 54.8361766,16.2849669 55.0004104,16.1948769 C55.1668941,16.1025346 55.2906319,15.980913 55.3738737,15.8277599 L55.3738737,15.030463 L54.8631739,15.030463 C54.5122084,15.030463 54.2467345,15.0912738 54.0690019,15.2128954 C53.8935192,15.3367692 53.803528,15.5101925 53.803528,15.7331654 C53.803528,15.9155977 53.8642721,16.0619941 53.9857601,16.1701021 C54.1072482,16.2782102 54.2692323,16.3322642 54.4717124,16.3322642 L54.4717124,16.3322642 Z M55.5156098,17.0169486 C55.472864,16.9358676 55.4368676,16.8029847 55.4053706,16.6205524 C55.1039003,16.9381198 54.7326867,17.0935251 54.2962296,17.0935251 C53.8710214,17.0935251 53.5245554,16.9741558 53.2568317,16.7309127 C52.989108,16.4876696 52.8541213,16.1881201 52.8541213,15.8322645 C52.8541213,15.3818142 53.020605,15.0349675 53.3580718,14.7939766 C53.6910391,14.5507335 54.170242,14.4313642 54.7934308,14.4313642 L55.3738737,14.4313642 L55.3738737,14.1543373 C55.3738737,13.9358689 55.3131297,13.7601933 55.1893919,13.6273105 C55.0701536,13.4966799 54.8834219,13.4313646 54.6314467,13.4313646 C54.4177177,13.4313646 54.2377354,13.4854187 54.1004989,13.5935267 C53.9632623,13.7016348 53.8935192,13.8390221 53.8935192,14.0056887 L52.9441125,14.0056887 C52.9441125,13.7737068 53.020605,13.5574907 53.1758397,13.3547881 C53.3288247,13.1520855 53.5380541,12.9944279 53.8012782,12.8795631 C54.0667522,12.7646983 54.3614732,12.708392 54.6876912,12.708392 C55.1803927,12.708392 55.5763538,12.8322658 55.8710749,13.0822657 C56.1657959,13.3300133 56.3142813,13.6791123 56.3232805,14.1295625 L56.3232805,16.0394716 C56.3232805,16.420102 56.3772752,16.7219037 56.4852645,16.9493811 L56.4852645,17.0169486 L55.5156098,17.0169486 Z" id="Fill-11" fill="#30374B"></path>
                <path d="M57.9100496,16.0153725 C58.0855323,16.0153725 58.2227688,16.064922 58.3195093,16.1662733 C58.4162498,16.2653724 58.4634952,16.3914984 58.4634952,16.5423993 C58.4634952,16.6910478 58.4162498,16.8149217 58.3195093,16.9117685 C58.2227688,17.0108675 58.0855323,17.0581648 57.9100496,17.0581648 C57.7413161,17.0581648 57.6040796,17.0108675 57.5050893,16.9140207 C57.4060991,16.8171739 57.3588537,16.6933001 57.3588537,16.5423993 C57.3588537,16.3914984 57.4060991,16.2653724 57.5028396,16.1662733 C57.5995801,16.064922 57.7345668,16.0153725 57.9100496,16.0153725" id="Fill-12" fill="#30374B"></path>
                <path d="M59.6133572,17.0167234 L60.5627639,17.0167234 L60.5627639,12.7869955 L59.6133572,12.7869955 L59.6133572,17.0167234 Z M59.5526132,11.6878969 C59.5526132,11.5415006 59.5998585,11.419879 59.6920995,11.3230322 C59.7843404,11.2261854 59.9170774,11.1788882 60.0880606,11.1788882 C60.2612935,11.1788882 60.3917807,11.2261854 60.4862714,11.3230322 C60.5785124,11.419879 60.6280075,11.5415006 60.6280075,11.6878969 C60.6280075,11.8297888 60.5785124,11.9491581 60.4862714,12.0437526 C60.3917807,12.1405994 60.2612935,12.1878967 60.0880606,12.1878967 C59.9170774,12.1878967 59.7843404,12.1405994 59.6920995,12.0437526 C59.5998585,11.9491581 59.5526132,11.8297888 59.5526132,11.6878969 L59.5526132,11.6878969 Z" id="Fill-13" fill="#30374B"></path>
                <path d="M62.3657368,14.944427 C62.3657368,15.3791115 62.4557279,15.7192014 62.6357103,15.9669491 C62.8134428,16.2124445 63.065418,16.3363183 63.3848866,16.3363183 C63.706605,16.3363183 63.9540807,16.2101922 64.1318133,15.9601923 C64.3095458,15.7101924 64.399537,15.3430755 64.399537,14.8610937 C64.399537,14.433166 64.307296,14.0953283 64.1250639,13.8453284 C63.9405821,13.5953285 63.6931064,13.4692024 63.3758875,13.4692024 C63.0676678,13.4692024 62.8201921,13.5930763 62.63796,13.8385717 C62.4557279,14.0863193 62.3657368,14.4534362 62.3657368,14.944427 L62.3657368,14.944427 Z M61.4163301,14.8610937 C61.4163301,14.4466795 61.4973221,14.075058 61.6638057,13.7417248 C61.8280396,13.4083917 62.0552673,13.1538873 62.3544879,12.9759594 C62.6514587,12.7957793 62.9911753,12.7079415 63.3758875,12.7079415 C63.9473314,12.7079415 64.4085361,12.8903739 64.7640011,13.2574908 C65.121716,13.62686 65.3129472,14.1133463 65.3399446,14.7214541 L65.3444441,14.944427 C65.3444441,15.3610935 65.2657019,15.7349672 65.1059676,16.0615436 C64.9439835,16.3903723 64.7167558,16.6448767 64.4175352,16.8250568 C64.1183146,17.0052369 63.7763482,17.0953269 63.3848866,17.0953269 C62.7864454,17.0953269 62.3117421,16.8948766 61.9517775,16.4984804 C61.5940626,16.0998319 61.4163301,15.5705529 61.4163301,14.908391 L61.4163301,14.8610937 Z" id="Fill-14" fill="#30374B"></path>
                <polygon id="Fill-15" fill="#F8C62C" points="20.175857 8.77145681 20.175857 9.46064569 22.3828901 8.04848416 22.3828901 20.1273076 17.9440763 20.1273076 17.9440763 19.1318125 17.3636333 19.1318125 17.3636333 20.7083884 22.9633331 20.7083884 22.9633331 6.98992608"></polygon>
                <polygon id="Fill-16" fill="#F8C62C" points="15.6126303 8.51740287 15.6126303 11.6863204 16.1930733 11.3146989 16.1930733 8.91830359 16.1930733 8.83497029 19.5969889 6.66154785 19.5969889 8.91830359 19.5969889 9.14127646 20.1751821 8.77190726 20.1751821 5.60298976"></polygon>
                <path d="M19.595864,18.5514074 L15.2470412,18.5514074 L15.2470412,12.6077163 L19.595864,9.83069057 L19.595864,18.5514074 Z M14.6688481,12.2901489 L14.6688481,19.1324882 L20.1763069,19.1324882 L20.1763069,8.77213248 L14.6688481,12.2901489 Z" id="Fill-17" fill="#30374B"></path>
                <path d="M712.672668,54.4268417 L665.175335,54.4268417 C664.097691,54.4268417 663.218027,53.5439592 663.218027,52.4673831 L663.218027,36.7714442 C663.218027,35.6926159 664.097691,34.8119857 665.175335,34.8119857 L712.672668,34.8119857 C713.750313,34.8119857 714.629976,35.6926159 714.629976,36.7714442 L714.629976,52.4673831 C714.629976,53.5439592 713.750313,54.4268417 712.672668,54.4268417" id="Fill-18" fill="#30374B"></path>
                <path d="M705.090688,46.5790975 L672.29791,46.5790975 C671.220266,46.5790975 670.340603,45.696215 670.340603,44.6196389 C670.340603,43.5408106 671.220266,42.6601803 672.29791,42.6601803 L705.090688,42.6601803 C706.168332,42.6601803 707.047996,43.5408106 707.047996,44.6196389 C707.047996,45.696215 706.168332,46.5790975 705.090688,46.5790975" id="Fill-19" fill="#FFFFFF"></path>
                <g id="Fill-20">
                    <use fill="black" fill-opacity="1" filter="url(#filter-4)" xlink:href="#path-3"></use>
                    <use fill="#FFFFFF" fill-rule="evenodd" xlink:href="#path-3"></use>
                </g>
                <path d="M652.842722,46.5790975 L647.135033,46.5790975 C646.057388,46.5790975 645.177725,45.696215 645.177725,44.6196389 C645.177725,43.5408106 646.057388,42.6601803 647.135033,42.6601803 L652.842722,42.6601803 C653.920366,42.6601803 654.800029,43.5408106 654.800029,44.6196389 C654.800029,45.696215 653.920366,46.5790975 652.842722,46.5790975" id="Fill-21" fill="#C1C1C1"></path>
                <g id="Fill-22">
                    <use fill="black" fill-opacity="1" filter="url(#filter-6)" xlink:href="#path-5"></use>
                    <use fill="#FFFFFF" fill-rule="evenodd" xlink:href="#path-5"></use>
                </g>
                <path d="M629.061883,46.5790975 L623.354194,46.5790975 C622.27655,46.5790975 621.396886,45.696215 621.396886,44.6196389 C621.396886,43.5408106 622.27655,42.6601803 623.354194,42.6601803 L629.061883,42.6601803 C630.139527,42.6601803 631.019191,43.5408106 631.019191,44.6196389 C631.019191,45.696215 630.139527,46.5790975 629.061883,46.5790975" id="Fill-23" fill="#C1C1C1"></path>
                <path d="M365.451844,13.8416926 L346.488457,13.8416926 C345.413063,13.8416926 344.531149,12.9588101 344.531149,11.882234 C344.531149,10.8034057 345.413063,9.92277547 346.488457,9.92277547 L365.451844,9.92277547 C366.529488,9.92277547 367.409152,10.8034057 367.409152,11.882234 C367.409152,12.9588101 366.529488,13.8416926 365.451844,13.8416926" id="Fill-24" fill="#30374B"></path>
                <path d="M667.130168,13.1561395 C667.130168,18.6561371 662.677855,23.1155945 657.181645,23.1155945 C651.687685,23.1155945 647.233123,18.6561371 647.233123,13.1561395 C647.233123,7.65614199 651.687685,3.19668454 657.181645,3.19668454 C662.677855,3.19668454 667.130168,7.65614199 667.130168,13.1561395" id="Fill-26" fill="#30374B"></path>
                <path d="M706.173957,12.2225814 L672.971719,12.2225814 C672.098805,12.2225814 671.385625,11.5086177 671.385625,10.6347443 C671.385625,9.76312303 672.098805,9.04915939 672.971719,9.04915939 L706.173957,9.04915939 C707.046871,9.04915939 707.757801,9.76312303 707.757801,10.6347443 C707.757801,11.5086177 707.046871,12.2225814 706.173957,12.2225814" id="Fill-27" fill="#C1C1C1"></path>
                <path d="M667.130168,13.1561395 C667.130168,18.6561371 662.677855,23.1155945 657.181645,23.1155945 C651.687685,23.1155945 647.233123,18.6561371 647.233123,13.1561395 C647.233123,7.65614199 651.687685,3.19668454 657.181645,3.19668454 C662.677855,3.19668454 667.130168,7.65614199 667.130168,13.1561395" id="Fill-28" fill="#30374B"></path>
                <path d="M706.173957,12.2225814 L672.971719,12.2225814 C672.098805,12.2225814 671.385625,11.5086177 671.385625,10.6347443 C671.385625,9.76312303 672.098805,9.04915939 672.971719,9.04915939 L706.173957,9.04915939 C707.046871,9.04915939 707.757801,9.76312303 707.757801,10.6347443 C707.757801,11.5086177 707.046871,12.2225814 706.173957,12.2225814" id="Fill-29" fill="#C1C1C1"></path>
                <path d="M696.304627,15.0509585 L672.490716,15.0509585 C671.883276,15.0509585 671.386075,15.548706 671.386075,16.1568139 C671.386075,16.7671739 671.883276,17.2626692 672.490716,17.2626692 L696.304627,17.2626692 C696.914317,17.2626692 697.409268,16.7671739 697.409268,16.1568139 C697.409268,15.548706 696.914317,15.0509585 696.304627,15.0509585" id="Fill-30" fill="#C1C1C1"></path>
                <path d="M712.226762,11.8122212 L713.56988,13.1568152 L712.226762,14.4991569 C712.055779,14.670328 712.055779,14.9518594 712.226762,15.1207783 C712.397745,15.2919494 712.676718,15.2919494 712.847701,15.1207783 L714.501289,13.4676259 C714.672272,13.2964548 714.672272,13.0171756 714.501289,12.8437523 L712.847701,11.1905999 C712.676718,11.0194288 712.397745,11.0194288 712.226762,11.1905999 C712.055779,11.361771 712.055779,11.6410501 712.226762,11.8122212" id="Fill-31" fill="#30374B"></path>
                <g id="Fill-32">
                    <use fill="black" fill-opacity="1" filter="url(#filter-8)" xlink:href="#path-7"></use>
                    <use fill="#FFFFFF" fill-rule="evenodd" xlink:href="#path-7"></use>
                </g>
                <path d="M77.2003293,46.5790975 L41.905797,46.5790975 C40.8304027,46.5790975 39.9484893,45.696215 39.9484893,44.6196389 C39.9484893,43.5408106 40.8304027,42.6601803 41.905797,42.6601803 L77.2003293,42.6601803 C78.2779734,42.6601803 79.157637,43.5408106 79.157637,44.6196389 C79.157637,45.696215 78.2779734,46.5790975 77.2003293,46.5790975" id="Fill-33" fill="#30374B"></path>
                <path d="M27.6984429,46.5790975 L21.5542966,46.5790975 C20.4766524,46.5790975 19.5947391,45.696215 19.5947391,44.6196389 C19.5947391,43.5408106 20.4766524,42.6601803 21.5542966,42.6601803 L27.6984429,42.6601803 C28.776087,42.6601803 29.6557506,43.5408106 29.6557506,44.6196389 C29.6557506,45.696215 28.776087,46.5790975 27.6984429,46.5790975" id="Fill-34" fill="#30374B"></path>
                <path d="M92.9004117,43.2757206 L94.2435298,44.6203146 L92.9004117,45.9626563 C92.7294285,46.1338274 92.7294285,46.4153588 92.9004117,46.5842777 C93.0713949,46.7554488 93.3503675,46.7554488 93.5213507,46.5842777 L95.1749382,44.9311253 C95.3459214,44.7599542 95.3459214,44.4784228 95.1749382,44.3072517 L93.5213507,42.6540993 C93.3503675,42.4829282 93.0713949,42.4829282 92.9004117,42.6540993 C92.7294285,42.8252704 92.7294285,43.1045495 92.9004117,43.2757206" id="Fill-35" fill="#30374B"></path>
                <g id="Fill-36">
                    <use fill="black" fill-opacity="1" filter="url(#filter-10)" xlink:href="#path-9"></use>
                    <use fill="#FFFFFF" fill-rule="evenodd" xlink:href="#path-9"></use>
                </g>
                <path d="M175.265494,46.5790975 L139.970962,46.5790975 C138.895568,46.5790975 138.013654,45.696215 138.013654,44.6196389 C138.013654,43.5408106 138.895568,42.6601803 139.970962,42.6601803 L175.265494,42.6601803 C176.343138,42.6601803 177.222802,43.5408106 177.222802,44.6196389 C177.222802,45.696215 176.343138,46.5790975 175.265494,46.5790975" id="Fill-37" fill="#30374B"></path>
                <path d="M125.763833,46.5790975 L119.619687,46.5790975 C118.542042,46.5790975 117.660129,45.696215 117.660129,44.6196389 C117.660129,43.5408106 118.542042,42.6601803 119.619687,42.6601803 L125.763833,42.6601803 C126.841477,42.6601803 127.721141,43.5408106 127.721141,44.6196389 C127.721141,45.696215 126.841477,46.5790975 125.763833,46.5790975" id="Fill-38" fill="#30374B"></path>
                <path d="M190.965577,43.2757206 L192.306445,44.6203146 L190.965577,45.9626563 C190.794594,46.1338274 190.794594,46.4153588 190.965577,46.5842777 C191.13431,46.7554488 191.415532,46.7554488 191.586516,46.5842777 L193.240103,44.9311253 C193.411086,44.7599542 193.411086,44.4784228 193.240103,44.3072517 L191.586516,42.6540993 C191.415532,42.4829282 191.13431,42.4829282 190.965577,42.6540993 C190.794594,42.8252704 190.794594,43.1045495 190.965577,43.2757206" id="Fill-39" fill="#30374B"></path>
                <g id="Fill-40">
                    <use fill="black" fill-opacity="1" filter="url(#filter-12)" xlink:href="#path-11"></use>
                    <use fill="#FFFFFF" fill-rule="evenodd" xlink:href="#path-11"></use>
                </g>
                <g id="Fill-42">
                    <use fill="black" fill-opacity="1" filter="url(#filter-14)" xlink:href="#path-13"></use>
                    <use fill="#FFFFFF" fill-rule="evenodd" xlink:href="#path-13"></use>
                </g>
                <polygon id="Fill-43" fill="#F8F8F9" points="501.447447 83.458135 714.629751 83.458135 714.629751 64.9266118 501.447447 64.9266118"></polygon>
                <path d="M531.113032,76.1531833 L513.429769,76.1531833 C512.352125,76.1531833 511.472462,75.2703008 511.472462,74.1937247 C511.472462,73.1148964 512.352125,72.2342662 513.429769,72.2342662 L531.113032,72.2342662 C532.190676,72.2342662 533.07034,73.1148964 533.07034,74.1937247 C533.07034,75.2703008 532.190676,76.1531833 531.113032,76.1531833" id="Fill-44" fill="#30374B"></path>
                <path d="M706.252924,94.6835804 L698.025482,94.6835804 C696.947838,94.6835804 696.068175,93.8006979 696.068175,92.7241218 C696.068175,91.6452935 696.947838,90.7646632 698.025482,90.7646632 L706.252924,90.7646632 C707.330568,90.7646632 708.210232,91.6452935 708.210232,92.7241218 C708.210232,93.8006979 707.330568,94.6835804 706.252924,94.6835804" id="Fill-45" fill="#30374B"></path>
                <path d="M682.173315,94.6835804 L673.945873,94.6835804 C672.868229,94.6835804 671.990815,93.8006979 671.990815,92.7241218 C671.990815,91.6452935 672.868229,90.7646632 673.945873,90.7646632 L682.173315,90.7646632 C683.250959,90.7646632 684.130623,91.6452935 684.130623,92.7241218 C684.130623,93.8006979 683.250959,94.6835804 682.173315,94.6835804" id="Fill-46" fill="#30374B"></path>
                <path d="M531.367707,127.533791 C531.367707,133.033788 526.915394,137.493246 521.419184,137.493246 C515.925224,137.493246 511.470662,133.033788 511.470662,127.533791 C511.470662,122.033793 515.925224,117.574336 521.419184,117.574336 C526.915394,117.574336 531.367707,122.033793 531.367707,127.533791" id="Fill-47" fill="#30374B"></path>
                <path d="M572.665774,126.020503 L539.463536,126.020503 C538.590622,126.020503 537.877442,125.30654 537.877442,124.432666 C537.877442,123.561045 538.590622,122.847081 539.463536,122.847081 L572.665774,122.847081 C573.538688,122.847081 574.251868,123.561045 574.251868,124.432666 C574.251868,125.30654 573.538688,126.020503 572.665774,126.020503" id="Fill-48" fill="#C1C1C1"></path>
                <path d="M562.798694,130.008114 L538.982534,130.008114 C538.377343,130.008114 537.877892,130.505862 537.877892,131.113969 C537.877892,131.72433 538.377343,132.219825 538.982534,132.219825 L562.798694,132.219825 C563.406134,132.219825 563.903335,131.72433 563.903335,131.113969 C563.903335,130.505862 563.406134,130.008114 562.798694,130.008114" id="Fill-49" fill="#C1C1C1"></path>
                <path d="M595.789677,122.846631 L582.102022,122.846631 C581.026628,122.846631 580.144714,121.963748 580.144714,120.887172 L580.144714,117.659696 C580.144714,116.580868 581.026628,115.700238 582.102022,115.700238 L595.789677,115.700238 C596.867321,115.700238 597.746985,116.580868 597.746985,117.659696 L597.746985,120.887172 C597.746985,121.963748 596.867321,122.846631 595.789677,122.846631" id="Fill-50" fill="#30374B"></path>
                <path d="M594.43846,119.986272 L583.297555,119.986272 C582.903843,119.986272 582.582125,119.6642 582.582125,119.272308 C582.582125,118.880416 582.903843,118.558344 583.297555,118.558344 L594.43846,118.558344 C594.829922,118.558344 595.14939,118.880416 595.14939,119.272308 C595.14939,119.6642 594.829922,119.986272 594.43846,119.986272" id="Fill-51" fill="#FFFFFF"></path>
                <path d="M706.679257,124.178612 C706.679257,124.849783 706.137061,125.394828 705.466626,125.394828 C704.793942,125.394828 704.251746,124.849783 704.251746,124.178612 C704.251746,123.507441 704.793942,122.962397 705.466626,122.962397 C706.137061,122.962397 706.679257,123.507441 706.679257,124.178612" id="Fill-52" fill="#9E9E9E"></path>
                <path d="M706.679257,127.533791 C706.679257,128.204962 706.137061,128.750007 705.466626,128.750007 C704.793942,128.750007 704.251746,128.204962 704.251746,127.533791 C704.251746,126.86262 704.793942,126.317575 705.466626,126.317575 C706.137061,126.317575 706.679257,126.86262 706.679257,127.533791" id="Fill-53" fill="#9E9E9E"></path>
                <path d="M706.679257,130.88897 C706.679257,131.56014 706.137061,132.105185 705.466626,132.105185 C704.793942,132.105185 704.251746,131.56014 704.251746,130.88897 C704.251746,130.217799 704.793942,129.672754 705.466626,129.672754 C706.137061,129.672754 706.679257,130.217799 706.679257,130.88897" id="Fill-54" fill="#9E9E9E"></path>
                <polygon id="Fill-55" fill="#C1C1C1" points="501.447447 147.158557 714.629751 147.158557 714.629751 146.419818 501.447447 146.419818"></polygon>
                <path d="M531.367707,167.921385 C531.367707,173.421383 526.915394,177.88084 521.419184,177.88084 C515.925224,177.88084 511.470662,173.421383 511.470662,167.921385 C511.470662,162.421388 515.925224,157.96193 521.419184,157.96193 C526.915394,157.96193 531.367707,162.421388 531.367707,167.921385" id="Fill-56" fill="#30374B"></path>
                <path d="M572.665774,166.408323 L539.463536,166.408323 C538.590622,166.408323 537.877442,165.694359 537.877442,164.820486 C537.877442,163.948865 538.590622,163.232649 539.463536,163.232649 L572.665774,163.232649 C573.538688,163.232649 574.251868,163.948865 574.251868,164.820486 C574.251868,165.694359 573.538688,166.408323 572.665774,166.408323" id="Fill-57" fill="#C1C1C1"></path>
                <path d="M562.798694,170.395934 L538.982534,170.395934 C538.377343,170.395934 537.877892,170.893681 537.877892,171.501789 C537.877892,172.109897 538.377343,172.607645 538.982534,172.607645 L562.798694,172.607645 C563.406134,172.607645 563.903335,172.109897 563.903335,171.501789 C563.903335,170.893681 563.406134,170.395934 562.798694,170.395934" id="Fill-58" fill="#C1C1C1"></path>
                <path d="M595.789677,163.233324 L582.102022,163.233324 C581.026628,163.233324 580.144714,162.350442 580.144714,161.273866 L580.144714,158.04639 C580.144714,156.967561 581.026628,156.086931 582.102022,156.086931 L595.789677,156.086931 C596.867321,156.086931 597.746985,156.967561 597.746985,158.04639 L597.746985,161.273866 C597.746985,162.350442 596.867321,163.233324 595.789677,163.233324" id="Fill-59" fill="#30374B"></path>
                <path d="M594.43846,160.374091 L583.297555,160.374091 C582.903843,160.374091 582.582125,160.05202 582.582125,159.660128 C582.582125,159.268236 582.903843,158.946164 583.297555,158.946164 L594.43846,158.946164 C594.829922,158.946164 595.14939,159.268236 595.14939,159.660128 C595.14939,160.05202 594.829922,160.374091 594.43846,160.374091" id="Fill-60" fill="#FFFFFF"></path>
                <path d="M706.679257,164.566207 C706.679257,165.237378 706.137061,165.782422 705.466626,165.782422 C704.793942,165.782422 704.251746,165.237378 704.251746,164.566207 C704.251746,163.895036 704.793942,163.349991 705.466626,163.349991 C706.137061,163.349991 706.679257,163.895036 706.679257,164.566207" id="Fill-61" fill="#9E9E9E"></path>
                <path d="M706.679257,167.921385 C706.679257,168.592556 706.137061,169.137601 705.466626,169.137601 C704.793942,169.137601 704.251746,168.592556 704.251746,167.921385 C704.251746,167.250214 704.793942,166.70517 705.466626,166.70517 C706.137061,166.70517 706.679257,167.250214 706.679257,167.921385" id="Fill-62" fill="#9E9E9E"></path>
                <path d="M706.679257,171.276789 C706.679257,171.94796 706.137061,172.493005 705.466626,172.493005 C704.793942,172.493005 704.251746,171.94796 704.251746,171.276789 C704.251746,170.605618 704.793942,170.060574 705.466626,170.060574 C706.137061,170.060574 706.679257,170.605618 706.679257,171.276789" id="Fill-63" fill="#9E9E9E"></path>
                <polygon id="Fill-64" fill="#C1C1C1" points="501.447447 187.545926 714.629751 187.545926 714.629751 186.807188 501.447447 186.807188"></polygon>
                <path d="M531.367707,208.308079 C531.367707,213.808076 526.915394,218.267534 521.419184,218.267534 C515.925224,218.267534 511.470662,213.808076 511.470662,208.308079 C511.470662,202.808081 515.925224,198.348624 521.419184,198.348624 C526.915394,198.348624 531.367707,202.808081 531.367707,208.308079" id="Fill-65" fill="#30374B"></path>
                <path d="M572.665774,206.795917 L539.463536,206.795917 C538.590622,206.795917 537.877442,206.081954 537.877442,205.20808 C537.877442,204.334207 538.590622,203.620243 539.463536,203.620243 L572.665774,203.620243 C573.538688,203.620243 574.251868,204.334207 574.251868,205.20808 C574.251868,206.081954 573.538688,206.795917 572.665774,206.795917" id="Fill-66" fill="#C1C1C1"></path>
                <path d="M562.798694,210.783528 L538.982534,210.783528 C538.377343,210.783528 537.877892,211.281276 537.877892,211.889384 C537.877892,212.497491 538.377343,212.995239 538.982534,212.995239 L562.798694,212.995239 C563.406134,212.995239 563.903335,212.497491 563.903335,211.889384 C563.903335,211.281276 563.406134,210.783528 562.798694,210.783528" id="Fill-67" fill="#C1C1C1"></path>
                <path d="M595.789677,203.620919 L582.102022,203.620919 C581.026628,203.620919 580.144714,202.738036 580.144714,201.66146 L580.144714,198.433984 C580.144714,197.355156 581.026628,196.474526 582.102022,196.474526 L595.789677,196.474526 C596.867321,196.474526 597.746985,197.355156 597.746985,198.433984 L597.746985,201.66146 C597.746985,202.738036 596.867321,203.620919 595.789677,203.620919" id="Fill-68" fill="#30374B"></path>
                <path d="M594.43846,200.76056 L583.297555,200.76056 C582.903843,200.76056 582.582125,200.438488 582.582125,200.046596 C582.582125,199.654704 582.903843,199.332633 583.297555,199.332633 L594.43846,199.332633 C594.829922,199.332633 595.14939,199.654704 595.14939,200.046596 C595.14939,200.438488 594.829922,200.76056 594.43846,200.76056" id="Fill-69" fill="#FFFFFF"></path>
                <path d="M706.679257,204.952675 C706.679257,205.623846 706.137061,206.168891 705.466626,206.168891 C704.793942,206.168891 704.251746,205.623846 704.251746,204.952675 C704.251746,204.281504 704.793942,203.736459 705.466626,203.736459 C706.137061,203.736459 706.679257,204.281504 706.679257,204.952675" id="Fill-70" fill="#9E9E9E"></path>
                <path d="M706.679257,208.308079 C706.679257,208.97925 706.137061,209.524295 705.466626,209.524295 C704.793942,209.524295 704.251746,208.97925 704.251746,208.308079 C704.251746,207.636908 704.793942,207.091863 705.466626,207.091863 C706.137061,207.091863 706.679257,207.636908 706.679257,208.308079" id="Fill-71" fill="#9E9E9E"></path>
                <path d="M706.679257,211.663258 C706.679257,212.334428 706.137061,212.879473 705.466626,212.879473 C704.793942,212.879473 704.251746,212.334428 704.251746,211.663258 C704.251746,210.992087 704.793942,210.447042 705.466626,210.447042 C706.137061,210.447042 706.679257,210.992087 706.679257,211.663258" id="Fill-72" fill="#9E9E9E"></path>
                <polygon id="Fill-73" fill="#C1C1C1" points="501.447447 227.933295 714.629751 227.933295 714.629751 227.194557 501.447447 227.194557"></polygon>
                <path d="M531.367707,248.695673 C531.367707,254.195671 526.915394,258.655128 521.419184,258.655128 C515.925224,258.655128 511.470662,254.195671 511.470662,248.695673 C511.470662,243.195676 515.925224,238.736218 521.419184,238.736218 C526.915394,238.736218 531.367707,243.195676 531.367707,248.695673" id="Fill-74" fill="#30374B"></path>
                <path d="M572.665774,247.182386 L539.463536,247.182386 C538.590622,247.182386 537.877442,246.468422 537.877442,245.594549 C537.877442,244.722927 538.590622,244.006712 539.463536,244.006712 L572.665774,244.006712 C573.538688,244.006712 574.251868,244.722927 574.251868,245.594549 C574.251868,246.468422 573.538688,247.182386 572.665774,247.182386" id="Fill-75" fill="#C1C1C1"></path>
                <path d="M562.798694,251.169997 L538.982534,251.169997 C538.377343,251.169997 537.877892,251.667744 537.877892,252.275852 C537.877892,252.88396 538.377343,253.381707 538.982534,253.381707 L562.798694,253.381707 C563.406134,253.381707 563.903335,252.88396 563.903335,252.275852 C563.903335,251.667744 563.406134,251.169997 562.798694,251.169997" id="Fill-76" fill="#C1C1C1"></path>
                <path d="M595.789677,244.007612 L582.102022,244.007612 C581.026628,244.007612 580.144714,243.12473 580.144714,242.048154 L580.144714,238.820678 C580.144714,237.74185 581.026628,236.861219 582.102022,236.861219 L595.789677,236.861219 C596.867321,236.861219 597.746985,237.74185 597.746985,238.820678 L597.746985,242.048154 C597.746985,243.12473 596.867321,244.007612 595.789677,244.007612" id="Fill-77" fill="#30374B"></path>
                <path d="M594.43846,241.148154 L583.297555,241.148154 C582.903843,241.148154 582.582125,240.826082 582.582125,240.434191 C582.582125,240.042299 582.903843,239.720227 583.297555,239.720227 L594.43846,239.720227 C594.829922,239.720227 595.14939,240.042299 595.14939,240.434191 C595.14939,240.826082 594.829922,241.148154 594.43846,241.148154" id="Fill-78" fill="#FFFFFF"></path>
                <path d="M706.679257,245.34027 C706.679257,246.01144 706.137061,246.556485 705.466626,246.556485 C704.793942,246.556485 704.251746,246.01144 704.251746,245.34027 C704.251746,244.669099 704.793942,244.124054 705.466626,244.124054 C706.137061,244.124054 706.679257,244.669099 706.679257,245.34027" id="Fill-79" fill="#9E9E9E"></path>
                <path d="M706.679257,248.695673 C706.679257,249.366844 706.137061,249.911889 705.466626,249.911889 C704.793942,249.911889 704.251746,249.366844 704.251746,248.695673 C704.251746,248.024503 704.793942,247.479458 705.466626,247.479458 C706.137061,247.479458 706.679257,248.024503 706.679257,248.695673" id="Fill-80" fill="#9E9E9E"></path>
                <path d="M706.679257,252.050852 C706.679257,252.722023 706.137061,253.267068 705.466626,253.267068 C704.793942,253.267068 704.251746,252.722023 704.251746,252.050852 C704.251746,251.379681 704.793942,250.834636 705.466626,250.834636 C706.137061,250.834636 706.679257,251.379681 706.679257,252.050852" id="Fill-81" fill="#9E9E9E"></path>
                <polygon id="Fill-82" fill="#C1C1C1" points="501.447447 268.320665 714.629751 268.320665 714.629751 267.581926 501.447447 267.581926"></polygon>
                <path d="M531.367707,289.082142 C531.367707,294.582139 526.915394,299.041597 521.419184,299.041597 C515.925224,299.041597 511.470662,294.582139 511.470662,289.082142 C511.470662,283.582144 515.925224,279.122687 521.419184,279.122687 C526.915394,279.122687 531.367707,283.582144 531.367707,289.082142" id="Fill-83" fill="#30374B"></path>
                <path d="M572.665774,287.56998 L539.463536,287.56998 C538.590622,287.56998 537.877442,286.856017 537.877442,285.982143 C537.877442,285.10827 538.590622,284.394306 539.463536,284.394306 L572.665774,284.394306 C573.538688,284.394306 574.251868,285.10827 574.251868,285.982143 C574.251868,286.856017 573.538688,287.56998 572.665774,287.56998" id="Fill-84" fill="#C1C1C1"></path>
                <path d="M562.798694,291.557816 L538.982534,291.557816 C538.377343,291.557816 537.877892,292.055564 537.877892,292.663672 C537.877892,293.27178 538.377343,293.769527 538.982534,293.769527 L562.798694,293.769527 C563.406134,293.769527 563.903335,293.27178 563.903335,292.663672 C563.903335,292.055564 563.406134,291.557816 562.798694,291.557816" id="Fill-85" fill="#C1C1C1"></path>
                <path d="M595.789677,284.395207 L582.102022,284.395207 C581.026628,284.395207 580.144714,283.512324 580.144714,282.435748 L580.144714,279.208272 C580.144714,278.129444 581.026628,277.248814 582.102022,277.248814 L595.789677,277.248814 C596.867321,277.248814 597.746985,278.129444 597.746985,279.208272 L597.746985,282.435748 C597.746985,283.512324 596.867321,284.395207 595.789677,284.395207" id="Fill-86" fill="#30374B"></path>
                <path d="M594.43846,281.535974 L583.297555,281.535974 C582.903843,281.535974 582.582125,281.213902 582.582125,280.82201 C582.582125,280.427866 582.903843,280.108047 583.297555,280.108047 L594.43846,280.108047 C594.829922,280.108047 595.14939,280.427866 595.14939,280.82201 C595.14939,281.213902 594.829922,281.535974 594.43846,281.535974" id="Fill-87" fill="#FFFFFF"></path>
                <path d="M706.679257,285.726963 C706.679257,286.398134 706.137061,286.943179 705.466626,286.943179 C704.793942,286.943179 704.251746,286.398134 704.251746,285.726963 C704.251746,285.055792 704.793942,284.510747 705.466626,284.510747 C706.137061,284.510747 706.679257,285.055792 706.679257,285.726963" id="Fill-88" fill="#9E9E9E"></path>
                <path d="M706.679257,289.082142 C706.679257,289.753313 706.137061,290.298357 705.466626,290.298357 C704.793942,290.298357 704.251746,289.753313 704.251746,289.082142 C704.251746,288.410971 704.793942,287.865926 705.466626,287.865926 C706.137061,287.865926 706.679257,288.410971 706.679257,289.082142" id="Fill-89" fill="#9E9E9E"></path>
                <path d="M706.679257,292.437546 C706.679257,293.108717 706.137061,293.653761 705.466626,293.653761 C704.793942,293.653761 704.251746,293.108717 704.251746,292.437546 C704.251746,291.766375 704.793942,291.22133 705.466626,291.22133 C706.137061,291.22133 706.679257,291.766375 706.679257,292.437546" id="Fill-90" fill="#9E9E9E"></path>
                <g id="Fill-91">
                    <use fill="black" fill-opacity="1" filter="url(#filter-16)" xlink:href="#path-15"></use>
                    <use fill="#FFFFFF" fill-rule="evenodd" xlink:href="#path-15"></use>
                </g>
                <polygon id="Fill-92" fill="#F8F8F9" points="13.2611614 83.458135 478.060994 83.458135 478.060994 64.9266118 13.2611614 64.9266118"></polygon>
                <path d="M56.846804,76.1531833 L21.5522718,76.1531833 C20.4768774,76.1531833 19.5949641,75.2703008 19.5949641,74.1937247 C19.5949641,73.1148964 20.4768774,72.2342662 21.5522718,72.2342662 L56.846804,72.2342662 C57.9244481,72.2342662 58.8041117,73.1148964 58.8041117,74.1937247 C58.8041117,75.2703008 57.9244481,76.1531833 56.846804,76.1531833" id="Fill-93" fill="#30374B"></path>
                <polygon id="Fill-95" fill="#EAEAEA" points="19.198328 299.041372 193.967907 299.041372 193.967907 90.764438 19.198328 90.764438"></polygon>
                <g id="Fill-96">
                    <use fill="black" fill-opacity="1" filter="url(#filter-18)" xlink:href="#path-17"></use>
                    <use fill="#FFFFFF" fill-rule="evenodd" xlink:href="#path-17"></use>
                </g>
                <path d="M37.0975694,273.536428 L114.892676,273.536428 C115.97032,273.536428 116.847734,274.419311 116.847734,275.495887 L116.847734,279.153543 C116.847734,280.230119 115.97032,281.113001 114.892676,281.113001 L37.0975694,281.113001 C36.0199253,281.113001 35.1402617,280.230119 35.1402617,279.153543 L35.1402617,275.495887 C35.1402617,274.419311 36.0199253,273.536428 37.0975694,273.536428" id="Fill-97" fill="#C1C1C1"></path>
                <path d="M184.97869,109.625691 L169.466464,109.625691 C168.242584,109.625691 167.236933,108.621187 167.236933,107.39371 L167.236933,103.229297 C167.236933,102.00182 168.242584,100.997316 169.466464,100.997316 L184.97869,100.997316 C186.204819,100.997316 187.205971,102.00182 187.205971,103.229297 L187.205971,107.39371 C187.205971,108.621187 186.204819,109.625691 184.97869,109.625691" id="Fill-98" fill="#9E9E9E"></path>
                <path d="M139.785355,164.670711 L107.462781,149.889186 C107.003826,149.679727 106.468379,149.681979 106.009424,149.893691 L82.1685161,160.979271 C81.3315984,161.368911 80.9783831,162.339631 81.3833433,163.148189 C81.7860537,163.956748 82.7917049,164.294585 83.6286227,163.904946 L106.747351,153.157203 L135.045071,166.096386 L106.578618,178.249534 L74.9827221,164.986026 C74.4630232,164.765306 73.8623322,164.814855 73.3876289,165.116657 C72.9129255,165.416206 72.6272036,165.927467 72.6272036,166.474764 L72.6272036,201.634659 C72.6272036,202.263037 73.0051664,202.837361 73.5968583,203.105379 L106.027422,217.774291 C106.034171,217.776543 106.040921,217.778795 106.04992,217.7833 C106.085916,217.799066 106.126412,217.814831 106.169158,217.828345 L106.214154,217.844111 C106.256899,217.857624 106.299645,217.868885 106.344641,217.880147 C106.360389,217.882399 106.371638,217.886903 106.385137,217.889156 C106.432382,217.900417 106.479628,217.907174 106.529123,217.91393 C106.540372,217.91393 106.55162,217.916183 106.562869,217.918435 C106.621364,217.925192 106.679858,217.927444 106.740602,217.927444 C106.803596,217.927444 106.86209,217.925192 106.922834,217.918435 C106.931833,217.916183 106.943082,217.91393 106.956581,217.91393 C107.003826,217.907174 107.051071,217.900417 107.098317,217.889156 C107.114065,217.886903 107.125314,217.882399 107.138813,217.880147 C107.183808,217.868885 107.226554,217.857624 107.2693,217.844111 C107.287298,217.839606 107.303047,217.832849 107.316545,217.828345 C107.357041,217.812579 107.397537,217.799066 107.435784,217.781048 C107.442533,217.778795 107.451532,217.776543 107.458281,217.772039 L139.780856,203.103126 C140.372548,202.835108 140.748261,202.263037 140.748261,201.634659 L140.748261,166.136927 C140.748261,165.510801 140.374797,164.938729 139.785355,164.670711 L139.785355,164.670711 Z M137.382591,200.60538 L108.425686,213.745013 L108.425686,188.114394 C108.425686,187.217998 107.67201,186.490521 106.740602,186.490521 C105.811443,186.490521 105.057767,187.217998 105.057767,188.114394 L105.057767,213.749518 L75.9951227,200.603127 L75.9951227,168.949989 L105.912683,181.513046 C106.344641,181.693226 106.835093,181.690974 107.2648,181.508541 L137.382591,168.648187 L137.382591,200.60538 Z" id="Fill-99" fill="#9E9E9E"></path>
                <path d="M62.9720522,111.947311 L28.1612224,111.947311 C27.0858281,111.947311 26.2039147,111.064429 26.2039147,109.987853 L26.2039147,99.1320018 C26.2039147,98.0554257 27.0858281,97.1725433 28.1612224,97.1725433 L62.9720522,97.1725433 C64.0496963,97.1725433 64.9293599,98.0554257 64.9293599,99.1320018 L64.9293599,109.987853 C64.9293599,111.064429 64.0496963,111.947311 62.9720522,111.947311" id="Fill-100" fill="#30374B"></path>
                <path d="M57.7453657,106.036278 L33.0427928,106.036278 C32.2306226,106.036278 31.5669378,105.371864 31.5669378,104.561053 C31.5669378,103.747991 32.2306226,103.083577 33.0427928,103.083577 L57.7453657,103.083577 C58.5552862,103.083577 59.218971,103.747991 59.218971,104.561053 C59.218971,105.371864 58.5552862,106.036278 57.7453657,106.036278" id="Fill-101" fill="#FFFFFF"></path>
                <path d="M174.008768,273.224041 L178.103365,277.323138 L174.008768,281.424488 C173.489069,281.94701 173.489069,282.800613 174.008768,283.323135 C174.530716,283.845658 175.385632,283.845658 175.907581,283.323135 L180.951586,278.273588 C181.473534,277.751066 181.473534,276.897463 180.951586,276.372688 L175.907581,271.323141 C175.385632,270.800618 174.530716,270.800618 174.008768,271.323141 C173.489069,271.845663 173.489069,272.701519 174.008768,273.224041" id="Fill-102" fill="#C1C1C1"></path>
                <g id="tirets" transform="translate(204.996098, 89.638087)" stroke="#30374B" stroke-width="0.5">
                    <polyline id="Stroke-103" points="264.155546 205.327611 264.155546 207.579862 261.905767 207.579862"></polyline>
                    <path d="M257.371113,207.579862 L5.64109576,207.579862" id="Stroke-104" stroke-dasharray="2.016,2.016"></path>
                    <polyline id="Stroke-105" points="3.37466844 207.579862 1.12488948 207.579862 1.12488948 205.327611"></polyline>
                    <path d="M1.12488948,200.839775 L1.12488948,5.62139387" id="Stroke-106" stroke-dasharray="1.993,1.993"></path>
                    <polyline id="Stroke-107" points="1.12488948 3.37837686 1.12488948 1.12612562 3.37466844 1.12612562"></polyline>
                    <path d="M7.9093229,1.12612562 L259.63934,1.12612562" id="Stroke-108" stroke-dasharray="2.016,2.016"></path>
                    <polyline id="Stroke-109" points="261.905767 1.12612562 264.155546 1.12612562 264.155546 3.37837686"></polyline>
                    <path d="M264.155546,7.86643791 L264.155546,203.084819" id="Stroke-110" stroke-dasharray="1.993,1.993"></path>
                </g>
                <polygon id="Fill-111" fill="#FFFFFF" points="13.2611614 345.804864 714.629751 345.804864 714.629751 323.135955 13.2611614 323.135955"></polygon>
                <path d="M43.9807681,336.428967 L26.2975055,336.428967 C25.2198614,336.428967 24.3401978,335.548337 24.3401978,334.469509 C24.3401978,333.392933 25.2198614,332.51005 26.2975055,332.51005 L43.9807681,332.51005 C45.0584122,332.51005 45.9380758,333.392933 45.9380758,334.469509 C45.9380758,335.548337 45.0584122,336.428967 43.9807681,336.428967" id="Fill-112" fill="#30374B"></path>
                <path d="M361.988374,336.428967 L335.132762,336.428967 C334.057368,336.428967 333.175454,335.548337 333.175454,334.469509 C333.175454,333.392933 334.057368,332.51005 335.132762,332.51005 L361.988374,332.51005 C363.066018,332.51005 363.945681,333.392933 363.945681,334.469509 C363.945681,335.548337 363.066018,336.428967 361.988374,336.428967" id="Fill-113" fill="#30374B"></path>
                <path d="M482.498908,336.428967 L455.643297,336.428967 C454.567902,336.428967 453.685989,335.548337 453.685989,334.469509 C453.685989,333.392933 454.567902,332.51005 455.643297,332.51005 L482.498908,332.51005 C483.576552,332.51005 484.456216,333.392933 484.456216,334.469509 C484.456216,335.548337 483.576552,336.428967 482.498908,336.428967" id="Fill-114" fill="#30374B"></path>
                <path d="M632.381432,336.428967 L605.525821,336.428967 C604.450426,336.428967 603.568513,335.548337 603.568513,334.469509 C603.568513,333.392933 604.450426,332.51005 605.525821,332.51005 L632.381432,332.51005 C633.459076,332.51005 634.33874,333.392933 634.33874,334.469509 C634.33874,335.548337 633.459076,336.428967 632.381432,336.428967" id="Fill-115" fill="#30374B"></path>
                <polygon id="Fill-116" fill="#C1C1C1" points="440.874398 345.804864 441.610076 345.804864 441.610076 323.135955 440.874398 323.135955"></polygon>
                <polygon id="Fill-117" fill="#C1C1C1" points="315.516714 345.804864 316.252392 345.804864 316.252392 323.135955 315.516714 323.135955"></polygon>
                <polygon id="Fill-118" fill="#C1C1C1" points="559.865207 345.804864 560.600885 345.804864 560.600885 323.135955 559.865207 323.135955"></polygon>
                <polygon id="Fill-119" fill="#C1C1C1" points="674.826662 345.804864 675.56234 345.804864 675.56234 323.135955 674.826662 323.135955"></polygon>
                <polygon id="Fill-120" fill="#FFFFFF" points="13.2611614 374.854401 714.629751 374.854401 714.629751 352.185492 13.2611614 352.185492"></polygon>
                <polygon id="Fill-121" fill="#C1C1C1" points="440.874398 374.854401 441.610076 374.854401 441.610076 352.185492 440.874398 352.185492"></polygon>
                <polygon id="Fill-122" fill="#C1C1C1" points="315.516714 374.854401 316.252392 374.854401 316.252392 352.185492 315.516714 352.185492"></polygon>
                <polygon id="Fill-123" fill="#C1C1C1" points="559.865207 374.854401 560.600885 374.854401 560.600885 352.185492 559.865207 352.185492"></polygon>
                <polygon id="Fill-124" fill="#C1C1C1" points="674.826662 374.854401 675.56234 374.854401 675.56234 352.185492 674.826662 352.185492"></polygon>
                <path d="M696.772581,360.164542 C696.772581,360.835713 696.230384,361.380758 695.5577,361.380758 C694.887266,361.380758 694.345069,360.835713 694.345069,360.164542 C694.345069,359.493371 694.887266,358.948327 695.5577,358.948327 C696.230384,358.948327 696.772581,359.493371 696.772581,360.164542" id="Fill-125" fill="#9E9E9E"></path>
                <path d="M696.772581,363.519721 C696.772581,364.190892 696.230384,364.735937 695.5577,364.735937 C694.887266,364.735937 694.345069,364.190892 694.345069,363.519721 C694.345069,362.84855 694.887266,362.303505 695.5577,362.303505 C696.230384,362.303505 696.772581,362.84855 696.772581,363.519721" id="Fill-126" fill="#9E9E9E"></path>
                <path d="M696.772581,366.875125 C696.772581,367.546296 696.230384,368.091341 695.5577,368.091341 C694.887266,368.091341 694.345069,367.546296 694.345069,366.875125 C694.345069,366.203954 694.887266,365.658909 695.5577,365.658909 C696.230384,365.658909 696.772581,366.203954 696.772581,366.875125" id="Fill-127" fill="#9E9E9E"></path>
                <path d="M624.188637,363.519721 C624.188637,366.413864 621.844367,368.76071 618.955651,368.76071 C616.064685,368.76071 613.720416,366.413864 613.720416,363.519721 C613.720416,360.625578 616.064685,358.278732 618.955651,358.278732 C621.844367,358.278732 624.188637,360.625578 624.188637,363.519721" id="Fill-128" fill="#209434"></path>
                <path d="M488.472521,366.028278 L455.272533,366.028278 C454.399619,366.028278 453.686439,365.314315 453.686439,364.440441 C453.686439,363.56882 454.399619,362.852604 455.272533,362.852604 L488.472521,362.852604 C489.345436,362.852604 490.058615,363.56882 490.058615,364.440441 C490.058615,365.314315 489.345436,366.028278 488.472521,366.028278" id="Fill-129" fill="#C1C1C1"></path>
                <path d="M348.102963,366.028278 L334.761774,366.028278 C333.891109,366.028278 333.175679,365.314315 333.175679,364.440441 C333.175679,363.56882 333.891109,362.852604 334.761774,362.852604 L348.102963,362.852604 C348.975877,362.852604 349.689057,363.56882 349.689057,364.440441 C349.689057,365.314315 348.975877,366.028278 348.102963,366.028278" id="Fill-130" fill="#C1C1C1"></path>
                <path d="M80.7705035,365.106657 L25.9253921,365.106657 C25.0524779,365.106657 24.3392979,364.392694 24.3392979,363.51882 C24.3392979,362.647199 25.0524779,361.933235 25.9253921,361.933235 L80.7705035,361.933235 C81.6434177,361.933235 82.3565977,362.647199 82.3565977,363.51882 C82.3565977,364.392694 81.6434177,365.106657 80.7705035,365.106657" id="Fill-131" fill="#C1C1C1"></path>
                <g id="Group" transform="translate(13.261161, 385.318360)">
                    <polygon id="Fill-132" fill="#FFFFFF" points="1.30739863e-12 243.409801 701.36859 243.409801 701.36859 9.66338121e-13 1.30739863e-12 9.66338121e-13"></polygon>
                    <g id="Fill-134">
                        <use fill="black" fill-opacity="1" filter="url(#filter-20)" xlink:href="#path-19"></use>
                        <use fill="#FFFFFF" fill-rule="evenodd" xlink:href="#path-19"></use>
                    </g>
                    <g id="Fill-136">
                        <use fill="black" fill-opacity="1" filter="url(#filter-22)" xlink:href="#path-21"></use>
                        <use fill="#FFFFFF" fill-rule="evenodd" xlink:href="#path-21"></use>
                    </g>
                    <g id="Fill-138">
                        <use fill="black" fill-opacity="1" filter="url(#filter-24)" xlink:href="#path-23"></use>
                        <use fill="#FFFFFF" fill-rule="evenodd" xlink:href="#path-23"></use>
                    </g>
                    <g id="Fill-140">
                        <use fill="black" fill-opacity="1" filter="url(#filter-26)" xlink:href="#path-25"></use>
                        <use fill="#FFFFFF" fill-rule="evenodd" xlink:href="#path-25"></use>
                    </g>
                    <g id="Fill-142">
                        <use fill="black" fill-opacity="1" filter="url(#filter-28)" xlink:href="#path-27"></use>
                        <use fill="#FFFFFF" fill-rule="evenodd" xlink:href="#path-27"></use>
                    </g>
                    <polygon id="Fill-143" fill="#F8F8F9" points="1.30739863e-12 18.529271 701.36859 18.529271 701.36859 5.96855898e-13 1.30739863e-12 5.96855898e-13"></polygon>
                    <path d="M29.6651354,11.2240941 L11.979623,11.2240941 C10.9042286,11.2240941 10.0245651,10.3434638 10.0245651,9.26463548 C10.0245651,8.18805939 10.9042286,7.3051769 11.979623,7.3051769 L29.6651354,7.3051769 C30.7427795,7.3051769 31.6224431,8.18805939 31.6224431,9.26463548 C31.6224431,10.3434638 30.7427795,11.2240941 29.6651354,11.2240941" id="Fill-144" fill="#30374B"></path>
                    <path d="M20.2068397,29.7547164 L11.979398,29.7547164 C10.9040037,29.7547164 10.0243401,28.8718339 10.0243401,27.7952578 C10.0243401,26.7164294 10.9040037,25.8357992 11.979398,25.8357992 L20.2068397,25.8357992 C21.2844838,25.8357992 22.1641473,26.7164294 22.1641473,27.7952578 C22.1641473,28.8718339 21.2844838,29.7547164 20.2068397,29.7547164" id="Fill-145" fill="#30374B"></path>
                    <path d="M20.0684782,55.217768 L10.3516829,55.217768 C9.4787687,55.217768 8.76783855,54.5038044 8.76783855,53.6299309 C8.76783855,52.7583097 9.4787687,52.0420938 10.3516829,52.0420938 L20.0684782,52.0420938 C20.9413925,52.0420938 21.6545724,52.7583097 21.6545724,53.6299309 C21.6545724,54.5038044 20.9413925,55.217768 20.0684782,55.217768" id="Fill-146" fill="#C1C1C1"></path>
                    <path d="M144.116115,55.217768 L134.40157,55.217768 C133.528656,55.217768 132.815476,54.5038044 132.815476,53.6299309 C132.815476,52.7583097 133.528656,52.0420938 134.40157,52.0420938 L144.116115,52.0420938 C144.98903,52.0420938 145.70221,52.7583097 145.70221,53.6299309 C145.70221,54.5038044 144.98903,55.217768 144.116115,55.217768" id="Fill-147" fill="#C1C1C1"></path>
                    <path d="M116.171836,55.217768 L55.0565906,55.217768 C54.1836764,55.217768 53.4704965,54.5038044 53.4704965,53.6299309 C53.4704965,52.7583097 54.1836764,52.0420938 55.0565906,52.0420938 L116.171836,52.0420938 C117.04475,52.0420938 117.75793,52.7583097 117.75793,53.6299309 C117.75793,54.5038044 117.04475,55.217768 116.171836,55.217768" id="Fill-148" fill="#C1C1C1"></path>
                    <path d="M42.8540145,55.217768 L36.3589027,55.217768 C35.4882382,55.217768 34.7728085,54.5038044 34.7728085,53.6299309 C34.7728085,52.7583097 35.4882382,52.0420938 36.3589027,52.0420938 L42.8540145,52.0420938 C43.7269288,52.0420938 44.4401087,52.7583097 44.4401087,53.6299309 C44.4401087,54.5038044 43.7269288,55.217768 42.8540145,55.217768" id="Fill-149" fill="#C1C1C1"></path>
                    <path d="M171.499975,55.5907408 L163.272533,55.5907408 C162.194889,55.5907408 161.315226,54.7078583 161.315226,53.6312822 C161.315226,52.5524539 162.194889,51.6718237 163.272533,51.6718237 L171.499975,51.6718237 C172.577619,51.6718237 173.457283,52.5524539 173.457283,53.6312822 C173.457283,54.7078583 172.577619,55.5907408 171.499975,55.5907408" id="Fill-150" fill="#30374B"></path>
                    <path d="M314.875013,55.5907408 L188.819898,55.5907408 C187.742254,55.5907408 186.862591,54.7078583 186.862591,53.6312822 C186.862591,52.5524539 187.742254,51.6718237 188.819898,51.6718237 L314.875013,51.6718237 C315.952657,51.6718237 316.832321,52.5524539 316.832321,53.6312822 C316.832321,54.7078583 315.952657,55.5907408 314.875013,55.5907408" id="Fill-151" fill="#30374B"></path>
                    <g id="Fill-153">
                        <use fill="black" fill-opacity="1" filter="url(#filter-30)" xlink:href="#path-29"></use>
                        <use fill="#FFFFFF" fill-rule="evenodd" xlink:href="#path-29"></use>
                    </g>
                    <path d="M140.932453,78.3013162 L142.613038,76.6166323 C142.761524,76.4679837 142.761524,76.2247406 142.613038,76.0738397 C142.464553,75.9251911 142.219327,75.9251911 142.070841,76.0738397 L140.390256,77.7585237 L138.709672,76.0738397 C138.558936,75.9251911 138.31596,75.9251911 138.167475,76.0738397 C138.01674,76.2247406 138.01674,76.4679837 138.167475,76.6166323 L139.84806,78.3013162 L138.167475,79.9837479 C138.01674,80.1323965 138.01674,80.3778918 138.167475,80.5265404 C138.31596,80.6774413 138.558936,80.6774413 138.709672,80.5265404 L140.390256,78.8441088 L142.070841,80.5265404 C142.219327,80.6774413 142.464553,80.6774413 142.613038,80.5265404 C142.761524,80.3778918 142.761524,80.1323965 142.613038,79.9837479 L140.932453,78.3013162 Z" id="Fill-154" fill="#C1C1C1"></path>
                    <path d="M30.1198157,107.534411 L32.5225796,109.939816 L30.1198157,112.342968 C29.8138458,112.649274 29.8138458,113.151526 30.1198157,113.457832 C30.4280354,113.764138 30.9274863,113.764138 31.2334563,113.457832 L34.1941654,110.496122 C34.4978855,110.189817 34.4978855,109.689817 34.1941654,109.381257 L31.2334563,106.419547 C30.9274863,106.113241 30.4280354,106.113241 30.1220655,106.419547 C29.8138458,106.725853 29.8138458,107.228105 30.1198157,107.534411" id="Fill-155" fill="#30374B"></path>
                    <path d="M46.6592907,111.526301 L42.6299366,111.526301 C41.7570223,111.526301 41.0438424,110.812338 41.0438424,109.938464 C41.0438424,109.066843 41.7570223,108.350627 42.6299366,108.350627 L46.6592907,108.350627 C47.5322049,108.350627 48.2453848,109.066843 48.2453848,109.938464 C48.2453848,110.812338 47.5322049,111.526301 46.6592907,111.526301" id="Fill-156" fill="#30374B"></path>
                    <path d="M113.961428,111.526301 L58.106166,111.526301 C57.2332518,111.526301 56.5200718,110.812338 56.5200718,109.938464 C56.5200718,109.066843 57.2332518,108.350627 58.106166,108.350627 L113.961428,108.350627 C114.834342,108.350627 115.545273,109.066843 115.545273,109.938464 C115.545273,110.812338 114.834342,111.526301 113.961428,111.526301" id="Fill-157" fill="#C1C1C1"></path>
                    <path d="M30.1198157,122.5049 L32.5225796,124.910304 L30.1198157,127.315709 C29.8138458,127.622015 29.8138458,128.124267 30.1198157,128.428321 C30.4280354,128.736879 30.9274863,128.736879 31.2334563,128.428321 L34.1941654,125.46661 C34.4978855,125.160306 34.4978855,124.660306 34.1941654,124.351746 L31.2334563,121.390036 C30.9274863,121.083729 30.4280354,121.083729 30.1220655,121.390036 C29.8138458,121.696342 29.8138458,122.198594 30.1198157,122.5049" id="Fill-158" fill="#30374B"></path>
                    <path d="M46.6592907,126.498141 L42.6299366,126.498141 C41.7570223,126.498141 41.0438424,125.784178 41.0438424,124.910304 C41.0438424,124.036431 41.7570223,123.322467 42.6299366,123.322467 L46.6592907,123.322467 C47.5322049,123.322467 48.2453848,124.036431 48.2453848,124.910304 C48.2453848,125.784178 47.5322049,126.498141 46.6592907,126.498141" id="Fill-159" fill="#30374B"></path>
                    <path d="M113.961428,126.498141 L58.106166,126.498141 C57.2332518,126.498141 56.5200718,125.784178 56.5200718,124.910304 C56.5200718,124.036431 57.2332518,123.322467 58.106166,123.322467 L113.961428,123.322467 C114.834342,123.322467 115.545273,124.036431 115.545273,124.910304 C115.545273,125.784178 114.834342,126.498141 113.961428,126.498141" id="Fill-160" fill="#C1C1C1"></path>
                    <path d="M30.1198157,137.475614 L32.5225796,139.881018 L30.1198157,142.286423 C29.8138458,142.592729 29.8138458,143.094981 30.1198157,143.401287 C30.4280354,143.707593 30.9274863,143.707593 31.2334563,143.401287 L34.1941654,140.437324 C34.4978855,140.13327 34.4978855,139.631018 34.1941654,139.324712 L31.2334563,136.36075 C30.9274863,136.056696 30.4280354,136.056696 30.1220655,136.36075 C29.8138458,136.669308 29.8138458,137.169308 30.1198157,137.475614" id="Fill-161" fill="#30374B"></path>
                    <path d="M46.6592907,141.468855 L42.6299366,141.468855 C41.7570223,141.468855 41.0438424,140.754892 41.0438424,139.881018 C41.0438424,139.009397 41.7570223,138.293181 42.6299366,138.293181 L46.6592907,138.293181 C47.5322049,138.293181 48.2453848,139.009397 48.2453848,139.881018 C48.2453848,140.754892 47.5322049,141.468855 46.6592907,141.468855" id="Fill-162" fill="#30374B"></path>
                    <path d="M113.961428,141.468855 L58.106166,141.468855 C57.2332518,141.468855 56.5200718,140.754892 56.5200718,139.881018 C56.5200718,139.009397 57.2332518,138.293181 58.106166,138.293181 L113.961428,138.293181 C114.834342,138.293181 115.545273,139.009397 115.545273,139.881018 C115.545273,140.754892 114.834342,141.468855 113.961428,141.468855" id="Fill-163" fill="#C1C1C1"></path>
                    <g id="Fill-165">
                        <use fill="black" fill-opacity="1" filter="url(#filter-32)" xlink:href="#path-31"></use>
                        <use fill="#FFFFFF" fill-rule="evenodd" xlink:href="#path-31"></use>
                    </g>
                    <g id="Fill-167">
                        <use fill="black" fill-opacity="1" filter="url(#filter-34)" xlink:href="#path-33"></use>
                        <use fill="#FFFFFF" fill-rule="evenodd" xlink:href="#path-33"></use>
                    </g>
                    <path d="M390.394243,116.456479 L371.840316,116.456479 C370.762672,116.456479 369.883009,115.573597 369.883009,114.497021 C369.883009,113.418192 370.762672,112.537562 371.840316,112.537562 L390.394243,112.537562 C391.471887,112.537562 392.351551,113.418192 392.351551,114.497021 C392.351551,115.573597 391.471887,116.456479 390.394243,116.456479" id="Fill-180" fill="#C1C1C1"></path>
                    <path d="M471.001799,116.456479 L452.447871,116.456479 C451.370227,116.456479 450.490564,115.573597 450.490564,114.497021 C450.490564,113.418192 451.370227,112.537562 452.447871,112.537562 L471.001799,112.537562 C472.079443,112.537562 472.959106,113.418192 472.959106,114.497021 C472.959106,115.573597 472.079443,116.456479 471.001799,116.456479" id="Fill-181" fill="#C1C1C1"></path>
                    <path d="M539.778216,116.456479 L521.226539,116.456479 C520.148895,116.456479 519.269231,115.573597 519.269231,114.497021 C519.269231,113.418192 520.148895,112.537562 521.226539,112.537562 L539.778216,112.537562 C540.85586,112.537562 541.735524,113.418192 541.735524,114.497021 C541.735524,115.573597 540.85586,116.456479 539.778216,116.456479" id="Fill-182" fill="#C1C1C1"></path>
                    <path d="M637.69872,116.456479 L623.034661,116.456479 C621.959267,116.456479 621.077353,115.573597 621.077353,114.497021 C621.077353,113.418192 621.959267,112.537562 623.034661,112.537562 L637.69872,112.537562 C638.776365,112.537562 639.656028,113.418192 639.656028,114.497021 C639.656028,115.573597 638.776365,116.456479 637.69872,116.456479" id="Fill-183" fill="#C1C1C1"></path>
                    <polygon id="Fill-168" fill="#30374B" points="5.9551649 101.738693 148.075951 101.738693 148.075951 88.0157263 5.9551649 88.0157263"></polygon>
                    <path d="M20.9998867,92.8386971 L18.5971228,95.2441014 L16.1943589,92.8386971 C15.8906387,92.5323909 15.388938,92.5323909 15.0807183,92.8386971 C14.7747484,93.1450032 14.7747484,93.6472553 15.0807183,93.9535614 L18.0414274,96.9152718 C18.3451476,97.221578 18.8468483,97.221578 19.155068,96.9152718 L22.1135273,93.9535614 C22.4194973,93.6472553 22.4194973,93.1450032 22.1135273,92.8386971 C21.8053076,92.5323909 21.3058567,92.5323909 20.9998867,92.8386971" id="Fill-169" fill="#FFFFFF"></path>
                    <path d="M34.5777527,96.4643711 L30.5483986,96.4643711 C29.6777341,96.4643711 28.9645542,95.7504075 28.9645542,94.876534 C28.9645542,94.0049128 29.6777341,93.2886969 30.5483986,93.2886969 L34.5777527,93.2886969 C35.4506669,93.2886969 36.1638469,94.0049128 36.1638469,94.876534 C36.1638469,95.7504075 35.4506669,96.4643711 34.5777527,96.4643711" id="Fill-170" fill="#FFFFFF"></path>
                    <path d="M101.87989,96.4643711 L46.024628,96.4643711 C45.1517138,96.4643711 44.4407836,95.7504075 44.4407836,94.876534 C44.4407836,94.0049128 45.1517138,93.2886969 46.024628,93.2886969 L101.87989,93.2886969 C102.752804,93.2886969 103.465984,94.0049128 103.465984,94.876534 C103.465984,95.7504075 102.752804,96.4643711 101.87989,96.4643711" id="Fill-171" fill="#FFFFFF"></path>
                    <path d="M168.797765,88.739825 L165.544585,88.739825 C164.47144,88.739825 163.596276,87.8636993 163.596276,86.7916277 L163.596276,83.5326202 C163.596276,82.4605486 164.47144,81.5844228 165.544585,81.5844228 L168.797765,81.5844228 C169.86866,81.5844228 170.743824,82.4605486 170.743824,83.5326202 L170.743824,86.7916277 C170.743824,87.8636993 169.86866,88.739825 168.797765,88.739825 Z" id="Stroke-172" stroke="#C1C1C1" stroke-width="0.5"></path>
                    <path d="M168.797765,118.074046 L165.544585,118.074046 C164.47144,118.074046 163.596276,117.19792 163.596276,116.125849 L163.596276,112.866841 C163.596276,111.797022 164.47144,110.918644 165.544585,110.918644 L168.797765,110.918644 C169.86866,110.918644 170.743824,111.797022 170.743824,112.866841 L170.743824,116.125849 C170.743824,117.19792 169.86866,118.074046 168.797765,118.074046 Z" id="Stroke-173" stroke="#C1C1C1" stroke-width="0.5"></path>
                    <path d="M168.797765,148.477411 L165.544585,148.477411 C164.47144,148.477411 163.596276,147.601285 163.596276,146.529214 L163.596276,143.270206 C163.596276,142.200387 164.47144,141.322009 165.544585,141.322009 L168.797765,141.322009 C169.86866,141.322009 170.743824,142.200387 170.743824,143.270206 L170.743824,146.529214 C170.743824,147.601285 169.86866,148.477411 168.797765,148.477411 Z" id="Stroke-174" stroke="#C1C1C1" stroke-width="0.5"></path>
                    <path d="M213.819667,87.1222582 L192.388273,87.1222582 C191.310629,87.1222582 190.430965,86.2393757 190.430965,85.1627996 C190.430965,84.0839713 191.310629,83.203341 192.388273,83.203341 L213.819667,83.203341 C214.897311,83.203341 215.774725,84.0839713 215.774725,85.1627996 C215.774725,86.2393757 214.897311,87.1222582 213.819667,87.1222582" id="Fill-175" fill="#30374B"></path>
                    <path d="M390.394243,87.1222582 L371.840316,87.1222582 C370.762672,87.1222582 369.883009,86.2393757 369.883009,85.1627996 C369.883009,84.0839713 370.762672,83.203341 371.840316,83.203341 L390.394243,83.203341 C391.471887,83.203341 392.351551,84.0839713 392.351551,85.1627996 C392.351551,86.2393757 391.471887,87.1222582 390.394243,87.1222582" id="Fill-176" fill="#30374B"></path>
                    <path d="M471.001799,87.1222582 L452.447871,87.1222582 C451.370227,87.1222582 450.490564,86.2393757 450.490564,85.1627996 C450.490564,84.0839713 451.370227,83.203341 452.447871,83.203341 L471.001799,83.203341 C472.079443,83.203341 472.959106,84.0839713 472.959106,85.1627996 C472.959106,86.2393757 472.079443,87.1222582 471.001799,87.1222582" id="Fill-177" fill="#30374B"></path>
                    <path d="M539.778216,87.1222582 L521.226539,87.1222582 C520.148895,87.1222582 519.269231,86.2393757 519.269231,85.1627996 C519.269231,84.0839713 520.148895,83.203341 521.226539,83.203341 L539.778216,83.203341 C540.85586,83.203341 541.735524,84.0839713 541.735524,85.1627996 C541.735524,86.2393757 540.85586,87.1222582 539.778216,87.1222582" id="Fill-178" fill="#30374B"></path>
                    <path d="M637.69872,87.1222582 L623.034661,87.1222582 C621.959267,87.1222582 621.077353,86.2393757 621.077353,85.1627996 C621.077353,84.0839713 621.959267,83.203341 623.034661,83.203341 L637.69872,83.203341 C638.776365,83.203341 639.656028,84.0839713 639.656028,85.1627996 C639.656028,86.2393757 638.776365,87.1222582 637.69872,87.1222582" id="Fill-179" fill="#30374B"></path>
                    <path d="M390.554556,146.473551 L372.000629,146.473551 C370.922985,146.473551 370.043321,145.590668 370.043321,144.514092 C370.043321,143.435264 370.922985,142.554634 372.000629,142.554634 L390.554556,142.554634 C391.6322,142.554634 392.511864,143.435264 392.511864,144.514092 C392.511864,145.590668 391.6322,146.473551 390.554556,146.473551" id="Fill-180" fill="#C1C1C1"></path>
                    <path d="M470.524556,146.473551 L451.970629,146.473551 C450.892985,146.473551 450.013321,145.590668 450.013321,144.514092 C450.013321,143.435264 450.892985,142.554634 451.970629,142.554634 L470.524556,142.554634 C471.6022,142.554634 472.481864,143.435264 472.481864,144.514092 C472.481864,145.590668 471.6022,146.473551 470.524556,146.473551" id="Fill-181" fill="#C1C1C1"></path>
                    <path d="M539.587306,146.473551 L521.035629,146.473551 C519.957985,146.473551 519.078321,145.590668 519.078321,144.514092 C519.078321,143.435264 519.957985,142.554634 521.035629,142.554634 L539.587306,142.554634 C540.66495,142.554634 541.544614,143.435264 541.544614,144.514092 C541.544614,145.590668 540.66495,146.473551 539.587306,146.473551" id="Fill-182" fill="#C1C1C1"></path>
                    <path d="M637.479688,146.473551 L622.815629,146.473551 C621.740235,146.473551 620.858321,145.590668 620.858321,144.514092 C620.858321,143.435264 621.740235,142.554634 622.815629,142.554634 L637.479688,142.554634 C638.557332,142.554634 639.436996,143.435264 639.436996,144.514092 C639.436996,145.590668 638.557332,146.473551 637.479688,146.473551" id="Fill-183" fill="#C1C1C1"></path>
                    <path d="M680.951846,111.141392 C680.951846,111.812562 680.409649,112.357607 679.736965,112.357607 C679.066531,112.357607 678.524334,111.812562 678.524334,111.141392 C678.524334,110.470221 679.066531,109.925176 679.736965,109.925176 C680.409649,109.925176 680.951846,110.470221 680.951846,111.141392" id="Fill-184" fill="#9E9E9E"></path>
                    <path d="M680.951846,114.496795 C680.951846,115.167966 680.409649,115.713011 679.736965,115.713011 C679.066531,115.713011 678.524334,115.167966 678.524334,114.496795 C678.524334,113.825625 679.066531,113.28058 679.736965,113.28058 C680.409649,113.28058 680.951846,113.825625 680.951846,114.496795" id="Fill-185" fill="#9E9E9E"></path>
                    <path d="M680.951846,117.851974 C680.951846,118.523145 680.409649,119.06819 679.736965,119.06819 C679.066531,119.06819 678.524334,118.523145 678.524334,117.851974 C678.524334,117.180803 679.066531,116.635758 679.736965,116.635758 C680.409649,116.635758 680.951846,117.180803 680.951846,117.851974" id="Fill-186" fill="#9E9E9E"></path>
                    <path d="M680.951846,141.544531 C680.951846,142.215702 680.409649,142.760747 679.736965,142.760747 C679.066531,142.760747 678.524334,142.215702 678.524334,141.544531 C678.524334,140.87336 679.066531,140.328315 679.736965,140.328315 C680.409649,140.328315 680.951846,140.87336 680.951846,141.544531" id="Fill-187" fill="#9E9E9E"></path>
                    <path d="M680.951846,144.899935 C680.951846,145.571106 680.409649,146.116151 679.736965,146.116151 C679.066531,146.116151 678.524334,145.571106 678.524334,144.899935 C678.524334,144.228764 679.066531,143.683719 679.736965,143.683719 C680.409649,143.683719 680.951846,144.228764 680.951846,144.899935" id="Fill-188" fill="#9E9E9E"></path>
                    <path d="M680.951846,148.255114 C680.951846,148.926285 680.409649,149.471329 679.736965,149.471329 C679.066531,149.471329 678.524334,148.926285 678.524334,148.255114 C678.524334,147.583943 679.066531,147.038898 679.736965,147.038898 C680.409649,147.038898 680.951846,147.583943 680.951846,148.255114" id="Fill-189" fill="#9E9E9E"></path>
                </g>
                <path d="M384.497187,228.075638 L281.855522,228.075638 C280.777878,228.075638 279.898214,227.192755 279.898214,226.116179 L279.898214,210.42024 C279.898214,209.341412 280.777878,208.460782 281.855522,208.460782 L384.497187,208.460782 C385.574831,208.460782 386.454495,209.341412 386.454495,210.42024 L386.454495,226.116179 C386.454495,227.192755 385.574831,228.075638 384.497187,228.075638" id="Fill-190" fill="#30374B"></path>
                <path d="M368.786081,220.226993 L296.615421,220.226993 C295.537777,220.226993 294.658114,219.34411 294.658114,218.267534 C294.658114,217.188706 295.537777,216.308075 296.615421,216.308075 L368.786081,216.308075 C369.863725,216.308075 370.741139,217.188706 370.741139,218.267534 C370.741139,219.34411 369.863725,220.226993 368.786081,220.226993" id="Fill-191" fill="#FFFFFF"></path>
                <path d="M362.546544,183.449757 L312.722939,183.449757 C311.647545,183.449757 310.765631,182.566874 310.765631,181.490298 C310.765631,180.41147 311.647545,179.53084 312.722939,179.53084 L362.546544,179.53084 C363.624188,179.53084 364.503851,180.41147 364.503851,181.490298 C364.503851,182.566874 363.624188,183.449757 362.546544,183.449757" id="Fill-192" fill="#30374B"></path>
                <rect id="Rectangle" fill="#30374B" x="342.901667" y="25.4729615" width="26.6566667" height="1.21299817"></rect>
            </g>
        </g>
    </g>
</svg>