<?xml version="1.0" encoding="utf-8"?>
<!-- Generator: Adobe Illustrator 22.1.0, SVG Export Plug-In . SVG Version: 6.00 Build 0)  -->
<svg version="1.1" id="Layer_1" xmlns="http://www.w3.org/2000/svg" xmlns:xlink="http://www.w3.org/1999/xlink" x="0px" y="0px"
	 viewBox="0 0 72 96" style="enable-background:new 0 0 72 96;" xml:space="preserve">
<style type="text/css">
	.st0{fill:#f50145;}
	.st1{fill:#FFFFFF;}
</style>
<g>
	<path class="st0" d="M0,2v92c0,1.1,0.9,2,2,2h68c1.1,0,2-0.9,2-2V28H50c-1.1,0-2-0.9-2-2V0H2C0.9,0,0,0.9,0,2z"/>
	<path class="st0" d="M71.9,24c-0.1-0.4-0.2-0.7-0.4-1L52,1.2V24H71.9z"/>
</g>
<rect x="6" y="41" class="st1" width="60" height="49"/>
<g>
	<path class="st0" d="M56.3,72.3c0,1.1-0.3,2-1.1,2.7c-3.2,3.3-6.5,6.5-9.8,9.7c-1.5,1.5-3.8,1.5-5.3,0.1c-2.8-2.7-5.6-5.5-8.3-8.3
		c-1.6-1.6-1.3-4.2,0.4-5.7c0.5-0.4,0.6,0,0.9,0.2c3,3,6.1,6,9.1,9.1c0.5,0.5,0.7,0.5,1.2,0c2.4-2.5,4.8-4.9,7.3-7.3
		c0.5-0.5,0.5-0.7,0-1.1c-0.6-0.5-1.1-1.1-1.7-1.7c-0.4-0.3-0.5-0.6,0-0.9c0.9-0.8,1.7-1.6,2.5-2.5c0.3-0.3,0.5-0.4,0.9,0
		c1,1,2,2,3,3.1C56,70.4,56.3,71.3,56.3,72.3z"/>
	<path class="st0" d="M30.5,86.4c-1.2,0-2.1-0.4-2.9-1.1c-3.2-3.2-6.4-6.4-9.6-9.5c-1.7-1.7-1.7-4,0-5.7c2.6-2.7,5.3-5.3,7.9-7.9
		c1.7-1.7,4-1.6,5.7,0c0.5,0.5,0.4,0.7,0,1.1c-3,3-6,6-9.1,9c-0.5,0.5-0.5,0.8,0,1.3c2.4,2.4,4.8,4.8,7.2,7.2c0.4,0.4,0.7,0.5,1.1,0
		c0.6-0.6,1.2-1.2,1.8-1.8c0.3-0.3,0.5-0.3,0.7,0c0.9,0.9,1.7,1.7,2.6,2.6c0.3,0.3,0.3,0.5,0,0.8c-1,1-2,2-3.1,3
		C32.3,86.1,31.4,86.4,30.5,86.4z"/>
	<path class="st0" d="M16.3,60.5c0-1,0.4-1.9,1.1-2.6c3.2-3.3,6.5-6.5,9.8-9.7c1.5-1.5,3.9-1.5,5.4,0c2.7,2.7,5.4,5.4,8.1,8.1
		c1.6,1.6,1.5,3.9,0,5.6c-0.4,0.5-0.7,0.5-1.1,0c-3-3-6-6-9-9c-0.6-0.6-0.8-0.5-1.3,0c-2.4,2.4-4.8,4.8-7.2,7.2
		c-0.4,0.4-0.5,0.7,0,1.1c0,0,0.1,0.1,0.1,0.1c0.7,0.7,1.9,1.3,1.9,2.1c-0.1,0.7-1.2,1.4-1.9,2.1c-1.2,1.2-1.2,1.2-2.5,0
		c-0.7-0.7-1.4-1.4-2.1-2.1C16.6,62.5,16.3,61.5,16.3,60.5z"/>
	<path class="st0" d="M42.2,46.4c1.1,0,2,0.4,2.7,1.1c3.2,3.2,6.5,6.4,9.7,9.7c1.6,1.6,1.6,3.9,0,5.5c-2.6,2.7-5.3,5.3-8,8
		c-1.7,1.6-4,1.6-5.7,0c-0.4-0.4-0.5-0.6,0-1.1c3.1-3,6.1-6.1,9.1-9.1c0.5-0.5,0.5-0.8,0-1.3c-2.4-2.4-4.8-4.7-7.1-7.1
		c-0.5-0.5-0.8-0.6-1.3,0c-0.5,0.6-1.1,1.1-1.7,1.7c-0.3,0.3-0.5,0.4-0.9,0c-0.8-0.9-1.7-1.7-2.5-2.5c-0.4-0.3-0.3-0.6,0-0.9
		c1-1,2-2,3-3C40.3,46.8,41.2,46.4,42.2,46.4z"/>
	<path class="st0" d="M44,60.3c1.6,0.1,2.6,0.6,3.4,1.4c0.3,0.3,0.2,0.5,0,0.7c-2.3,2.3-4.6,4.6-6.9,6.9c-0.4,0.4-0.6,0.3-0.9,0
		c-0.8-0.8-1.6-1.7-2.5-2.5c-0.3-0.3-0.4-0.5,0-0.9c1.5-1.5,3-3,4.6-4.5C42.4,60.7,43.4,60.3,44,60.3z"/>
	<path class="st0" d="M42.4,74.5c0,1.2-0.5,2.2-1.4,3c-0.3,0.3-0.5,0.3-0.7,0c-2.3-2.3-4.6-4.6-7-6.9c-0.3-0.3-0.3-0.5,0-0.7
		c0.9-0.8,1.8-1.7,2.6-2.6c0.3-0.3,0.5-0.3,0.8,0c1.5,1.6,3.1,3.1,4.7,4.7C42.1,72.6,42.4,73.5,42.4,74.5z"/>
	<path class="st0" d="M32,55.1c0.2,0.1,0.3,0.3,0.4,0.4c2.3,2.3,4.5,4.5,6.8,6.8c0.3,0.3,0.3,0.5,0,0.9c-0.9,0.8-1.7,1.7-2.5,2.5
		c-0.3,0.3-0.5,0.3-0.8,0c-1.5-1.6-3.1-3-4.6-4.6c-1.6-1.7-1.4-4.1,0.3-5.6C31.7,55.3,31.8,55.2,32,55.1z"/>
	<path class="st0" d="M28.3,72.5c-1.2,0-2.2-0.5-3-1.4c-0.3-0.3-0.3-0.5,0-0.7c2.3-2.3,4.6-4.6,6.9-6.9c0.3-0.3,0.5-0.3,0.8,0
		c0.8,0.9,1.7,1.7,2.6,2.6c0.3,0.3,0.3,0.4,0,0.7c-1.6,1.6-3.2,3.2-4.8,4.8C30.1,72.2,29.2,72.5,28.3,72.5z"/>
</g>
<g>
	<path class="st1" d="M8.6,6.2v14.2H5.4V6.2H8.6z"/>
	<path class="st1" d="M11.4,6.2h8.7v2.6h-5.4V12h5.1v2.6h-5.1v5.7h-3.2V6.2z"/>
	<path class="st1" d="M32.9,20c-0.6,0.3-1.9,0.6-3.6,0.6c-4.9,0-7.4-3.1-7.4-7.1c0-4.8,3.5-7.5,7.7-7.5c1.7,0,2.9,0.3,3.5,0.6
		l-0.7,2.5c-0.7-0.3-1.6-0.5-2.7-0.5c-2.5,0-4.5,1.5-4.5,4.7c0,2.8,1.7,4.6,4.5,4.6c1,0,2-0.2,2.7-0.5L32.9,20z"/>
</g>
</svg>
