<?xml version="1.0" encoding="utf-8"?>
<!-- Generator: Adobe Illustrator 22.1.0, SVG Export Plug-In . SVG Version: 6.00 Build 0)  -->
<svg version="1.1" id="Layer_1" xmlns="http://www.w3.org/2000/svg" xmlns:xlink="http://www.w3.org/1999/xlink" x="0px" y="0px"
	 viewBox="0 0 72 96" style="enable-background:new 0 0 72 96;" xml:space="preserve">
<style type="text/css">
	.st0{fill:#30374B;}
	.st1{fill:#FFFFFF;}
</style>
<g>
	<path class="st0" d="M0,2v92c0,1.1,0.9,2,2,2h68c1.1,0,2-0.9,2-2V28H50c-1.1,0-2-0.9-2-2V0H2C0.9,0,0,0.9,0,2z"/>
	<path class="st0" d="M71.9,24c-0.1-0.4-0.2-0.7-0.4-1L52,1.2V24H71.9z"/>
</g>
<rect x="6" y="41" class="st1" width="60" height="49"/>
<g>
	<path class="st0" d="M31.5,72.1l-0.1-1.3c-0.2-2.6,0.7-5.2,3-8c1.6-1.9,2.9-3.6,2.9-5.3c0-1.8-1.2-2.9-3.7-3c-1.7,0-3.7,0.6-5,1.5
		l-1.7-5.5c1.8-1.1,4.9-2.1,8.5-2.1c6.7,0,9.8,3.7,9.8,7.9c0,3.9-2.4,6.4-4.3,8.5c-1.9,2.1-2.6,4.1-2.6,6.3v0.9H31.5z M30.1,79.1
		c0-2.7,1.9-4.6,4.5-4.6c2.7,0,4.5,1.9,4.6,4.6c0,2.6-1.8,4.6-4.6,4.6C32,83.7,30.1,81.7,30.1,79.1z"/>
</g>
</svg>
