<?xml version="1.0" encoding="utf-8"?>
<!-- Generator: Adobe Illustrator 23.0.4, SVG Export Plug-In . SVG Version: 6.00 Build 0)  -->
<svg version="1.1" id="Calque_1" xmlns="http://www.w3.org/2000/svg" xmlns:xlink="http://www.w3.org/1999/xlink" x="0px" y="0px"
	 viewBox="0 0 23 23" style="enable-background:new 0 0 23 23;" xml:space="preserve">
<style type="text/css">
	.st0{fill-rule:evenodd;clip-rule:evenodd;fill:#95989A;}
</style>
<g>
	<path class="st0" d="M16.8,1.9C16.8,1.9,16.8,1.9,16.8,1.9c-0.1,0-0.1,0-0.1,0l-5,4.6c0,0,0,0.1,0,0.1l0.9,0.9c0,0,0.1,0,0.1,0
		l4-3.7l4,3.7c0,0,0.1,0,0.1,0l0.9-0.9c0,0,0-0.1,0-0.1L16.8,1.9z"/>
	<path class="st0" d="M4.2,0.7l-3,8h1.8l0.6-1.7h2.9l0.6,1.7h1.8l-3-8H4.2z M3.9,5.7l1-3l1,3H3.9z"/>
	<polygon class="st0" points="7.9,15.2 7.9,14.3 1.9,14.3 1.9,15.6 5.9,15.6 1.9,21.3 1.9,22.3 8,22.3 8,21 4,21 	"/>
	<path class="st0" d="M20.7,15.5l-4,3.7l-4-3.7c0,0-0.1,0-0.1,0l-0.9,0.9c0,0,0,0.1,0,0.1l5,4.6c0,0,0.1,0,0.1,0c0,0,0,0,0,0l5-4.6
		c0,0,0-0.1,0-0.1l-0.9-0.9C20.8,15.4,20.8,15.4,20.7,15.5z"/>
</g>
</svg>
