<?xml version="1.0" encoding="utf-8"?>
<!-- Generator: Adobe Illustrator 22.1.0, SVG Export Plug-In . SVG Version: 6.00 Build 0)  -->
<svg version="1.1" id="Calque_1" xmlns="http://www.w3.org/2000/svg" xmlns:xlink="http://www.w3.org/1999/xlink" x="0px" y="0px"
	 viewBox="0 0 23 16" style="enable-background:new 0 0 23 16;" xml:space="preserve">
<style type="text/css">
	.st0{fill:#95989A;}
</style>
<title>cloud</title>
<desc>Created with Sketch.</desc>
<g id="Client-vueJS">
	<g id="Home" transform="translate(-14.000000, -217.000000)">
		<g id="cloud" transform="translate(14.000000, 217.000000)">
			<path id="Fill-1" class="st0" d="M11.4,0.9L11.4,0.9C9,0.9,6.8,2.3,5.8,4.5L5.7,4.8l-0.5,0C4.1,4.8,3,5.3,2.2,6.1S0.9,8,0.9,9.2
				l0,0.7c0,1,0.3,1.9,1,2.7l0,0c0.7,1,1.8,1.6,3,1.6h0l13.5,0c1,0,1.9-0.4,2.6-1.1c0.7-0.7,1.1-1.6,1.1-2.6c0-1-0.4-1.9-1.1-2.6
				c-0.7-0.7-1.6-1.1-2.6-1.1h0l-1,0l0-0.4c-0.1-1.5-0.8-2.9-1.9-4C14.4,1.5,12.9,0.9,11.4,0.9z M4.9,15.1c-1.5,0-2.9-0.7-3.8-2
				C0.4,12.2,0,11.1,0,9.9l0-0.7c0-1.4,0.5-2.7,1.5-3.7c1-1,2.3-1.5,3.6-1.5C6.3,1.5,8.7,0,11.4,0h0c1.8,0,3.4,0.7,4.7,1.9
				C17.3,3,18.1,4.4,18.3,6l0.2,0h0c1.2,0,2.4,0.5,3.2,1.3c0.9,0.9,1.3,2,1.3,3.2c0,2.5-2,4.6-4.6,4.6L4.9,15.1L4.9,15.1z"/>
		</g>
	</g>
</g>
</svg>
