<?xml version="1.0" encoding="utf-8"?>
<!-- Generator: Adobe Illustrator 22.1.0, SVG Export Plug-In . SVG Version: 6.00 Build 0)  -->
<svg version="1.1" id="Calque_1" xmlns="http://www.w3.org/2000/svg" xmlns:xlink="http://www.w3.org/1999/xlink" x="0px" y="0px"
	 viewBox="0 0 20 21" style="enable-background:new 0 0 20 21;" xml:space="preserve">
<style type="text/css">
	.st0{fill:#95989A;}
</style>
<title>home</title>
<desc>Created with Sketch.</desc>
<g id="Client-vueJS">
	<g id="Home" transform="translate(-15.000000, -64.000000)">
		<g id="home" transform="translate(15.000000, 64.000000)">
			<g id="Page-1">
				<path id="Fill-1" class="st0" d="M18.8,9c-0.3,0.3-0.8,0.3-1.2,0L10,2.5L2.4,9C2.1,9.2,1.5,9.2,1.2,9C1.1,8.8,1,8.7,1,8.6
					s0.1-0.3,0.2-0.4l8.1-6.8l0,0c0,0,0.1-0.1,0.1-0.1C9.5,1.1,9.8,1,10,1h0h0c0.2,0,0.4,0.1,0.6,0.2c0,0,0.1,0.1,0.1,0.1l0,0
					l8.1,6.8c0.1,0.1,0.2,0.2,0.2,0.4S18.9,8.8,18.8,9 M19.4,7.4l-8-6.8c-0.1-0.1-0.1-0.1-0.2-0.2C10.9,0.2,10.5,0,10,0
					C9.5,0,9.1,0.2,8.7,0.4C8.7,0.5,8.6,0.6,8.5,0.6l-8,6.8C0.2,7.7,0,8.1,0,8.6C0,9,0.2,9.4,0.6,9.7c0.7,0.6,1.8,0.6,2.5,0L10,3.8
					l6.9,5.9c0.3,0.3,0.8,0.4,1.2,0.4c0.4,0,0.9-0.1,1.2-0.4C19.8,9.4,20,9,20,8.6C20,8.1,19.8,7.7,19.4,7.4"/>
				<path id="Fill-3" class="st0" d="M16.4,19.7c0,0.2-0.1,0.3-0.3,0.3h-3.6c-0.2,0-0.3-0.1-0.3-0.3v-5c0-0.7-0.6-1.4-1.4-1.4H9.1
					c-0.7,0-1.4,0.6-1.4,1.4v5c0,0.2-0.1,0.3-0.3,0.3H3.8c-0.2,0-0.3-0.1-0.3-0.3v-7.9c0,0,0,0,0-0.1l0,0l0,0c0,0,0,0,0,0L10,6.1
					c0,0,0,0,0.1,0l6.4,5.5c0,0,0,0,0,0l0,0l0,0c0,0,0,0.1,0,0.1V19.7z M17.1,10.9l-6.4-5.5c-0.4-0.4-1-0.4-1.4,0l-6.4,5.5
					c-0.2,0.2-0.3,0.4-0.4,0.6c0,0.1,0,0.2,0,0.3v7.9c0,0.7,0.6,1.3,1.3,1.3h3.6c0.7,0,1.3-0.6,1.3-1.3v-5c0-0.2,0.1-0.3,0.3-0.3
					h1.8c0.2,0,0.3,0.1,0.3,0.3v5c0,0.7,0.6,1.3,1.3,1.3h3.6c0.7,0,1.3-0.6,1.3-1.3v-7.9c0-0.1,0-0.2,0-0.3
					C17.4,11.3,17.3,11,17.1,10.9z"/>
			</g>
		</g>
	</g>
</g>
</svg>
