<?xml version="1.0" encoding="utf-8"?>
<!-- Generator: Adobe Illustrator 22.1.0, SVG Export Plug-In . SVG Version: 6.00 Build 0)  -->
<svg version="1.1" id="Calque_1" xmlns="http://www.w3.org/2000/svg" xmlns:xlink="http://www.w3.org/1999/xlink" x="0px" y="0px"
	 viewBox="0 0 20 21" style="enable-background:new 0 0 20 21;" xml:space="preserve">
<style type="text/css">
	.st0{filter:url(#Adobe_OpacityMaskFilter);}
	.st1{fill:#FFFFFF;}
	.st2{mask:url(#mask-2_1_);fill:#95989A;}
</style>
<title>model</title>
<desc>Created with Sketch.</desc>
<g id="Client-vueJS">
	<g id="Home" transform="translate(-15.000000, -114.000000)">
		<g id="model" transform="translate(15.000000, 114.000000)">
			<g id="Page-1">
				<g id="Clip-2">
				</g>
				<defs>
					<filter id="Adobe_OpacityMaskFilter" filterUnits="userSpaceOnUse" x="0" y="0" width="20" height="20.7">
						<feColorMatrix  type="matrix" values="1 0 0 0 0  0 1 0 0 0  0 0 1 0 0  0 0 0 1 0"/>
					</filter>
				</defs>
				<mask maskUnits="userSpaceOnUse" x="0" y="0" width="20" height="20.7" id="mask-2_1_">
					<g class="st0">
						<polygon id="path-1_1_" class="st1" points="20,20.7 0,20.7 0,0 20,0 						"/>
					</g>
				</mask>
				<path id="Fill-1" class="st2" d="M19,15.5l-8.5,4v-7.8c0-0.3-0.2-0.5-0.5-0.5s-0.5,0.2-0.5,0.5v7.8l-8.5-4V5.8l8.8,3.8
					c0.1,0.1,0.3,0.1,0.4,0L19,5.7V15.5z M19.7,4.5L10.2,0C10.1,0,9.9,0,9.8,0l-7,3.4C2.6,3.5,2.4,3.8,2.6,4.1
					C2.7,4.3,3,4.4,3.2,4.3L10,1L18.3,5L10,8.7l-9.3-4c-0.2-0.1-0.3-0.1-0.5,0C0.1,4.8,0,4.9,0,5.1v10.7c0,0.2,0.1,0.4,0.3,0.4
					l9.5,4.5c0,0,0,0,0,0c0,0,0,0,0,0c0,0,0,0,0,0c0,0,0,0,0,0c0,0,0,0,0,0c0,0,0,0,0,0c0,0,0,0,0,0c0,0,0,0,0.1,0c0,0,0,0,0.1,0
					c0,0,0,0,0,0c0,0,0,0,0,0c0,0,0,0,0,0c0,0,0,0,0,0c0,0,0,0,0,0c0,0,0,0,0,0c0,0,0,0,0,0l9.5-4.5c0.2-0.1,0.3-0.3,0.3-0.4V5
					C20,4.8,19.9,4.6,19.7,4.5z"/>
			</g>
		</g>
	</g>
</g>
</svg>
