<svg width="11" height="11" viewBox="0 0 11 11" fill="none" xmlns="http://www.w3.org/2000/svg">
<path d="M10.3303 9.15213L7.46087 6.26534C7.74466 5.53572 7.587 4.6792 6.98789 4.07646C6.35726 3.442 5.41131 3.31511 4.65454 3.66407L6.01041 5.02815L5.06446 5.97984L3.67706 4.61575C3.29868 5.3771 3.45634 6.32879 4.08697 6.96325C4.68608 7.56598 5.53743 7.7246 6.26266 7.43909L9.13205 10.3259C9.25818 10.4528 9.44737 10.4528 9.5735 10.3259L10.2987 9.59625C10.4564 9.46936 10.4564 9.2473 10.3303 9.15213Z" fill="#2F374A"/>
<path fill-rule="evenodd" clip-rule="evenodd" d="M4.34193 0H6.65772V1.01427C7.08274 1.12363 7.48415 1.29181 7.85277 1.50962L8.57022 0.792159L10.2077 2.42967L9.49032 3.14708C9.70813 3.51567 9.87633 3.91706 9.98572 4.34206H11V6.65785H9.98574C9.89485 7.01098 9.76337 7.34781 9.59656 7.66307L8.72535 6.79186C8.88544 6.39252 8.97351 5.95655 8.97351 5.50001C8.97351 3.58154 7.41829 2.02632 5.49983 2.02632C3.58136 2.02632 2.02614 3.58154 2.02614 5.50001C2.02614 7.41847 3.58136 8.97369 5.49983 8.97369C5.95641 8.97369 6.39242 8.8856 6.79179 8.72549L7.66291 9.59661C7.34766 9.76339 7.01084 9.89485 6.65772 9.98572V11H4.34193V9.98559C3.91707 9.87622 3.51581 9.70807 3.14732 9.49034L2.42982 10.2078L0.792312 8.57033L1.50978 7.85285C1.29198 7.48427 1.12379 7.08289 1.01441 6.65791H0V4.34212H1.0144C1.12377 3.91716 1.29194 3.5158 1.50972 3.14724L0.792158 2.42967L2.42967 0.792161L3.14721 1.50971C3.51573 1.29194 3.91703 1.12378 4.34193 1.01439V0Z" fill="#2F374A"/>
</svg>
