<?xml version="1.0" encoding="utf-8"?>
<!-- Generator: Adobe Illustrator 23.0.2, SVG Export Plug-In . SVG Version: 6.00 Build 0)  -->
<svg version="1.1" id="Calque_1" xmlns="http://www.w3.org/2000/svg" xmlns:xlink="http://www.w3.org/1999/xlink" x="0px" y="0px"
	 viewBox="0 0 23 23" style="enable-background:new 0 0 23 23;" xml:space="preserve">
<style type="text/css">
	.st0{fill:#30374B;}
</style>
<g>
	<path class="st0" d="M13.53,7.71c-0.44,0-0.86,0.08-1.25,0.21v0.82h-1.25V8.61c-0.89,0.73-1.45,1.83-1.45,3.07
		c0,1.39,0.72,2.62,1.8,3.33h0.9v0.44c0.4,0.13,0.83,0.21,1.27,0.21c0.43,0,0.85-0.07,1.24-0.2v-0.45h0.93
		c0.72-0.47,1.28-1.17,1.57-2v-1.76h-3.76V7.71z M12.27,13.75h-1.25V12.5h1.25V13.75z M12.27,11.25h-1.25V9.99h1.25V11.25z
		 M14.78,12.5h1.25v1.25h-1.25V12.5z"/>
	<path class="st0" d="M22.36,19.52c-0.06-0.18-0.19-0.35-0.32-0.49c-1.16-1.18-2.34-2.35-3.51-3.51c-0.09-0.09-0.19-0.15-0.28-0.22
		c2.05-2.83,1.28-6.33-0.96-8.15c-2.26-1.84-5.52-1.77-7.71,0.2c-2.15,1.93-2.56,5.17-0.96,7.61c0.79,1.2,1.89,2.02,3.27,2.42
		c1.8,0.52,3.48,0.2,5.05-0.83c0.88,0.88,1.75,1.75,2.62,2.62c0.42,0.42,0.84,0.86,1.28,1.27c0.33,0.31,0.77,0.35,1.13,0.13
		C22.31,20.35,22.5,19.92,22.36,19.52z M13.53,16.06c-2.42-0.02-4.35-1.97-4.34-4.38c0.01-2.42,1.98-4.35,4.42-4.33
		c2.38,0.02,4.3,1.99,4.29,4.38C17.88,14.13,15.92,16.08,13.53,16.06z"/>
	<path class="st0" d="M17.82,19.57h-2.15v-1.38c-0.67,0.22-1.38,0.34-2.12,0.34c-0.76,0-1.5-0.13-2.18-0.36v1.4H9.21v-2.15h0.61
		c-1.86-1.22-3.1-3.32-3.1-5.71c0-2.12,0.97-4.02,2.49-5.27V4.5h2.15v0.74c0.68-0.23,1.4-0.35,2.15-0.36V4.5l-3.23-3.23L7.05,4.5
		v2.15H0.6v15.07h19.38v-1.48l-2.15-2.14V19.57z M4.9,19.57H2.75v-2.15H4.9V19.57z M4.9,15.27H2.75v-2.15H4.9V15.27z M4.9,10.96
		H2.75V8.81H4.9V10.96z"/>
	<path class="st0" d="M19.97,16.15v-2.16c-0.18,0.52-0.43,1-0.72,1.46L19.97,16.15z"/>
</g>
</svg>
