<?xml version="1.0" encoding="utf-8"?>
<!-- Generator: Adobe Illustrator 22.1.0, SVG Export Plug-In . SVG Version: 6.00 Build 0)  -->
<svg version="1.1" id="Calque_1" xmlns="http://www.w3.org/2000/svg" xmlns:xlink="http://www.w3.org/1999/xlink" x="0px" y="0px"
	 viewBox="0 0 23 23" style="enable-background:new 0 0 23 23;" xml:space="preserve">
<style type="text/css">
	.st0{fill:#30374B;}
</style>
<g>
	<path class="st0" d="M19.5,12.2v8.3c0,0.5-0.4,0.8-0.8,0.8H2.3c-0.5,0-0.8-0.4-0.8-0.8V4.1c0-0.5,0.4-0.8,0.8-0.8h8.3l1.2-1.2H2.3
		c-1.1,0-2,0.9-2,2v16.4c0,1.1,0.9,2,2,2h16.4c1.1,0,2-0.9,2-2V11L19.5,12.2z"/>
	<polygon class="st0" points="9.5,16.1 12.8,15.3 9.7,14.3 22.6,1.4 21.8,0.6 8.9,13.4 7.9,10.4 7,13.7 6.2,17 	"/>
</g>
</svg>
