<svg width="11" height="11" viewBox="0 0 11 11" fill="none" xmlns="http://www.w3.org/2000/svg">
<path fill-rule="evenodd" clip-rule="evenodd" d="M6.23551 1.55411H4.76322V2.19911C4.49322 2.26867 4.23821 2.37556 4.00403 2.51396L3.54779 2.05771L2.50672 3.09878L2.96303 3.55509C2.8246 3.78938 2.71771 4.04452 2.64819 4.31466H2.00317V5.78695H2.64821C2.71772 6.057 2.82458 6.31206 2.96296 6.54629L2.50648 7.00277L3.54755 8.04384L4.00391 7.58748C4.23812 7.72591 4.49317 7.83283 4.76322 7.9024V8.54747H6.23551V7.90273C6.50592 7.8332 6.76131 7.72622 6.99581 7.58766L7.45196 8.0438L8.49303 7.00274L8.03689 6.5466C8.17535 6.31228 8.28228 6.0571 8.35182 5.78692H8.99663V4.31463H8.35183C8.2823 4.0445 8.17541 3.78936 8.03698 3.55507L8.49327 3.09878L7.45221 2.05771L6.99597 2.51395C6.76142 2.37534 6.50598 2.26832 6.23551 2.19878V1.55411ZM5.4998 7.25922C6.71948 7.25922 7.70823 6.27047 7.70823 5.05078C7.70823 3.8311 6.71948 2.84235 5.4998 2.84235C4.28011 2.84235 3.29136 3.8311 3.29136 5.05078C3.29136 6.27047 4.28011 7.25922 5.4998 7.25922Z" fill="#2F374A"/>
<path fill-rule="evenodd" clip-rule="evenodd" d="M9.61162 6.21633C9.10427 8.01014 7.45501 9.3245 5.49876 9.3245C3.54619 9.3245 1.89946 8.01508 1.38878 6.22644H1.99117L0.995585 4.899L0 6.22644H0.585541C1.11538 8.44889 3.11407 10.1015 5.49876 10.1015C7.88707 10.1015 9.8882 8.44388 10.4144 6.21633H9.61162ZM1.38591 3.88521C1.89326 2.0914 3.54252 0.777042 5.49876 0.777042C7.43954 0.777042 9.07816 2.0707 9.59937 3.84274H9.00879L10.0044 5.17019L11 3.84274H10.4042C9.86271 1.63663 7.87186 0 5.49876 0C3.11046 0 1.10933 1.65766 0.583143 3.88521H1.38591Z" fill="#2F374A"/>
</svg>
