<svg width="14" height="14" viewBox="0 0 14 14" fill="none" xmlns="http://www.w3.org/2000/svg">
<path fill-rule="evenodd" clip-rule="evenodd" d="M11.3023 0.832368C11.4973 1.1147 11.5658 1.44466 11.5724 1.66777C11.5725 1.66934 11.5725 1.67091 11.5725 1.67249C11.5725 1.67385 11.5725 1.67522 11.5725 1.67658V7.98473C11.5725 7.98547 11.5725 7.98621 11.5725 7.98695C11.5725 7.98821 11.5725 7.98946 11.5725 7.99072C11.5667 8.2789 11.5156 8.76903 11.1757 9.18865C10.8258 9.62056 10.2211 9.91735 9.23704 9.91735H7.26779L4.55882 13.1702C4.478 13.2672 4.34505 13.3032 4.22629 13.2603C4.10753 13.2173 4.02842 13.1045 4.02842 12.9782V9.91735H2.30338C1.39972 9.91735 0.820096 9.61813 0.470362 9.1967C0.130609 8.78729 0.0437635 8.30547 0.0317215 7.9964C0.03157 7.99251 0.0314941 7.98862 0.0314941 7.98473V2.12716C0.0314941 1.70938 0.119227 1.23766 0.467783 0.872988C0.81806 0.506518 1.37601 0.305861 2.18676 0.305861H10.2533C10.7562 0.300988 11.0971 0.535343 11.3023 0.832368ZM10.8088 1.1733C10.7051 1.02325 10.543 0.902637 10.258 0.905701L10.2548 0.905719H2.18676C1.46553 0.905719 1.09582 1.08408 0.901418 1.28746C0.705299 1.49265 0.631352 1.78161 0.631352 2.12716V7.97863C0.641351 8.21348 0.708942 8.54487 0.931971 8.81362C1.14679 9.07248 1.54254 9.31749 2.30338 9.31749H4.32835C4.494 9.31749 4.62828 9.45178 4.62828 9.61742V12.1494L6.89678 9.42548C6.95377 9.35706 7.03821 9.31749 7.12726 9.31749H9.23704C10.0978 9.31749 10.5055 9.06299 10.7096 8.81107C10.9227 8.54792 10.9675 8.22323 10.9727 7.98161V1.68139C10.9679 1.54399 10.9217 1.33676 10.8088 1.1733Z" fill="#2F374A"/>
<path fill-rule="evenodd" clip-rule="evenodd" d="M13.3687 4.70275C13.3611 4.46923 13.2904 4.1292 13.1179 3.86712C12.9563 3.6215 12.7089 3.44312 12.2926 3.47577C12.1275 3.48872 11.9831 3.36535 11.9702 3.20021C11.9572 3.03507 12.0806 2.8907 12.2457 2.87775C12.9108 2.82558 13.3553 3.13666 13.619 3.53731C13.8709 3.91995 13.9594 4.38051 13.9684 4.68934C13.9685 4.69227 13.9686 4.6952 13.9686 4.69814V9.85496C13.9686 10.9317 13.0957 11.8045 12.019 11.8045H10.1095V12.8668C10.1095 13.3085 9.59722 13.5527 9.2541 13.2746L9.44295 13.0416L9.2541 13.2746L6.99141 11.4407C6.86272 11.3364 6.84295 11.1476 6.94725 11.0189C7.05155 10.8902 7.24042 10.8704 7.36911 10.9747L9.50961 12.7095V11.7749C9.50961 11.46 9.76493 11.2046 10.0799 11.2046H12.019C12.7644 11.2046 13.3687 10.6004 13.3687 9.85496V4.70275Z" fill="#2F374A"/>
<path fill-rule="evenodd" clip-rule="evenodd" d="M5.52105 5.71327V7.84532C5.3576 7.75615 5.17939 7.58746 5.00962 7.30347C4.77343 6.90837 4.60045 6.35456 4.55711 5.71327H5.52105ZM6.15187 5.71327V7.82385C6.30497 7.73014 6.4692 7.56611 6.6262 7.30347C6.8624 6.90837 7.03537 6.35456 7.07871 5.71327H6.15187ZM7.07871 5.08245H6.15187V2.97188C6.30497 3.06559 6.4692 3.22961 6.6262 3.49225C6.8624 3.88736 7.03537 4.44116 7.07871 5.08245ZM7.67977 5.71327C7.63691 6.42983 7.44959 7.07517 7.16724 7.56662C7.81669 7.17521 8.276 6.50032 8.37387 5.71327H7.67977ZM8.37387 5.08245H7.67977C7.63691 4.36589 7.44958 3.72053 7.16723 3.22909C7.81669 3.6205 8.27601 4.29539 8.37387 5.08245ZM5.52105 5.08245H4.55711C4.60045 4.44116 4.77343 3.88736 5.00962 3.49225C5.17939 3.20827 5.3576 3.03957 5.52105 2.95041V5.08245ZM3.95605 5.08245C3.99632 4.40935 4.16405 3.79908 4.41828 3.32019C3.84351 3.7206 3.44273 4.35341 3.35208 5.08245H3.95605ZM3.35208 5.71327C3.44273 6.44231 3.84351 7.07511 4.41827 7.47552C4.16404 6.99663 3.99631 6.38636 3.95605 5.71327H3.35208ZM5.83451 2.26777L5.81791 2.26765C5.79558 2.26765 5.77333 2.2683 5.75119 2.2696C4.07419 2.32846 2.73276 3.7065 2.73276 5.39786C2.73276 7.08903 4.07392 8.46697 5.75067 8.5261C5.77299 8.52741 5.7954 8.52808 5.81791 8.52808L5.83503 8.52795L5.86297 8.52807C7.59175 8.52807 8.99319 7.12663 8.99319 5.39786C8.99319 3.66909 7.59175 2.26764 5.86297 2.26764L5.83451 2.26777Z" fill="#2F374A"/>
</svg>
