<?xml version="1.0" encoding="utf-8"?>
<!-- Generator: Adobe Illustrator 23.0.2, SVG Export Plug-In . SVG Version: 6.00 Build 0)  -->
<svg version="1.1" id="Calque_1" xmlns="http://www.w3.org/2000/svg" xmlns:xlink="http://www.w3.org/1999/xlink" x="0px" y="0px"
	 viewBox="0 0 80 80" style="enable-background:new 0 0 80 80;" xml:space="preserve">
<style type="text/css">
	.st0{fill:#EFF0F3;}
	.st1{fill:#FFFFFF;}
	.st2{fill:#E6E7EA;}
	.st3{fill:#DDDDDD;}
	.st4{fill:#30374B;}
</style>
<g>
	<g>
		<circle class="st0" cx="40" cy="40" r="39.07"/>
		<path class="st1" d="M40.01,9.9l21.78,6.5c0,0,4.93,40.79-21.8,50.03L40.01,9.9z"/>
		<path class="st2" d="M39.99,9.9l-21.78,6.5c0,0-4.93,40.79,21.8,50.03L39.99,9.9z"/>
		<ellipse class="st3" cx="40.01" cy="69.5" rx="10.73" ry="0.6"/>
	</g>
	<path class="st4" d="M31.2,45.32c-2,0-3.87-0.99-5.01-2.65c-0.99-1.24-1.54-2.79-1.54-4.37l0-0.95c0-1.87,0.73-3.63,2.06-4.96
		c1.3-1.3,3-2.03,4.82-2.07c1.54-3.17,4.76-5.2,8.31-5.21c0,0,0.01,0,0.01,0c2.35,0,4.59,0.88,6.31,2.49
		c1.57,1.47,2.58,3.42,2.85,5.54l0.24,0c0,0,0,0,0.01,0c1.61,0,3.14,0.63,4.29,1.78c1.15,1.15,1.79,2.67,1.79,4.29
		c0,3.35-2.72,6.08-6.07,6.08L31.2,45.32C31.21,45.32,31.21,45.32,31.2,45.32z"/>
	<path class="st1" d="M45.94,36.82h-0.1c-0.32,0-0.58,0.26-0.58,0.58v3.24H34.72V37.4c0-0.32-0.26-0.58-0.58-0.58h-0.1
		c-0.32,0-0.58,0.26-0.58,0.58v3.82v0.1c0,0.32,0.26,0.58,0.58,0.58h0.1h11.71h0.1c0.32,0,0.58-0.26,0.58-0.58v-0.1V37.4
		C46.52,37.08,46.26,36.82,45.94,36.82z"/>
	<path class="st1" d="M42.48,33.61l-2.06-2.06c-0.23-0.23-0.62-0.23-0.85,0l-2.06,2.06c-0.23,0.23-0.23,0.62,0,0.85
		c0.23,0.23,0.62,0.23,0.85,0l1.04-1.04v5.33c0,0.33,0.27,0.6,0.6,0.6c0.33,0,0.6-0.27,0.6-0.6v-5.33l1.04,1.04
		c0.23,0.23,0.62,0.23,0.85,0C42.72,34.22,42.72,33.84,42.48,33.61z"/>
</g>
</svg>
