<?xml version="1.0" encoding="utf-8"?>
<!-- Generator: Adobe Illustrator 23.0.2, SVG Export Plug-In . SVG Version: 6.00 Build 0)  -->
<svg version="1.1" id="Calque_1" xmlns="http://www.w3.org/2000/svg" xmlns:xlink="http://www.w3.org/1999/xlink" x="0px" y="0px"
	 viewBox="0 0 80 80" style="enable-background:new 0 0 80 80;" xml:space="preserve">
<style type="text/css">
	.st0{fill:#EFF0F3;}
	.st1{fill:#FFFFFF;}
	.st2{fill:#E6E7EA;}
	.st3{fill:#DDDDDD;}
	.st4{fill:#30374B;}
</style>
<g>
	<g>
		<circle class="st0" cx="40" cy="40" r="38.92"/>
		<path class="st1" d="M40.01,10.02L61.7,16.5c0,0,4.91,40.63-21.71,49.83L40.01,10.02z"/>
		<path class="st2" d="M39.99,10.02L18.3,16.5c0,0-4.91,40.63,21.71,49.83L39.99,10.02z"/>
		<ellipse class="st3" cx="40.01" cy="69.38" rx="10.69" ry="0.59"/>
	</g>
	<path class="st4" d="M31.24,45.3c-1.99,0-3.85-0.99-4.99-2.64c-0.99-1.23-1.53-2.78-1.53-4.35l0-0.94c0-1.86,0.73-3.62,2.05-4.94
		c1.29-1.29,2.99-2.02,4.8-2.06c1.53-3.16,4.74-5.18,8.27-5.19c0,0,0.01,0,0.01,0c2.34,0,4.57,0.88,6.28,2.48
		c1.57,1.47,2.57,3.41,2.84,5.52l0.24,0c0,0,0,0,0.01,0c1.61,0,3.12,0.63,4.27,1.77c1.15,1.14,1.78,2.66,1.78,4.27
		c0,3.34-2.71,6.05-6.05,6.06L31.24,45.3C31.24,45.3,31.24,45.3,31.24,45.3z"/>
	<path class="st1" d="M44.56,29.5c0-0.63-0.51-1.15-1.14-1.15h-4.59l-3.44,3.44v6.89c0,0.63,0.52,1.15,1.15,1.15h2.4v-1.88
		l-0.45,0.45c-0.39,0.39-1.09,0.39-1.48,0c-0.41-0.41-0.41-1.07,0-1.48l2.24-2.24c0.41-0.41,1.07-0.41,1.48,0l2.24,2.24
		c0.2,0.2,0.31,0.46,0.31,0.74c0,0.28-0.11,0.54-0.31,0.74c-0.41,0.41-1.07,0.41-1.48,0l-0.45-0.45v1.88h2.4
		c0.63,0,1.14-0.52,1.14-1.15L44.56,29.5z M39.44,31.33v0.97h-3.05l3.05-3.05V31.33z"/>
	<path class="st1" d="M42.67,37.2l-2.24-2.24c-0.25-0.25-0.67-0.25-0.92,0l-2.24,2.24c-0.25,0.25-0.25,0.67,0,0.92s0.67,0.25,0.92,0
		L39.32,37v5.78c0,0.36,0.29,0.65,0.65,0.65c0.36,0,0.65-0.29,0.65-0.65V37l1.12,1.12c0.25,0.25,0.67,0.25,0.92,0
		C42.93,37.87,42.93,37.45,42.67,37.2z"/>
</g>
</svg>
