<?xml version="1.0" encoding="utf-8"?>
<!-- Generator: Adobe Illustrator 23.0.1, SVG Export Plug-In . SVG Version: 6.00 Build 0)  -->
<svg version="1.1" id="Calque_1" xmlns="http://www.w3.org/2000/svg" xmlns:xlink="http://www.w3.org/1999/xlink" x="0px" y="0px"
	 viewBox="0 0 23 23" style="enable-background:new 0 0 23 23;" xml:space="preserve">
<style type="text/css">
	.st0{fill:#30374B;}
</style>
<g>
	<circle class="st0" cx="10.28" cy="5.38" r="5.02"/>
	<path class="st0" d="M12.41,17.38c0-1.57,0.67-2.98,1.73-3.98c-1.41-0.33-2.8-0.5-3.85-0.5c-3.35,0-10.03,1.68-10.03,5.02v2.51
		h13.08C12.75,19.56,12.41,18.51,12.41,17.38z"/>
</g>
<g>
	<path class="st0" d="M17.88,12.52c-2.69,0-4.86,2.18-4.86,4.86c0,2.69,2.18,4.86,4.86,4.86s4.86-2.18,4.86-4.86
		C22.75,14.7,20.57,12.52,17.88,12.52z M20.1,19.34c0,0.45-0.37,0.81-0.81,0.81h-2.78c-0.45,0-0.81-0.37-0.81-0.81v-2.23
		c0-0.45,0.37-0.81,0.81-0.81h0.01v-0.27c0-0.76,0.62-1.37,1.37-1.37s1.37,0.62,1.37,1.37v0.27h0.01c0.45,0,0.81,0.37,0.81,0.81
		V19.34z"/>
	<path class="st0" d="M17.9,14.98c-0.58,0-1.06,0.48-1.06,1.06v0.26h2.13v-0.26C18.97,15.46,18.49,14.98,17.9,14.98z"/>
</g>
</svg>
