<?xml version="1.0" encoding="utf-8"?>
<!-- Generator: Adobe Illustrator 23.0.1, SVG Export Plug-In . SVG Version: 6.00 Build 0)  -->
<svg version="1.1" id="Calque_1" xmlns="http://www.w3.org/2000/svg" xmlns:xlink="http://www.w3.org/1999/xlink" x="0px" y="0px"
	 viewBox="0 0 23 23" style="enable-background:new 0 0 23 23;" xml:space="preserve">
<style type="text/css">
	.st0{fill:#30374B;}
</style>
<g>
	<circle class="st0" cx="10.3" cy="5.72" r="4.95"/>
	<path class="st0" d="M12.4,17.57c0-1.55,0.66-2.94,1.7-3.93c-1.39-0.33-2.76-0.5-3.8-0.5c-3.3,0-9.9,1.66-9.9,4.95v2.47h12.91
		C12.74,19.71,12.4,18.68,12.4,17.57z"/>
</g>
<path class="st0" d="M17.8,12.77c-2.65,0-4.8,2.15-4.8,4.8s2.15,4.8,4.8,4.8s4.8-2.15,4.8-4.8S20.45,12.77,17.8,12.77z M19.92,19.26
	l-0.42,0.42l-1.7-1.7l-1.7,1.7l-0.42-0.42l1.7-1.7l-1.7-1.7l0.42-0.42l1.7,1.7l1.7-1.7l0.42,0.42l-1.7,1.7L19.92,19.26z"/>
</svg>
