<?xml version="1.0" encoding="utf-8"?>
<!-- Generator: Adobe Illustrator 23.0.1, SVG Export Plug-In . SVG Version: 6.00 Build 0)  -->
<svg version="1.1" id="Calque_2" xmlns="http://www.w3.org/2000/svg" xmlns:xlink="http://www.w3.org/1999/xlink" x="0px" y="0px"
	 viewBox="0 0 100 100" style="enable-background:new 0 0 100 100;" xml:space="preserve">
<style type="text/css">
	.st0{fill:#CACACA;}
</style>
<g>
	<path class="st0" d="M47.49,55.09c-6.8,0-20.36,3.41-20.36,10.18v5.09h40.73v-5.09C67.85,58.5,54.28,55.09,47.49,55.09z"/>
	<circle class="st0" cx="47.49" cy="39.82" r="10.18"/>
	<path class="st0" d="M67.17,22.61c-0.66,0-1.2,0.54-1.2,1.2c0,0.66,0.54,1.2,1.2,1.2h11.98h0c0.66,0,1.2-0.54,1.2-1.2V9.44
		c0-0.66-0.54-1.2-1.2-1.2h0c-0.66,0-1.2,0.54-1.2,1.2v13.18H67.17z"/>
	<path class="st0" d="M98.26,23.81c0-10.76-8.75-19.51-19.51-19.51c-4.57,0-8.76,1.59-12.09,4.23C60.56,5.7,54.12,4.26,47.49,4.26
		C22.26,4.26,1.74,24.78,1.74,50s20.52,45.74,45.74,45.74c25.22,0,45.75-20.52,45.75-45.74c0-3.84-0.54-7.75-1.55-11.62
		C95.7,34.81,98.26,29.61,98.26,23.81z M95.86,23.81c0,5.39-2.51,10.19-6.41,13.33c-0.67,0.54-1.38,1.02-2.12,1.45
		c-0.09,0.05-0.18,0.11-0.27,0.16c-0.77,0.43-1.57,0.79-2.39,1.09c-0.11,0.04-0.23,0.09-0.34,0.13c-0.82,0.29-1.67,0.51-2.53,0.67
		c-0.12,0.02-0.24,0.04-0.36,0.06c-0.89,0.14-1.79,0.23-2.7,0.23c-9.44,0-17.12-7.68-17.12-17.12c0-0.61,0.03-1.22,0.1-1.82
		c0.01-0.13,0.04-0.25,0.06-0.38c0.06-0.47,0.13-0.94,0.23-1.4c0.03-0.15,0.08-0.29,0.11-0.44c0.11-0.43,0.22-0.86,0.36-1.28
		c0.05-0.16,0.12-0.31,0.17-0.47c0.14-0.4,0.3-0.8,0.47-1.18c0.07-0.16,0.16-0.32,0.23-0.49c0.18-0.37,0.37-0.73,0.57-1.08
		c0.1-0.16,0.2-0.33,0.3-0.49c0.21-0.34,0.44-0.67,0.67-1c0.11-0.15,0.22-0.31,0.34-0.46c0.26-0.33,0.52-0.65,0.8-0.96
		c0.11-0.13,0.23-0.26,0.35-0.38c0.32-0.34,0.66-0.66,1.02-0.97c0.13-0.12,0.25-0.24,0.39-0.35l0.09-0.08
		c2.96-2.43,6.74-3.89,10.85-3.89C88.18,6.7,95.86,14.37,95.86,23.81z M89.63,40c0.8,3.34,1.2,6.69,1.2,10
		c0,23.9-19.45,43.35-43.35,43.35S4.14,73.9,4.14,50c0-23.9,19.45-43.35,43.35-43.35c5.95,0,11.74,1.22,17.23,3.61
		c-0.13,0.14-0.25,0.29-0.37,0.42c-0.27,0.29-0.53,0.58-0.78,0.89c-0.15,0.19-0.28,0.38-0.43,0.57c-0.23,0.31-0.47,0.62-0.68,0.95
		c-0.13,0.19-0.24,0.39-0.36,0.59c-0.21,0.34-0.41,0.68-0.6,1.03c-0.1,0.19-0.19,0.39-0.28,0.59c-0.18,0.37-0.36,0.73-0.51,1.11
		c-0.08,0.2-0.14,0.4-0.22,0.6c-0.14,0.39-0.29,0.77-0.41,1.17c-0.07,0.22-0.11,0.44-0.17,0.67c-0.1,0.38-0.21,0.77-0.29,1.16
		c-0.06,0.29-0.09,0.6-0.14,0.89c-0.05,0.33-0.11,0.65-0.14,0.98c-0.06,0.64-0.1,1.28-0.1,1.93c0,10.76,8.75,19.51,19.51,19.51
		c0.89,0,1.76-0.08,2.61-0.2c0.19-0.03,0.38-0.06,0.57-0.09c1.74-0.29,3.41-0.8,4.96-1.52c0.17-0.08,0.33-0.16,0.49-0.24
		c0.74-0.37,1.46-0.77,2.14-1.22C89.56,40.04,89.6,40.03,89.63,40z"/>
</g>
</svg>
